/* XPM */
static char *ezgif_2_1658bc5fda[] = {
/* columns rows colors chars-per-pixel */
"16 16 60 1 ",
"  c #324420",
". c #334521",
"X c #334622",
"o c #344622",
"O c #344722",
"+ c #354823",
"@ c #354923",
"# c #364923",
"$ c #364924",
"% c #364A24",
"& c #374A24",
"* c #374B24",
"= c #364B25",
"- c #374B25",
"; c #374C25",
": c #3B4D23",
"> c #3E4D22",
", c #3F4E23",
"< c #384B25",
"1 c #384C25",
"2 c #3A4D24",
"3 c #3B4D24",
"4 c #414E22",
"5 c #404F23",
"6 c #414F23",
"7 c #425023",
"8 c #435023",
"9 c #435124",
"0 c #505623",
"q c #545923",
"w c #555A24",
"e c #555A25",
"r c #575B25",
"t c #6D6520",
"y c #766A21",
"u c #897321",
"i c #8A7421",
"p c #9B7E22",
"a c #8D7B30",
"s c #9D812D",
"d c #9F832E",
"f c #96843A",
"g c #A08123",
"h c #A18223",
"j c #A28223",
"k c #B28B24",
"l c #B48D24",
"z c #BB9329",
"x c #B8912A",
"c c #BC942B",
"v c #BA983C",
"b c #BF9B3D",
"n c #C6A13F",
"m c #B69845",
"M c #BA9A44",
"N c #B99A47",
"B c #B79A4C",
"V c #B89B4D",
"C c #BDA053",
"Z c #BDA156",
/* pixels */
"1111111111111111",
"11@O@-111111<<11",
"11@XO-1;-;11--11",
"1111111,61111111",
"11111;9ude-1--11",
"111111ylbf6;@XO<",
"1111;8gzMMq-1--1",
"11--;8gzZBe-1111",
"11--;8gzCVe-1111",
"1111;6pcvm0-1-<1",
"111111tkna:11-11",
"111-1;9ide-11111",
"11@XX-1,61111111",
"11-@@-1-;11-OO-1",
"11111111111<@@-1",
"1111111111111111"
};
