/* XPM */
static char *ezgif_2_97421f4d30[] = {
/* columns rows colors chars-per-pixel */
"16 16 41 1 ",
"  c #324420",
". c #334521",
"X c #334622",
"o c #344622",
"O c #344722",
"+ c #354823",
"@ c #354923",
"# c #364923",
"$ c #364924",
"% c #364A24",
"& c #374A24",
"* c #374B24",
"= c #374B25",
"- c #374C25",
"; c #3C4C23",
": c #3C4D23",
"> c #384B25",
", c #384C25",
"< c #3D4E24",
"1 c #414F21",
"2 c #424F21",
"3 c #404F22",
"4 c #414F22",
"5 c #424F22",
"6 c #425022",
"7 c #6A6321",
"8 c #6B6322",
"9 c #6B6423",
"0 c #6B6525",
"q c #A48933",
"w c #AB8C31",
"e c #AC8E36",
"r c #A78F3F",
"t c #A78F40",
"y c #AF9441",
"u c #AF9442",
"i c #AF9543",
"p c #B1974A",
"a c #AF9D5F",
"s c #B49E58",
"d c #B7A363",
/* pixels */
",,,,,,,,,,,,,,,,",
",,@O@=,,,,,,>=,,",
",,@XO=,-=,,,==,,",
",,,,,,,<;,,,,,,,",
",,,,,,,80,,,==,,",
",,,,,-3ra3-,@XO>",
",,,,,-3id3-,,==,",
",,==,-3is3-,,,,,",
",,==,-3ep3=,,,,,",
",,,,,-3wi3=,,=>,",
",,,,,-3qt3=,,=,,",
",,,>,,,89,,,,,,,",
",,@XX=,;;,,,,,,,",
",,=@@=,=,,,=OO=,",
",,,,,,,,,,,=@@=,",
",,,,,,,,,,,,,,,,"
};
