/* XPM */
static char *ezgif_1_1a8560f3a0[] = {
/* columns rows colors chars-per-pixel */
"16 16 81 1 ",
"  c #324420",
". c #334521",
"X c #334622",
"o c #344622",
"O c #344722",
"+ c #344723",
"@ c #354823",
"# c #354923",
"$ c #364923",
"% c #364924",
"& c #364A24",
"* c #374A24",
"= c #374B24",
"- c #374B25",
"; c #374C25",
": c #384B24",
"> c #384B25",
", c #384C24",
"< c #394C24",
"1 c #384C25",
"2 c #3A4C24",
"3 c #3A4D24",
"4 c #70671E",
"5 c #7D6E1E",
"6 c #7E6F1E",
"7 c #404E21",
"8 c #414E21",
"9 c #414F21",
"0 c #424F21",
"q c #415023",
"w c #425022",
"e c #435123",
"r c #415024",
"t c #435124",
"y c #4A5421",
"u c #4A5422",
"i c #4C5522",
"p c #716922",
"a c #726B27",
"s c #726C29",
"d c #807329",
"f c #8D7E30",
"g c #9F821F",
"h c #A4851F",
"j c #9C8223",
"k c #9F8831",
"l c #A78721",
"z c #A08525",
"x c #A78925",
"c c #A4892D",
"v c #B79020",
"b c #B89020",
"n c #BA9222",
"m c #BE9523",
"M c #B99327",
"N c #BE9624",
"B c #BF9725",
"V c #BD972B",
"C c #C29925",
"Z c #C19826",
"A c #C69D29",
"S c #C79F2E",
"D c #C19D35",
"F c #C29D34",
"G c #C39E36",
"H c #C09D3C",
"J c #CBA12C",
"K c #CCA22D",
"L c #CEA42E",
"P c #CFA42E",
"I c #CFA52E",
"U c #CFA52F",
"Y c #CCA432",
"T c #C7A23B",
"R c #C8A339",
"E c #CAA338",
"W c #AE9541",
"Q c #AA9446",
"! c #C3A142",
"~ c #C8A541",
"^ c #C9A644",
/* pixels */
"1111111111111111",
"11#O#-111111--11",
"11#XO-1--111--11",
"11111;1w9>;11111",
"1111;i5hzpw---11",
"111-ixmvMGkyOXO>",
"11115mZKYGTd1--1",
"11-9hvKLLEHW9;11",
"11-9gnJLLR!Q9;11",
"11114BBASG^s>->1",
"111;wjZnV~fw;-11",
"111>-y5lcaw-1111",
"11#XX-1991;11111",
"11-##-1-;11-OO-1",
"11111111111-##-1",
"1111111111111111"
};
