/* XPM */
static char *ezgif_2_82c9a4003b[] = {
/* columns rows colors chars-per-pixel */
"16 16 172 2 ",
"   c #2B2E2A",
".  c #302720",
"X  c #302820",
"o  c #302920",
"O  c #302821",
"+  c #312A22",
"@  c #312B23",
"#  c #312C20",
"$  c #312C21",
"%  c #323021",
"&  c #303024",
"*  c #343922",
"=  c #353D23",
"-  c #323D29",
";  c #3C3F2E",
":  c #2C3330",
">  c #293635",
",  c #293536",
"<  c #2F3E33",
"1  c #2B3A35",
"2  c #2D3B35",
"3  c #2D3C34",
"4  c #2D3C35",
"5  c #2E3D34",
"6  c #2F3D34",
"7  c #27333C",
"8  c #26313F",
"9  c #27323E",
"0  c #26323F",
"q  c #26343F",
"w  c #2A3739",
"e  c #29353A",
"r  c #28363B",
"t  c #2A373A",
"y  c #28343D",
"u  c #2B3838",
"i  c #2C3839",
"p  c #2A3B3C",
"a  c #323633",
"s  c #323D31",
"d  c #3F363E",
"f  c #303C39",
"g  c #43333A",
"h  c #324520",
"j  c #334620",
"k  c #334623",
"l  c #344622",
"z  c #324524",
"x  c #374724",
"c  c #354821",
"v  c #354923",
"b  c #364923",
"n  c #374B23",
"m  c #364A24",
"M  c #374A24",
"N  c #374B24",
"B  c #354826",
"V  c #354926",
"C  c #354927",
"Z  c #364827",
"A  c #374A26",
"S  c #374B26",
"D  c #374C24",
"F  c #374C25",
"G  c #384C24",
"H  c #384D24",
"J  c #394D24",
"K  c #384C25",
"L  c #30422A",
"P  c #33452A",
"I  c #33452B",
"U  c #33462B",
"Y  c #344729",
"T  c #34452A",
"R  c #31422C",
"E  c #31422D",
"W  c #30412E",
"Q  c #31422E",
"!  c #31422F",
"~  c #32432E",
"^  c #33442C",
"/  c #33452C",
"(  c #33442D",
")  c #35442F",
"_  c #36452F",
"`  c #354829",
"'  c #364928",
"]  c #364829",
"[  c #374A28",
"{  c #35482A",
"}  c #36482A",
"|  c #34482C",
" . c #35492C",
".. c #2F4036",
"X. c #314130",
"o. c #334030",
"O. c #334132",
"+. c #324033",
"@. c #324533",
"#. c #364530",
"$. c #304335",
"%. c #394436",
"&. c #3D4635",
"*. c #3D4737",
"=. c #3E4837",
"-. c #314338",
";. c #31433A",
":. c #3B433D",
">. c #48493D",
",. c #4E523D",
"<. c #4C503F",
"1. c #1F2847",
"2. c #1E2549",
"3. c #1E3A57",
"4. c #242F40",
"5. c #252F41",
"6. c #242E43",
"7. c #202A44",
"8. c #202A45",
"9. c #232C44",
"0. c #262D46",
"q. c #263042",
"w. c #273440",
"e. c #253443",
"r. c #283240",
"t. c #263943",
"y. c #26344A",
"u. c #303A40",
"i. c #223C55",
"p. c #61384C",
"a. c #6D3D49",
"s. c #4F3E67",
"d. c #4D3E6A",
"f. c #2E4242",
"g. c #2B4148",
"h. c #2B414B",
"j. c #324541",
"k. c #344440",
"l. c #304645",
"z. c #334547",
"x. c #354C47",
"c. c #354548",
"v. c #374649",
"b. c #34475B",
"n. c #3E535F",
"m. c #3A5166",
"M. c #3D6F62",
"N. c #4D444C",
"B. c #564A47",
"V. c #524D4E",
"C. c #40534B",
"Z. c #47574D",
"A. c #4B544F",
"S. c #505141",
"D. c #595644",
"F. c #5A534C",
"G. c #55555B",
"H. c #605C45",
"J. c #596446",
"K. c #6A6C42",
"L. c #616C48",
"P. c #716E40",
"I. c #475860",
"U. c #525364",
"Y. c #59566B",
"T. c #4F6569",
"R. c #49696A",
"E. c #78786B",
"W. c #697A72",
"Q. c #4E8767",
"!. c #769F61",
"~. c #7AAB64",
/* pixels */
"K K K K X.8 8 ' K e q.4 S K K K ",
"K K v k > e 2 K K R y u Y K K K ",
"K K v z > 7 e A A 4 8 i Y A K K ",
"K K K #.H.f ( A A ( 4 D.=.D K K ",
"K K K _ S.X.' I I ' R >.%.A K K ",
"K K K X.g i.e.b.m.q 3.d a k l K ",
"K K K _ B.y.I -.j.' t.N.*.A A K ",
"K K K X.F.0.R k v ' 6.V.:.D K K ",
"K K K R r.9.4 K K R 6.q.< K K K ",
"K K K 4 2.8.1 K K R 8.1.8 v K K ",
"K K K 4 U.d.G.| A A.s.Y.u.v K K ",
"K K K ..R.p.E.x.$.W.a.T.z.K K K ",
"K A L ; I.q z.s - c.e n.>.I ' K ",
"D *.P.J.Z.  # o o o & c.L.K.,.A ",
"K ;.~.Q.p o . o o o . : M.~.C.A ",
"K | g.f.x = % o o # * x -.h.@.K "
};
