/* XPM */
static char *ezgif_2_a8b61229c7[] = {
/* columns rows colors chars-per-pixel */
"16 16 151 2 ",
"   c #30271F",
".  c #30281F",
"X  c #2B262C",
"o  c #2F2C29",
"O  c #302820",
"+  c #363425",
"@  c #363628",
"#  c #393B28",
"$  c #393B2A",
"%  c #282330",
"&  c #303331",
"*  c #455030",
"=  c #485732",
"-  c #45573C",
";  c #48573B",
":  c #46583C",
">  c #46583D",
",  c #46593D",
"<  c #47593D",
"1  c #485B3B",
"2  c #4A5B3A",
"3  c #495C39",
"4  c #4B5F38",
"5  c #4A5F39",
"6  c #4B5F39",
"7  c #495D3B",
"8  c #4A5D3B",
"9  c #4A5F3A",
"0  c #485B3C",
"q  c #485B3D",
"w  c #485C3C",
"e  c #4F6437",
"r  c #4B6039",
"t  c #4C6039",
"y  c #4C6139",
"u  c #4D6238",
"i  c #4D6239",
"p  c #4E6338",
"a  c #4C603A",
"s  c #4E6438",
"d  c #4F6438",
"f  c #1E2D59",
"g  c #292F4E",
"h  c #2B344C",
"j  c #2A344D",
"k  c #2D364E",
"l  c #2E394F",
"z  c #393E47",
"x  c #36394E",
"c  c #393E4D",
"v  c #212B57",
"b  c #252A55",
"n  c #252B56",
"m  c #252B57",
"M  c #263052",
"N  c #2A3150",
"B  c #2E3752",
"V  c #2F3753",
"C  c #2E3C50",
"Z  c #2A3C54",
"A  c #3B3851",
"S  c #33385D",
"D  c #363964",
"F  c #343967",
"G  c #32366D",
"H  c #36376C",
"J  c #383A68",
"K  c #433D45",
"L  c #334140",
"P  c #374547",
"I  c #3A4746",
"U  c #3D4942",
"Y  c #3B4A44",
"T  c #354149",
"R  c #354549",
"E  c #3A4648",
"W  c #3E5348",
"Q  c #3F4756",
"!  c #364C52",
"~  c #384D51",
"^  c #355753",
"/  c #3A655C",
"(  c #3C5162",
")  c #3C5269",
"_  c #3B7979",
"`  c #414144",
"'  c #414644",
"]  c #494B45",
"[  c #414449",
"{  c #40414C",
"}  c #504D42",
"|  c #544844",
" . c #415140",
".. c #435742",
"X. c #445742",
"o. c #4D504A",
"O. c #525943",
"+. c #5C5E43",
"@. c #5A5D44",
"#. c #5B5F44",
"$. c #55534C",
"%. c #505D4D",
"&. c #434250",
"*. c #4A4B5E",
"=. c #455053",
"-. c #4C5353",
";. c #41515F",
":. c #495858",
">. c #4D5B5A",
",. c #525F58",
"<. c #525B5C",
"1. c #655747",
"2. c #6E5642",
"3. c #586052",
"4. c #6D6947",
"5. c #64664C",
"6. c #60685D",
"7. c #756E5C",
"8. c #637151",
"9. c #4A5F63",
"0. c #434A79",
"q. c #655A72",
"w. c #625974",
"e. c #496C6B",
"r. c #5F7960",
"t. c #437C7D",
"y. c #716B66",
"u. c #686471",
"i. c #98693D",
"p. c #AE7A39",
"a. c #B57D34",
"s. c #9A7941",
"d. c #837856",
"f. c #67935F",
"g. c #779B5B",
"h. c #B98430",
"j. c #A68F49",
"k. c #635C82",
"l. c #477E81",
"z. c #907EE1",
"x. c #568C81",
"c. c #5E8D8A",
"v. c #82A69E",
"b. c #B5A180",
"n. c #86A5A6",
"m. c #8D91C3",
"M. c #9C8DDD",
"N. c #BBBCCE",
"B. c #AEA3D9",
"V. c #B3ADD4",
"C. c #C1CFC5",
/* pixels */
"p p p p p p 4 3.6.3 p p p p p p ",
"p p p p p e U ,.r.z p p p p p p ",
"p p p p p Y h ( e.g P q p p p p ",
"p p p s > ' 1.s.j.2.]  .s p p p ",
"p p p p E i.h.d.b.p.a.E r p p p ",
"p p p p B y.[ _ C.*.7.S 3 p p p ",
"p p p p ` c f x.N.G C K w p p p ",
"p p p p } A Z v.M.F B | 4 p p p ",
"p p p 4 o.&.l n.z.D x $.> s p p ",
"p p p p I k M c.B.J h T 4 p p p ",
"p p p p N m v t.V.H m m > s p p ",
"p p p 4 =.u.w.l.m.k.q.<.- s p p ",
"p p r 3 :.;.-.) 0.>.Q 9.; 4 p p ",
"p p O.#.4.R # X % @ L 5.+.#.4 p ",
"p 4 %.g./ &   . .   o ^ f.8.> s ",
"p p ..! ..= # O O + * q ~ W p p "
};
