/* XPM */
static char *ezgif_2_909a6fe0db[] = {
/* columns rows colors chars-per-pixel */
"16 16 14 1 ",
"  c #354625",
". c #364726",
"X c #374827",
"o c #374927",
"O c #384928",
"+ c #384A28",
"@ c #394A28",
"# c #394B28",
"$ c #394B29",
"% c #3A4B29",
"& c #3A4C29",
"* c #3A4C2A",
"= c #3B4C2A",
"- c #3B4D2A",
/* pixels */
"----------------",
"--@X@-----------",
"--@XX---@-------",
"----------------",
"----------------",
"------------@.X-",
"-------O@-----@-",
"-------.@-------",
"----------------",
"----------@--@--",
"----------------",
"----------------",
"--@..@-@--------",
"--@@@@------XX--",
"------------@@--",
"----------------"
};
