/* XPM */
static char *ezgif_2_cab0d7a4e8[] = {
/* columns rows colors chars-per-pixel */
"16 16 145 2 ",
"   c #060503",
".  c #0A0803",
"X  c #140F0C",
"o  c #0E130C",
"O  c #10150A",
"+  c #10150B",
"@  c #10160B",
"#  c #11160B",
"$  c #10120E",
"%  c #12180D",
"&  c #131510",
"*  c #131512",
"=  c #141612",
"-  c #141314",
";  c #151614",
":  c #151714",
">  c #161D10",
",  c #1C1C1C",
"<  c #1E1E1C",
"1  c #1E1E1E",
"2  c #1E1F1F",
"3  c #271000",
"4  c #241704",
"5  c #291E06",
"6  c #271C0E",
"7  c #391800",
"8  c #241F1C",
"9  c #19210F",
"0  c #1B2412",
"q  c #1C2612",
"w  c #1C2613",
"e  c #1E2712",
"r  c #1E2713",
"t  c #1B2016",
"y  c #1E2813",
"u  c #1F2B14",
"i  c #392000",
"p  c #332900",
"a  c #382909",
"s  c #3D3603",
"d  c #272E13",
"f  c #222D17",
"g  c #222E17",
"h  c #232F17",
"j  c #262F15",
"k  c #2F251D",
"l  c #3E2D1B",
"z  c #233016",
"x  c #243019",
"c  c #263419",
"v  c #2A381B",
"b  c #2D3A1A",
"n  c #232520",
"m  c #232421",
"M  c #272422",
"N  c #252722",
"B  c #252524",
"V  c #252425",
"C  c #2A292A",
"Z  c #2A2A2A",
"A  c #2C2B2B",
"S  c #2F2C28",
"D  c #2C2B2C",
"F  c #363535",
"G  c #373737",
"H  c #432202",
"J  c #413800",
"K  c #453806",
"L  c #40300B",
"P  c #583B1C",
"I  c #433B2E",
"U  c #593B25",
"Y  c #2F401E",
"T  c #2F411F",
"R  c #30411F",
"E  c #304220",
"W  c #324420",
"Q  c #324421",
"!  c #334522",
"~  c #344722",
"^  c #354822",
"/  c #354823",
"(  c #354923",
")  c #364923",
"_  c #364924",
"`  c #364A24",
"'  c #374A24",
"]  c #374B24",
"[  c #374B25",
"{  c #384B24",
"}  c #384B25",
"|  c #384C25",
" . c #384D25",
".. c #394D25",
"X. c #394D26",
"o. c #394E26",
"O. c #564203",
"+. c #5D4000",
"@. c #634000",
"#. c #694200",
"$. c #6D4801",
"%. c #69401E",
"&. c #4A443F",
"*. c #604E3F",
"=. c #474646",
"-. c #494946",
";. c #4A4848",
":. c #4B4B4B",
">. c #4C4C49",
",. c #4C4C4B",
"<. c #555352",
"1. c #5A5856",
"2. c #5C5A58",
"3. c #5C5B58",
"4. c #5E5E5C",
"5. c #6D5A44",
"6. c #605E5A",
"7. c #605F5C",
"8. c #62615E",
"9. c #606160",
"0. c #656461",
"q. c #73716D",
"w. c #717170",
"e. c #7C7A75",
"r. c #7E7B77",
"t. c #7F7D78",
"y. c #937100",
"u. c #A17C00",
"i. c #B17A3C",
"p. c #85745F",
"a. c #887C6F",
"s. c #817F79",
"d. c #A38000",
"f. c #B09200",
"g. c #B49900",
"h. c #C4A900",
"j. c #968268",
"k. c #84827C",
"l. c #86847E",
"z. c #D28943",
"x. c #8B8882",
"c. c #97948E",
"v. c #9A9792",
"b. c #9E9B97",
"n. c #AEABA5",
/* pixels */
"| | | | ] d p J s b | | | | | | ",
"| | ^ ~ j O.f.h.g.K v | } } | | ",
"| | ^ u 4 @.y.d.u.+.q | ] ] | | ",
"| | ] O 3 7 H #.$.i 9 ] | | | | ",
"| | ] q . X 8 l I A ; x ] ] | | ",
"| | ] h $ , G ;.0.l.1.n q T ~ | ",
"| | ] O V >.7.8.<.r.r.2.* T ] | ",
"| | ] O C 2.q.s.x.c.n.t.= E | | ",
"| | ] 0 * , V 6.l.v.b.-.> W | | ",
"| | | ] % - , C ,.w.=.N T ] | | ",
"| | | | h ; D G ;.a.5.n R } | | ",
"| | | } ] f A 4.9.5.U o W | | | ",
"| | ^ W ~ c , p.j.&.M z | | | | ",
"| | ] ^ ^ c   i.z.k , c ^ ~ ] | ",
"| | | | | E O P %.6 t T ^ ^ } | ",
"| | | | | | y 5 L a q | | | | | "
};
