/* XPM */
static char *ezgif_2_f05ae904af[] = {
/* columns rows colors chars-per-pixel */
"16 16 157 2 ",
"   c #070500",
".  c #0C0F0A",
"X  c #0B1108",
"o  c #161003",
"O  c #13120B",
"+  c #141E0F",
"@  c #1E1B08",
"#  c #1C180F",
"$  c #121411",
"%  c #141712",
"&  c #151613",
"*  c #161C10",
"=  c #161814",
"-  c #191E13",
";  c #1E1815",
":  c #1A1A19",
">  c #1A1A1A",
",  c #1B1B1A",
"<  c #1E1E1F",
"1  c #261401",
"2  c #291E06",
"3  c #381D00",
"4  c #361F0E",
"5  c #1B2311",
"6  c #192112",
"7  c #1A2312",
"8  c #1B2413",
"9  c #1B2613",
"0  c #1E2712",
"q  c #1B2015",
"w  c #1C2914",
"e  c #1E201B",
"r  c #3D2900",
"t  c #312C0A",
"y  c #3D3602",
"u  c #383507",
"i  c #232C15",
"p  c #222E17",
"a  c #2D2C15",
"s  c #22231E",
"d  c #2F2218",
"f  c #392515",
"g  c #223017",
"h  c #243118",
"j  c #253419",
"k  c #263419",
"l  c #273519",
"z  c #25341A",
"x  c #2C3218",
"c  c #2A381B",
"v  c #2D3A1A",
"b  c #2B391C",
"n  c #35371F",
"m  c #292825",
"M  c #2F2C26",
"N  c #2A2A2A",
"B  c #2B2B2A",
"V  c #2E2F2F",
"C  c #3D3424",
"Z  c #3F3727",
"A  c #3E3C27",
"S  c #3B3229",
"D  c #313030",
"F  c #333232",
"G  c #3B3B39",
"H  c #3B3A3A",
"J  c #462200",
"K  c #462304",
"L  c #443806",
"P  c #4A360C",
"I  c #4F3A0D",
"U  c #583A00",
"Y  c #633B1B",
"T  c #2F401E",
"R  c #2F401F",
"E  c #2F411F",
"W  c #30421F",
"Q  c #32421F",
"!  c #2F4020",
"~  c #304220",
"^  c #314321",
"/  c #324521",
"(  c #334622",
")  c #344622",
"_  c #344722",
"`  c #354823",
"'  c #354923",
"]  c #364923",
"[  c #354A24",
"{  c #364A24",
"}  c #374A24",
"|  c #374B24",
" . c #374B25",
".. c #384B24",
"X. c #384B25",
"o. c #384C25",
"O. c #384D25",
"+. c #394D25",
"@. c #394D26",
"#. c #394E26",
"$. c #3A4E26",
"%. c #694100",
"&. c #714800",
"*. c #5F4522",
"=. c #6D4A23",
"-. c #7A5630",
";. c #414040",
":. c #424241",
">. c #464443",
",. c #444444",
"<. c #474645",
"1. c #474646",
"2. c #484746",
"3. c #4D4946",
"4. c #4A4948",
"5. c #4A4A49",
"6. c #4C4B4A",
"7. c #4D4C4B",
"8. c #4E4D4C",
"9. c #4F4E4D",
"0. c #504E4D",
"q. c #535250",
"w. c #545351",
"e. c #565452",
"r. c #565553",
"t. c #595856",
"y. c #5C5B58",
"u. c #5F5E5C",
"i. c #66574A",
"p. c #635A4D",
"a. c #6D5B4B",
"s. c #63625F",
"d. c #6B665C",
"f. c #666562",
"g. c #696864",
"h. c #6B6964",
"j. c #6A6865",
"k. c #6C6A66",
"l. c #6C6B67",
"z. c #716F6B",
"x. c #71706C",
"c. c #73716D",
"v. c #797772",
"b. c #7A7874",
"n. c #8D6600",
"m. c #926C00",
"M. c #A17037",
"N. c #817E79",
"B. c #9D8300",
"V. c #B49900",
"C. c #83807B",
"Z. c #85837E",
"A. c #88857F",
"S. c #C88A45",
"D. c #CD8D4B",
"F. c #95918B",
"G. c #98958D",
/* pixels */
"o.o.o.o.o.o.R u y v o.o.o.o.o.o.",
"o.o.' _ ' ! t B.V.L b o.o.X.o.o.",
"o.o.' ( ' z r n.m.U 0 o.{ { o.o.",
"o.o.o.o.o.h 1 %.&.3 6 ' o.o.o.o.",
"o.o.o.{ z % d K J f % 6 _ { o.o.",
"o.o.X.p $ N >.i.a.3.D : 6 R _ o.",
"o.o.{ q e.y.1.b.Z.8.q.s.s R { o.",
"o.o.' - 0.x.v.F.G.N.x.f.e W o.o.",
"o.o.{ 8 : 2.k.C.A.z.e.N * ( o.o.",
"o.o.o.~ . D ;.4.6.;.H : z X.o.o.",
"o.o.o.R = w.1.7.7.2.t.H z o.o.o.",
"o.o._ n p.j.j.z.z.k.j.d.A ~ o.o.",
"o.o.p M.D.S u.z.z.j.V -.S.a { o.",
"o.o.b *.Y ; 1.8.8.4.< 4 =.x { o.",
"o.o.o.g + O C M m C # X w ( o.o.",
"o.o.o.o.~ @ I o   P 2 8 o.o.o.o."
};
