/* XPM */
static char *ezgif_4_c65d41d535[] = {
/* columns rows colors chars-per-pixel */
"16 16 147 2 ",
"   c #090C07",
".  c #0C0E0B",
"X  c #130E02",
"o  c #0E110C",
"O  c #11160A",
"+  c #16140A",
"@  c #10130D",
"#  c #11130F",
"$  c #1C1908",
"%  c #191E14",
"&  c #1A1D16",
"*  c #1A1B19",
"=  c #231A05",
"-  c #231E0F",
";  c #391E00",
":  c #211E17",
">  c #251D17",
",  c #1C2511",
"<  c #1D2612",
"1  c #1F2813",
"2  c #1D2814",
"3  c #2C240B",
"4  c #3A2000",
"5  c #32320F",
"6  c #212617",
"7  c #202E16",
"8  c #212E17",
"9  c #232F17",
"0  c #2C2E16",
"q  c #2B2419",
"w  c #29221D",
"e  c #2B231E",
"r  c #252F1B",
"t  c #262F1C",
"y  c #2F3010",
"u  c #2E3017",
"i  c #263118",
"p  c #27351A",
"a  c #28361A",
"s  c #29361A",
"d  c #2A371A",
"f  c #2D3B1C",
"g  c #2C3B1D",
"h  c #3E321A",
"j  c #3F321B",
"k  c #232323",
"l  c #292929",
"z  c #352C26",
"x  c #2E3921",
"c  c #323232",
"v  c #323334",
"b  c #363738",
"n  c #3C3C3B",
"m  c #4A360C",
"M  c #563900",
"N  c #573A00",
"B  c #673F00",
"V  c #4B3821",
"C  c #563E21",
"Z  c #443C33",
"A  c #30411F",
"S  c #30421F",
"D  c #304220",
"F  c #314220",
"G  c #314321",
"H  c #324220",
"J  c #324421",
"K  c #334521",
"L  c #334622",
"P  c #344622",
"I  c #344722",
"U  c #354823",
"Y  c #354923",
"T  c #364923",
"R  c #354924",
"E  c #364A24",
"W  c #374A24",
"Q  c #374B24",
"!  c #364B25",
"~  c #374B25",
"^  c #374C24",
"/  c #384B25",
"(  c #384C25",
")  c #384D25",
"_  c #394D25",
"`  c #394D26",
"'  c #394E26",
"]  c #704700",
"[  c #635505",
"{  c #766603",
"}  c #4A423A",
"|  c #604622",
" . c #654B26",
".. c #404040",
"X. c #444341",
"o. c #444444",
"O. c #464645",
"+. c #484746",
"@. c #484747",
"#. c #484847",
"$. c #4A4948",
"%. c #4A4A49",
"&. c #4C4C4B",
"*. c #514F4B",
"=. c #504F4D",
"-. c #504F4E",
";. c #56544E",
":. c #555350",
">. c #595754",
",. c #595855",
"<. c #5B5854",
"1. c #5A5855",
"2. c #6F5B43",
"3. c #62544D",
"4. c #63564E",
"5. c #6A5E4F",
"6. c #725E52",
"7. c #735F52",
"8. c #636261",
"9. c #6A6865",
"0. c #6E6C68",
"q. c #74726E",
"w. c #76746F",
"e. c #757370",
"r. c #777470",
"t. c #787672",
"y. c #797672",
"u. c #7B7974",
"i. c #7D7A75",
"p. c #7F7D7A",
"a. c #926B00",
"s. c #9B7600",
"d. c #8F5729",
"f. c #905729",
"g. c #855232",
"h. c #885936",
"j. c #8B5B37",
"k. c #905833",
"l. c #9F6E35",
"z. c #A4733A",
"x. c #816646",
"c. c #83694B",
"v. c #BA8550",
"b. c #BB8650",
"n. c #82807D",
"m. c #8F8D88",
"M. c #97948F",
/* pixels */
"( ( ( ( ( ( ! , O ! ( ( ( ( ( ( ",
"( ( Y I Y L y [ { 5 G ( / / ( ( ",
"( ( Y L Y s N a.s.N 1 ( ! ! ( ( ",
"( ( ( ( ( s 4 B ] ; , ( ( ( ( ( ",
"( ( ( ! s % w V C w % s ! ! ( ( ",
"( ( ( g . k o.9.r.+.l . 8 S I / ",
"( ( ( r X.=.o.0.i.+.%.X.@ S ! ( ",
"( ( ( t ,.u.t.m.M.t.q.,.@ G ( ( ",
"( ( ( p * :.q.p.n.q.>.* 2 Y ( ( ",
"( ( ( G   c v n #.b ..  G ! / ( ",
"( ( ( G o =.x.2.5.c.8.o G ! ( ( ",
"( ( ! x ;.,.j.k.g.j.*.;.6 L ( ( ",
"( ( 8  .b.Z 3.6.6.3.} v.z.u ! ( ",
"( ( 8 | f.> #.&.&.%.z d.l.0 ! ( ",
"( ( ( G i + h q : h - i g I ! ( ",
"( ( ( ( G $ m = X m 3 G ( ( ( ( "
};
