/* XPM */
static char *ezgif_4_54d742b5dd[] = {
/* columns rows colors chars-per-pixel */
"16 16 146 2 ",
"   c #050302",
".  c #090602",
"X  c #0A0C06",
"o  c #0E0F0D",
"O  c #0C1109",
"+  c #11170B",
"@  c #16170A",
"#  c #12140F",
"$  c #13180D",
"%  c #121211",
"&  c #111410",
"*  c #151713",
"=  c #191512",
"-  c #161913",
";  c #161C11",
":  c #1E1910",
">  c #191B17",
",  c #181718",
"<  c #181818",
"1  c #191919",
"2  c #1A1C18",
"3  c #1F1F1F",
"4  c #261601",
"5  c #291E06",
"6  c #311400",
"7  c #311C02",
"8  c #391901",
"9  c #201F1F",
"0  c #1A2311",
"q  c #1B2313",
"w  c #1B2512",
"e  c #1B2413",
"r  c #1D2713",
"t  c #1D2317",
"y  c #1D2416",
"u  c #1E2716",
"i  c #1F2717",
"p  c #26270D",
"a  c #2A2008",
"s  c #2A2B0E",
"d  c #392E00",
"f  c #3F2C01",
"g  c #383507",
"h  c #232C15",
"j  c #25201D",
"k  c #23271C",
"l  c #2E271F",
"z  c #3E2D1B",
"x  c #223017",
"c  c #273015",
"v  c #253218",
"b  c #263518",
"n  c #26351A",
"m  c #27351A",
"M  c #27361A",
"N  c #29371C",
"B  c #29381B",
"V  c #2E3F1E",
"C  c #262422",
"Z  c #262423",
"A  c #232324",
"S  c #252524",
"D  c #282726",
"F  c #2A2A2A",
"G  c #2F2F2F",
"H  c #343334",
"J  c #343434",
"K  c #373636",
"L  c #373737",
"P  c #3D3C3B",
"I  c #3D3C3C",
"U  c #3E3D3D",
"Y  c #472602",
"T  c #413800",
"R  c #44330B",
"E  c #5C3A1A",
"W  c #583C1D",
"Q  c #41392E",
"!  c #2F401F",
"~  c #304120",
"^  c #314220",
"/  c #314320",
"(  c #324321",
")  c #324420",
"_  c #334522",
"`  c #334622",
"'  c #344622",
"]  c #344722",
"[  c #344723",
"{  c #354823",
"}  c #354923",
"|  c #364923",
" . c #364A23",
".. c #364924",
"X. c #364A24",
"o. c #374A24",
"O. c #374B24",
"+. c #374B25",
"@. c #384B25",
"#. c #384C25",
"$. c #384D25",
"%. c #394D25",
"&. c #394D26",
"*. c #394E26",
"=. c #5C4501",
"-. c #674201",
";. c #694200",
":. c #6F4C00",
">. c #564B3E",
",. c #454544",
"<. c #464544",
"1. c #4A4948",
"2. c #4D4C4A",
"3. c #4D4D4C",
"4. c #4F4E4C",
"5. c #5C5042",
"6. c #585755",
"7. c #5D5B57",
"8. c #585858",
"9. c #5A5A59",
"0. c #5F5F5D",
"q. c #615F5C",
"w. c #71706C",
"e. c #75736F",
"r. c #787671",
"t. c #7D7A74",
"y. c #997400",
"u. c #997700",
"i. c #967F00",
"p. c #AF763A",
"a. c #B47D3E",
"s. c #84735E",
"d. c #867560",
"f. c #A48100",
"g. c #B69800",
"h. c #C6AB00",
"j. c #84817B",
"k. c #87847E",
"l. c #868480",
"z. c #898781",
"x. c #8B8882",
"c. c #92908C",
"v. c #989590",
"b. c #9E9B96",
"n. c #9F9C96",
"m. c #BCB9B2",
/* pixels */
"#.#.#.#.#.#.! g T d p ` #.#.#.#.",
"#.#.} ] } ` s i.h.g.=.c ..#.#.#.",
"#.#.} ` } n f y.f.y.:.7 h ..#.#.",
"#.#.#.#.#.x 4 -.;.Y 8 6 @ ..#.#.",
"#.#.#...n - C Q z j = . q ..#.#.",
"#.#.#.N * U e.w.1.K A o v ` ] #.",
"#.#...t q.l.j.6.2.q.,.F ; } ..#.",
"#.#.} k v.m.n.x.k.r.3.H ; ..#.#.",
"#.#...u P c.b.z.t.7.9 , $ ..#.#.",
"#.#.#.~ # ,.9.3.S 3 < % w } #.#.",
"#.#.#.~ & 5.d.9.K G < q ] ..#.#.",
"#.#.#.~ O l >.9.0.K u ] #.#.#.#.",
"#.#.} ~ n > U s.d.D r #.#.#.#.#.",
"#.#.....V 2 C p.a.  w #.] ] ..#.",
"#.#.#.#.} u : E W X B #.} } ..#.",
"#.#.#.#.#.n a R 5 + ..#.#.#.#.#."
};
