/* XPM */
static char *ezgif_2_ea8c9b4e34[] = {
/* columns rows colors chars-per-pixel */
"16 16 81 1 ",
"  c #1C221B",
". c #1C221C",
"X c #1E251C",
"o c #1F261C",
"O c #1E261D",
"+ c #1E271D",
"@ c #1F291E",
"# c #20231A",
"$ c #242D1E",
"% c #252E1F",
"& c #302B17",
"* c #312A18",
"= c #312C18",
"- c #29301E",
"; c #2F3F1F",
": c #3B341A",
"> c #3B351A",
", c #1F372A",
"< c #212D20",
"1 c #273421",
"2 c #263D2B",
"3 c #223C2C",
"4 c #303D23",
"5 c #483414",
"6 c #493916",
"7 c #23432F",
"8 c #26432E",
"9 c #314121",
"0 c #324220",
"q c #314122",
"w c #314222",
"e c #324222",
"r c #324223",
"t c #354321",
"y c #324420",
"u c #334422",
"i c #334522",
"p c #344523",
"a c #364422",
"s c #344722",
"d c #344623",
"f c #354623",
"g c #354823",
"h c #354923",
"j c #374823",
"k c #364923",
"l c #364924",
"z c #374A24",
"x c #374B24",
"c c #374B25",
"v c #374C25",
"b c #384924",
"n c #384B25",
"m c #384C25",
"M c #384D25",
"N c #3F4E26",
"B c #234330",
"V c #234431",
"C c #2F5D37",
"Z c #376237",
"A c #30623A",
"S c #31663B",
"D c #32663B",
"F c #346C3D",
"G c #386F3E",
"H c #396F3E",
"J c #3B723F",
"K c #624C1B",
"L c #6A5928",
"P c #557D3C",
"I c #4C7E42",
"U c #799E3D",
"Y c #518544",
"T c #558845",
"R c #5B8E45",
"E c #598C46",
"W c #5C8F46",
"Q c #679442",
"! c #71A347",
"~ c #7AAC47",
"^ c #8BB947",
/* pixels */
"mmmmmmw--wmmmmmm",
"mmhshw4UU4wnncmm",
"mmhsw$P^^P$sccmm",
"mmmmw1Q~~Q1wmmmm",
"mmnw<ZR!!RZ<wcmm",
"mmsO8IRWWRI8O;sn",
"mmsOCJYTTYJCOicm",
"mmiOCFHHHHFCOsmm",
"mms 7ADDDDA7.smm",
"mmfO,BVVVVB,Oimm",
"mmmw@,3223,@wcmm",
"mmmcw#*66*#wmmmm",
"mmhiw&5KK5=hmmmm",
"mmchht:LL:scssnm",
"mmmmmmnNNnmchhcm",
"mmmmmmmvvmmmmmmm"
};
