/* XPM */
static char *ezgif_2_74b345477c[] = {
/* columns rows colors chars-per-pixel */
"16 16 61 1 ",
"  c #1E251E",
". c #22251C",
"X c #20291F",
"o c #21291F",
"O c #312A18",
"+ c #35311C",
"@ c #1F372A",
"# c #232B20",
"$ c #232D22",
"% c #263223",
"& c #2B3220",
"* c #293222",
"= c #293623",
"- c #263D2B",
"; c #223C2C",
": c #483414",
"> c #493916",
", c #40391E",
"< c #23422F",
"1 c #26432E",
"2 c #344227",
"3 c #234330",
"4 c #234431",
"5 c #2F5D37",
"6 c #30623A",
"7 c #376238",
"8 c #31663B",
"9 c #32663B",
"0 c #346C3D",
"q c #386F3E",
"w c #396F3E",
"e c #3B723F",
"r c #624B1B",
"t c #425331",
"y c #435431",
"u c #435432",
"i c #435532",
"p c #445532",
"a c #485731",
"s c #475934",
"d c #475A34",
"f c #485B34",
"g c #4A5D35",
"h c #4C5D35",
"j c #6C5C2B",
"k c #4E6238",
"l c #4E6338",
"z c #4E6438",
"x c #526237",
"c c #557D3C",
"v c #4C7E42",
"b c #799E3D",
"n c #518544",
"m c #558845",
"M c #5B8E45",
"N c #598C46",
"B c #5C8F46",
"V c #679442",
"C c #71A347",
"Z c #7AAC47",
"A c #8AB947",
/* pixels */
"lllllly&&yllllll",
"lllllp2bb2plllll",
"lllzf&cAAc&fzlll",
"llllt=VZZV=tllll",
"llly%7MCCM7%ylll",
"llf#1vMBBMv1#fll",
"lzso5enmmne5oszl",
"lzso50wwww05oszl",
"lzs <699996< szl",
"llf#@444443@#fzl",
"llly$;;--;@$ylll",
"lllly.O>>O.yllll",
"lllzg+:rr:+gzlll",
"llllla+jj+allzll",
"llllllhxxhllllll",
"llllllllllllllll"
};
