/* XPM */
static char *ezgif_6_fa4b24ce6f[] = {
/* columns rows colors chars-per-pixel */
"24 24 62 1 ",
"  c #30421F",
". c #30431F",
"X c #314320",
"o c #324420",
"O c #324521",
"+ c #334521",
"@ c #334621",
"# c #334622",
"$ c #344622",
"% c #344722",
"& c #354823",
"* c #354923",
"= c #364923",
"- c #364A24",
"; c #374A24",
": c #374B24",
"> c #364B25",
", c #374B25",
"< c #374C25",
"1 c #3D4C22",
"2 c #3E4D22",
"3 c #3F4F23",
"4 c #384B25",
"5 c #384C25",
"6 c #394C25",
"7 c #665E1C",
"8 c #675F1D",
"9 c #67601D",
"0 c #68601C",
"q c #68601D",
"w c #68601F",
"e c #68611F",
"r c #69611F",
"t c #736319",
"y c #73631A",
"u c #73641A",
"i c #404F24",
"p c #505621",
"a c #515722",
"s c #515723",
"d c #686120",
"f c #686121",
"g c #696221",
"h c #A2852E",
"j c #A38733",
"k c #A58C3C",
"l c #C29B33",
"z c #C49E3B",
"x c #C5A03D",
"c c #AA9450",
"v c #C8A54A",
"b c #C8A74D",
"n c #CAA74D",
"m c #C9A851",
"M c #CAA953",
"N c #CDAD5A",
"B c #CCAD5C",
"V c #CEB164",
"C c #D2B772",
"Z c #D6BF83",
"A c #D7C086",
"S c #DCC998",
/* pixels */
"555555555555555555555555",
"555555555555555555555555",
"555=oo%=55555555555:4555",
"555=ooo%5555:555554=:555",
"55555555555:%:5555555555",
"55555555555i355555555555",
"55555555555ut55555555555",
"555555555<sjcs<555:o%:45",
"555555555:0bSf:555=o..=5",
"555555555:7vAf:55555:=45",
"555555555:7MZf:555555555",
"5555=:555:7bCf:555555555",
"5555=:555:7zVf:555555555",
"555555555:9zB0::55555555",
"555555555:9lM0:=5554=:55",
"555555555:0xN0:55555=555",
"555555555<shks<555555555",
"55555:55555tt55555555555",
"555:%Xo:5553355555555555",
"555=Xo.X:55::555555:5555",
"555::5::555555555:oXo:55",
"55555555555555555:oo%:55",
"555555555555555555555555",
"555555555555555555555555"
};
