/* XPM */
static char *ezgif_4_5ccf0f0993[] = {
/* columns rows colors chars-per-pixel */
"24 24 129 2 ",
"   c #30421F",
".  c #30431F",
"X  c #314320",
"o  c #324420",
"O  c #324521",
"+  c #334521",
"@  c #334621",
"#  c #334622",
"$  c #344622",
"%  c #344722",
"&  c #344723",
"*  c #344823",
"=  c #354823",
"-  c #354923",
";  c #364923",
":  c #364A24",
">  c #374A24",
",  c #364B24",
"<  c #374B24",
"1  c #364B25",
"2  c #374B25",
"3  c #374C25",
"4  c #3F4C20",
"5  c #3F4E21",
"6  c #3C4D23",
"7  c #384B25",
"8  c #384C24",
"9  c #394C24",
"0  c #384C25",
"q  c #3A4D24",
"w  c #3C4D24",
"e  c #4D541D",
"r  c #4D541E",
"t  c #4D541F",
"y  c #56581D",
"u  c #56591E",
"i  c #6E661F",
"p  c #776A1C",
"a  c #404D20",
"s  c #414F21",
"d  c #424F20",
"f  c #424F21",
"g  c #404F22",
"h  c #414F22",
"j  c #404F23",
"k  c #425022",
"l  c #465223",
"z  c #646121",
"x  c #646222",
"c  c #6F6926",
"v  c #786C20",
"b  c #786D23",
"n  c #7A702A",
"m  c #81701C",
"M  c #8D751A",
"N  c #8E761A",
"B  c #88751F",
"V  c #9C7C19",
"C  c #9D7D19",
"Z  c #9D7E19",
"A  c #837323",
"S  c #917C2A",
"D  c #9E801E",
"F  c #AC861A",
"G  c #AA871E",
"H  c #AF891C",
"J  c #B08A1D",
"K  c #B18B1D",
"L  c #B38D1F",
"P  c #B48D1F",
"I  c #9E8123",
"U  c #AF8C27",
"Y  c #AF8C29",
"T  c #AD8D2B",
"R  c #B08B22",
"E  c #B58F20",
"W  c #B69126",
"Q  c #BA9322",
"!  c #BF9725",
"~  c #B4902A",
"^  c #BD982F",
"/  c #BF9A2F",
"(  c #A28731",
")  c #A38936",
"_  c #AF9137",
"`  c #AF9239",
"'  c #B89531",
"]  c #B89533",
"[  c #BE9A31",
"{  c #B7993C",
"}  c #BF9C39",
"|  c #C19926",
" . c #C19927",
".. c #C29926",
"X. c #C29927",
"o. c #C29A27",
"O. c #C39A27",
"+. c #C49B28",
"@. c #C79E2A",
"#. c #C79F2C",
"$. c #C49D2E",
"%. c #C19D35",
"&. c #C9A02B",
"*. c #CAA02B",
"=. c #CAA12C",
"-. c #CDA22C",
";. c #CDA32D",
":. c #CEA42E",
">. c #CFA42E",
",. c #CFA52E",
"<. c #CFA52F",
"1. c #C6A138",
"2. c #C6A23C",
"3. c #C9A43D",
"4. c #CEA83E",
"5. c #D0A633",
"6. c #D0A735",
"7. c #D0A93B",
"8. c #D1AA3D",
"9. c #C6A341",
"0. c #CCA741",
"q. c #CDA841",
"w. c #CFAA41",
"e. c #D0AE4E",
"r. c #D5B14B",
"t. c #D4B14C",
"y. c #CAAA53",
"u. c #D9BA63",
"i. c #DCBF6E",
/* pixels */
"0 0 0 0 0 0 0 0 0 0 0 0 0 0 0 0 0 0 0 0 0 0 0 0 ",
"0 0 0 0 0 0 0 0 0 0 0 0 0 0 0 0 0 0 0 0 0 0 0 0 ",
"0 0 0 ; o o % ; 0 0 0 0 0 0 0 0 0 0 0 1 7 0 0 0 ",
"0 0 0 ; o o o % 0 0 0 0 1 0 0 0 0 0 7 ; 1 0 0 0 ",
"0 0 0 0 0 0 0 0 0 0 3 1 % 1 0 0 0 0 0 0 0 0 0 0 ",
"0 0 0 0 0 0 0 0 3 3 f k f 6 1 0 0 0 0 0 0 0 0 0 ",
"0 0 0 0 0 0 0 1 f y N C D v r 0 3 0 0 0 0 0 0 0 ",
"0 0 0 0 0 0 1 l B L ! ..$.^ T c f 3 1 o % 1 7 0 ",
"0 0 0 0 0 3 f B -...J H R W 4.3.A f ; o . . ; 0 ",
"0 0 0 0 0 3 y L ..E =.>.6.1.' w.' y 1 0 1 ; 7 0 ",
"0 0 0 0 3 f N ! J =.>.>.>.5.2.~ e.S 6 3 0 0 0 0 ",
"0 0 0 0 ; f C ..H >.>.>.>.>.0.U u.( f 3 0 0 0 0 ",
"0 0 0 0 ; f C ..H >.>.>.>.>.w.T i.) f 3 0 0 0 0 ",
"0 0 0 0 0 w p Q P ..>.>.>.7.} } y.n 6 0 0 0 0 0 ",
"0 0 0 0 0 1 r G &.P ..@.$.%.^ t._ r 1 7 ; 1 0 0 ",
"0 0 0 0 0 0 0 i +.&.J F F [ r.{ x 0 0 0 ; 0 0 0 ",
"0 0 0 0 0 0 3 f m L @.-.8.9.` x 0 0 0 0 0 0 0 0 ",
"0 0 0 0 0 1 0 3 f y N C I v r 0 0 0 0 0 0 0 0 0 ",
"0 0 0 1 % X o ; 1 3 f 6 a 6 1 0 0 0 0 0 0 0 0 0 ",
"0 0 0 ; X o . X 1 0 3 1 1 0 0 0 0 0 0 7 0 0 0 0 ",
"0 0 0 1 1 0 1 1 0 0 0 0 0 0 0 0 0 1 o X o 1 0 0 ",
"0 0 0 0 0 0 0 0 0 0 0 0 0 0 0 0 0 1 o o % 1 0 0 ",
"0 0 0 0 0 0 0 0 0 0 0 0 0 0 0 0 0 0 0 0 0 0 0 0 ",
"0 0 0 0 0 0 0 0 0 0 0 0 0 0 0 0 0 0 0 0 0 0 0 0 "
};
