/* XPM */
static char *ezgif_5_362fb2bd8c[] = {
/* columns rows colors chars-per-pixel */
"24 24 87 1 ",
"  c #30421F",
". c #30431F",
"X c #314320",
"o c #324420",
"O c #324521",
"+ c #334521",
"@ c #334621",
"# c #334622",
"$ c #344622",
"% c #344722",
"& c #344723",
"* c #354823",
"= c #354923",
"- c #364923",
"; c #364A24",
": c #374A24",
"> c #364B24",
", c #374B24",
"< c #364B25",
"1 c #374B25",
"2 c #374C25",
"3 c #3F4C21",
"4 c #384B25",
"5 c #384C25",
"6 c #394C25",
"7 c #3B4D24",
"8 c #56561E",
"9 c #5B591E",
"0 c #5C5A1E",
"q c #7E6B1E",
"w c #404D21",
"e c #404F23",
"r c #424F22",
"t c #415023",
"y c #425023",
"u c #435023",
"i c #455122",
"p c #525823",
"a c #5B5B20",
"s c #585A22",
"d c #6F6520",
"f c #7E6E23",
"g c #91741C",
"h c #92751C",
"j c #92771F",
"k c #9A7C1F",
"l c #9B7C1F",
"z c #8A7420",
"x c #977A25",
"c c #987B25",
"v c #947E30",
"b c #A7821F",
"n c #AE8822",
"m c #B28A23",
"M c #B48D23",
"N c #B38C24",
"B c #B28C25",
"V c #B48D25",
"C c #B28C28",
"Z c #B99127",
"A c #B99227",
"S c #BC9429",
"D c #BD9429",
"F c #B49133",
"G c #BE9831",
"H c #B8963E",
"J c #C19A31",
"K c #B69740",
"L c #B29644",
"P c #B09546",
"I c #B69745",
"U c #B59747",
"Y c #BF9E47",
"T c #B7994B",
"R c #BE9E49",
"E c #BD9F4D",
"W c #C29E40",
"Q c #C7A446",
"! c #C3A248",
"~ c #CBA748",
"^ c #C0A253",
"/ c #C0A254",
"( c #C2A559",
") c #C1A55A",
"_ c #CAAB59",
"` c #C3A862",
"' c #C3A963",
/* pixels */
"555555555555555555555555",
"555555555555555555555555",
"555-oo%-55555555555,4555",
"555-ooo%5555,555554-,555",
"55555555555,%,5555555555",
"55555555555trr5555555555",
"555555555,pgxq5555555555",
"555555552tzmWPs,55,o%,,5",
"555555555dnAC_vi25-o..-5",
"55555552tlDDHRY0,555,-,5",
"55555552tlDN)U/0,5555555",
"5555-,52tlDN'T^0,5555555",
"5555-452tlDN'T^0,5555555",
"55555552tlDVEU)9,5555555",
"55555552rgAJF!K8,554-,55",
"555555555sbNGQf55555-555",
"555555552tzM~Ps255555555",
"55555,555,pgcq7555555555",
"555,%Xo,5553rr5555555555",
"555-Xo.X,55,,25555545555",
"555,,5,,555555555,oXo,55",
"55555555555555555,oo%,55",
"555555555555555555555555",
"555555555555555555555555"
};
