/* XPM */
static char *ezgif_5_e6a44f7547[] = {
/* columns rows colors chars-per-pixel */
"24 24 160 2 ",
"   c #30271F",
".  c #30281F",
"X  c #2D2525",
"o  c #29232D",
"O  c #302720",
"+  c #302820",
"@  c #353223",
"#  c #383826",
"$  c #3B3D28",
"%  c #282E3F",
"&  c #303339",
"*  c #343431",
"=  c #60383C",
"-  c #723B34",
";  c #3E442C",
":  c #3F4E3B",
">  c #434E2F",
",  c #594D3F",
"<  c #44563D",
"1  c #46593D",
"2  c #495D3A",
"3  c #485733",
"4  c #545C36",
"5  c #6D4E38",
"6  c #7B5E35",
"7  c #4F6437",
"8  c #4E6338",
"9  c #181E5A",
"0  c #1D2254",
"q  c #15205B",
"w  c #1A335C",
"e  c #242D4E",
"r  c #2C2748",
"t  c #2B344E",
"y  c #2E3A4D",
"u  c #2A3241",
"i  c #393F47",
"p  c #333C4C",
"a  c #393847",
"s  c #222555",
"d  c #242C51",
"f  c #2A2B56",
"g  c #222458",
"h  c #272859",
"j  c #322853",
"k  c #283150",
"l  c #2B3E52",
"z  c #24365A",
"x  c #333453",
"c  c #35305F",
"v  c #1B3363",
"b  c #27286E",
"n  c #2F326A",
"m  c #293868",
"M  c #263863",
"N  c #303267",
"B  c #3E3968",
"V  c #463848",
"C  c #543D41",
"Z  c #433A52",
"A  c #603841",
"S  c #354346",
"D  c #384645",
"F  c #3C4C43",
"G  c #334048",
"H  c #3C454B",
"J  c #394C4A",
"K  c #374C52",
"L  c #355057",
"P  c #264559",
"I  c #1A4465",
"U  c #3E4C6A",
"Y  c #334C6F",
"T  c #335067",
"R  c #3B5D73",
"E  c #3C6266",
"W  c #386967",
"Q  c #367C6A",
"!  c #3B7D7C",
"~  c #454945",
"^  c #544D48",
"/  c #435341",
"(  c #56534A",
")  c #464E54",
"_  c #485059",
"`  c #4E5253",
"'  c #505A5F",
"]  c #585E5B",
"[  c #704E40",
"{  c #715147",
"}  c #526A5B",
"|  c #476457",
" . c #68674E",
".. c #7A6F48",
"X. c #7D704A",
"o. c #415763",
"O. c #535A67",
"+. c #555674",
"@. c #406A6A",
"#. c #476C73",
"$. c #5C767D",
"%. c #6D6F6F",
"&. c #7B6C7C",
"*. c #72526C",
"=. c #965E2D",
"-. c #8E7F3C",
";. c #B36220",
":. c #A76232",
">. c #C27026",
",. c #847941",
"<. c #887B53",
"1. c #88776F",
"2. c #956F71",
"3. c #3D947C",
"4. c #3C877B",
"5. c #5D8C63",
"6. c #5A9867",
"7. c #4C8177",
"8. c #5C8179",
"9. c #42987C",
"0. c #958E3E",
"q. c #D3831B",
"w. c #D3A239",
"e. c #E9B32E",
"r. c #E6AC32",
"t. c #968741",
"y. c #818155",
"u. c #89B356",
"i. c #AAB046",
"p. c #8D9B62",
"a. c #99857E",
"s. c #8BA56E",
"d. c #9DA677",
"f. c #D2BE5B",
"g. c #E0B454",
"h. c #C6AC7F",
"j. c #C0CB44",
"k. c #58549F",
"l. c #5746AD",
"z. c #565CA0",
"x. c #6957AD",
"c. c #7D72A8",
"v. c #84768D",
"b. c #4E9B84",
"n. c #609981",
"m. c #56A680",
"M. c #6AAE8E",
"N. c #8787A1",
"B. c #83C495",
"V. c #8FCAA5",
"C. c #AAD9B6",
"Z. c #AAA8D2",
"A. c #9A82F5",
"S. c #AC98F2",
"D. c #CABAEB",
"F. c #B6D9C2",
"G. c #DAE4D6",
"H. c #E5F1D6",
"J. c #CCCAE0",
"K. c #D3C5EA",
/* pixels */
"8 8 8 8 8 8 8 8 8 8 2 _ O./ 7 8 8 8 8 8 8 8 8 8 ",
"8 8 8 8 8 8 8 8 8 8 ~ y.s., < 8 8 8 8 8 8 8 8 8 ",
"8 8 8 8 8 8 8 8 7 1 s } 6.j S 7 7 8 8 8 8 8 8 8 ",
"8 8 8 8 8 8 8 2 F p 0 R n.9 t D 1 7 8 8 8 8 8 8 ",
"8 8 8 8 8 8 8 S y y a  .5.C y y p 1 8 8 8 8 8 8 ",
"8 8 8 8 8 8 8 F ~ X.[ w.f.=.X.^ F 1 8 8 8 8 8 8 ",
"8 8 8 8 8 8 1 a ;.e.>.<.h.:.r.q.A D 8 8 8 8 8 8 ",
"8 8 8 8 8 8 t B g.6 x 4.G.v.C w.1.9 1 8 8 8 8 8 ",
"8 8 8 8 8 8 G N %.F w 3.H.N.p ] +.d 2 8 8 8 8 8 ",
"8 8 8 8 8 8 D i p d M m.G.c.0 y S p 2 8 8 8 8 8 ",
"8 8 8 8 8 8 i - z v m B.D.x.q I = V 1 8 8 8 8 8 ",
"8 8 8 8 8 8 / ^ g D U C.S.l.S k Z ^ 2 8 8 8 8 8 ",
"8 8 8 8 8 8 p t.f D U F.A.l.S d ..( < 8 8 8 8 8 ",
"8 8 8 8 8 8 p x s t m V.S.x.d k f x 1 8 8 8 8 8 ",
"8 8 8 8 8 8 F F t t z M.D.c.e t D F 2 8 8 8 8 8 ",
"8 8 8 8 8 8 k s e t w b.K.c.e t d 0 1 8 8 8 8 8 ",
"8 8 8 8 8 8 t c b n v 9.J.l.n b B g 1 8 8 8 8 8 ",
"8 8 8 8 8 8 p p.&.2.$.! Z.z.a.*.d.) < 8 8 8 8 8 ",
"8 8 8 8 8 8 l 7.h Z 8.Y k.#.' r @.T < 8 8 8 8 8 ",
"8 8 8 8 F 2 5 O.J 2 & u 0 & < < o.{ 4 F < 8 8 8 ",
"8 8 8 H ,.H -.| u # + X o + @ * P 0.~ ..( 1 8 8 ",
"8 8 8 p i.u.Q l X   + . . + O X % W 6.j.` < 8 8 ",
"8 8 8 F E W L < $ + + + + + + @ > J E @.K 2 8 8 ",
"8 8 8 8 F D 1 8 2 > @ + + + ; 3 8 8 F D 2 8 8 8 "
};
