/* XPM */
static char *ezgif_4_264a1320de[] = {
/* columns rows colors chars-per-pixel */
"24 24 135 2 ",
"   c #2E2A25",
".  c #302921",
"X  c #23332D",
"o  c #2D3C2F",
"O  c #323221",
"+  c #343B23",
"@  c #313F2D",
"#  c #272433",
"$  c #222F3E",
"%  c #253236",
"&  c #293536",
"*  c #2D3C34",
"=  c #26323E",
"-  c #29353B",
";  c #2C393A",
":  c #353F3B",
">  c #393E3F",
",  c #6C3A2E",
"<  c #643533",
"1  c #2F401F",
"2  c #30421F",
"3  c #344522",
"4  c #384722",
"5  c #364A25",
"6  c #384C25",
"7  c #33442C",
"8  c #364829",
"9  c #334232",
"0  c #38423A",
"q  c #6B4B24",
"w  c #191F4E",
"e  c #141757",
"r  c #161B52",
"t  c #191E52",
"y  c #331E52",
"u  c #1D2546",
"i  c #1F2844",
"p  c #1D244C",
"a  c #1E284E",
"s  c #1F324E",
"d  c #1B2052",
"f  c #192259",
"g  c #232D43",
"h  c #23274D",
"j  c #222D4A",
"k  c #302B41",
"l  c #263141",
"z  c #293141",
"x  c #263941",
"c  c #22374B",
"v  c #2D344D",
"b  c #2D3A4B",
"n  c #373B46",
"m  c #393D45",
"M  c #383649",
"N  c #262359",
"B  c #312F54",
"V  c #293757",
"C  c #263853",
"Z  c #2B3A54",
"A  c #2D375F",
"S  c #2B3E5F",
"D  c #313A51",
"F  c #3A355A",
"G  c #191B6A",
"H  c #282B6E",
"J  c #2F3073",
"K  c #4E2043",
"L  c #552642",
"P  c #4C3C4C",
"I  c #2E424A",
"U  c #324344",
"Y  c #30454F",
"T  c #2E4651",
"R  c #20415C",
"E  c #3D4751",
"W  c #384E59",
"Q  c #2F5259",
"!  c #33515B",
"~  c #39525E",
"^  c #194166",
"/  c #1A4F6A",
"(  c #354C66",
")  c #285F68",
"_  c #376168",
"`  c #3B696C",
"'  c #3E716F",
"]  c #414542",
"[  c #4E4343",
"{  c #46454A",
"}  c #5E564E",
"|  c #5E5E4B",
" . c #414C57",
".. c #455554",
"X. c #4A5D5B",
"o. c #655B4D",
"O. c #6D594A",
"+. c #587554",
"@. c #547A57",
"#. c #696246",
"$. c #716A43",
"%. c #786F43",
"&. c #4C4763",
"*. c #414867",
"=. c #425B63",
"-. c #474675",
";. c #476679",
":. c #4F7475",
">. c #417870",
",. c #517B78",
"<. c #6C6660",
"1. c #915C2A",
"2. c #8F473F",
"3. c #8C7F42",
"4. c #AD6148",
"5. c #805C65",
"6. c #3F876F",
"7. c #6D805D",
"8. c #708F50",
"9. c #7B9B7E",
"0. c #79BF68",
"q. c #A1913B",
"w. c #AF9E39",
"e. c #908342",
"r. c #968840",
"t. c #9A8C40",
"y. c #92B95B",
"u. c #8B847A",
"i. c #918E79",
"p. c #BA926F",
"a. c #8DA26B",
"s. c #95CE5F",
"d. c #A5D259",
"f. c #598283",
"g. c #588483",
/* pixels */
"6 6 6 6 6 6 6 * - p ; 6 6 7 p l ; 8 6 6 6 6 6 6 ",
"6 6 6 6 6 6 ; g g - 8 6 6 6 * g l = 8 6 6 6 6 6 ",
"6 6 6 5 3 3 % o - = 6 6 6 6 * g 9 - 8 5 6 6 6 6 ",
"6 6 6 5 3 3 % o = = 8 6 8 6 * g * - 8 5 8 6 6 6 ",
"6 6 6 6 6 8 n ; g - * 6 5 7 = = = n 9 6 6 6 6 6 ",
"6 6 6 6 6 - 3.{ 7 6 8 6 6 6 8 8 z r.m 8 6 6 6 6 ",
"6 6 6 6 6 * $.] 8 6 6 6 6 6 6 6 ; %.m 8 6 6 6 6 ",
"6 6 6 6 6 9 z 9 l - * l l = * g * ; - 3 3 8 6 6 ",
"6 6 6 6 6 - < M / j l ;.f.V = ^ R , k 3 2 2 5 6 ",
"6 6 6 6 6 7 [ N s 7 8 b Z 9 8 x f P 0 8 5 5 8 6 ",
"6 6 6 6 6 - e.{ * 6 3 1 3 8 6 7 j t.m 8 6 6 6 6 ",
"6 6 6 6 5 = } B j * 5 3 5 6 7 g d o.v 8 6 6 6 6 ",
"6 6 6 6 5 7 l t j ; 6 6 6 6 7 g t j * 6 6 6 6 6 ",
"6 6 6 6 6 ; ; 7 * g 8 6 6 6 * = 9 7 l 8 6 6 6 6 ",
"6 6 6 6 6 = e w p & 6 6 6 6 7 u w r p 8 5 6 6 6 ",
"6 6 6 6 6 = F -.G *.7 6 6 8 E H J &.h 8 5 6 6 6 ",
"6 6 6 6 6 = 7.u.2.p.=.7 8 I i.4.5.a.b 8 6 6 6 6 ",
"6 6 6 6 6 = ' A K <.f.& 8 ( 9.L y >.C 8 6 6 6 6 ",
"6 6 6 8 5 % :.S $ Y W @ 3 U ~ = a ,.D 8 8 8 6 6 ",
"6 6 9 > X q O.x 3 +   . . .   4 *  .1.@ : 0 8 6 ",
"6 8 n w.| +.@.i   . . . . . . . # Q 8...q.#.* 6 ",
"6 8 v y.s.6.c   . . . . . . . . . % ) 0.d.X.* 6 ",
"6 6 ; _ ` ! @ + . . . . . . . . O 3 I ` ` T 8 6 ",
"6 6 8 ; - @ 6 6 3 + . . . . O 3 8 6 8 & & 7 6 6 "
};
