/* XPM */
static char *ezgif_5_bac8984a6c[] = {
/* columns rows colors chars-per-pixel */
"24 24 22 1 ",
"  c #334424",
". c #344424",
"X c #344425",
"o c #344525",
"O c #354525",
"+ c #354625",
"@ c #364626",
"# c #364726",
"$ c #364827",
"% c #374827",
"& c #374927",
"* c #384927",
"= c #384928",
"- c #384A28",
"; c #394A28",
": c #394B28",
"> c #394B29",
", c #3A4B29",
"< c #3A4C29",
"1 c #3A4C2A",
"2 c #3B4C2A",
"3 c #3B4D2A",
/* pixels */
"333333333333333333333333",
"333333333333333333333333",
"333;OO&;33333333333;3333",
"333;OOO&33333333333;3333",
"333333333333*33333333333",
"333333333333333333333333",
"333333333333333333333333",
"333333333333333333;&&;33",
"333333333333333333;OOO;3",
"33333333333;33333333;;33",
"3333333333O O33333333333",
"3333;33333;*;33333333333",
"3333;3333333333333333333",
"333333333333333;33333333",
"333333333333333;3333;333",
"33333333333333333333;333",
"333333333333333333333333",
"333333333333333333333333",
"3333&OO;333;;33333333333",
"333;OOOO3333333333333333",
"3333333;333333333;OOO333",
"333333333333333333&O&333",
"333333333333333333333333",
"333333333333333333333333"
};
