/* XPM */
static char *ezgif_5_77e9626c0f[] = {
/* columns rows colors chars-per-pixel */
"24 24 130 2 ",
"   c #030302",
".  c #060804",
"X  c #080708",
"o  c #0C0C0B",
"O  c #100B02",
"+  c #0F140B",
"@  c #171004",
"#  c #1F1605",
"$  c #13130B",
"%  c #11180C",
"&  c #181F0F",
"*  c #141414",
"=  c #1F1711",
"-  c #151A10",
";  c #191C15",
":  c #171819",
">  c #1C1C1D",
",  c #281200",
"<  c #2B1F07",
"1  c #201711",
"2  c #2B1D11",
"3  c #1C2612",
"4  c #1E2A14",
"5  c #1E2418",
"6  c #262101",
"7  c #2B270A",
"8  c #272808",
"9  c #2D280A",
"0  c #362702",
"q  c #33220C",
"w  c #3D2C0A",
"e  c #282112",
"r  c #212E17",
"t  c #28251F",
"y  c #263319",
"u  c #29371A",
"i  c #2C3C1E",
"p  c #242424",
"a  c #262728",
"s  c #2D2D2C",
"d  c #3E3421",
"f  c #353535",
"g  c #3C3C3B",
"h  c #462000",
"j  c #452C00",
"k  c #502A00",
"l  c #4C3300",
"z  c #4E3D01",
"x  c #43310C",
"c  c #4D300A",
"v  c #593607",
"b  c #533D0F",
"n  c #422613",
"m  c #452F16",
"M  c #403520",
"N  c #423823",
"B  c #4C3A24",
"V  c #30421F",
"C  c #2F4120",
"Z  c #324521",
"A  c #364A24",
"S  c #384C25",
"D  c #54401F",
"F  c #6D4500",
"G  c #754C00",
"H  c #7C5300",
"J  c #70431E",
"K  c #554220",
"L  c #69422B",
"P  c #734521",
"I  c #705027",
"U  c #7E562A",
"Y  c #77582D",
"T  c #454444",
"R  c #484746",
"E  c #494847",
"W  c #4C4B4B",
"Q  c #5D4E44",
"!  c #555553",
"~  c #5A5957",
"^  c #5E5D5B",
"/  c #67574D",
"(  c #645D55",
")  c #7C6246",
"_  c #7C6448",
"`  c #61605C",
"'  c #6E675F",
"]  c #7E6455",
"[  c #766959",
"{  c #676767",
"}  c #686763",
"|  c #6B6966",
" . c #6E6C68",
".. c #71706C",
"X. c #767575",
"o. c #787772",
"O. c #7C7A75",
"+. c #7F7D78",
"@. c #825800",
"#. c #8B6200",
"$. c #824627",
"%. c #854827",
"&. c #8C4B27",
"*. c #8A5228",
"=. c #966632",
"-. c #9E6F39",
";. c #B47A3B",
":. c #A57849",
">. c #978001",
",. c #A48200",
"<. c #B19100",
"1. c #B89E00",
"2. c #84827C",
"3. c #C68948",
"4. c #DE9649",
"5. c #C4945C",
"6. c #ED9246",
"7. c #F19547",
"8. c #FFB055",
"9. c #8B8983",
"0. c #8F8D88",
"q. c #918E88",
"w. c #96948F",
"e. c #96938C",
"r. c #989691",
"t. c #9D9A96",
"y. c #9F9D98",
"u. c #9E9D9D",
"i. c #A6A39D",
"p. c #ADABA5",
/* pixels */
"S S S S S S S S S S S +   i S S S S S S S S S S ",
"S S S S S S S S S Z i 8 6 u Z S S S S S S S S S ",
"S S S A Z Z Z A C 9 0 >.1.z 7 u S S S A S S S S ",
"S S S A Z Z Z A r l @.,.<.#.l + A S S A A S S S ",
"S S S S S S S S r j G H H G j + A S S S S S S S ",
"S S S S S S S S r , h F H k , + A S S S S S S S ",
"S S S S S S A y - 1 2 c v q = * y A S S S S S S ",
"S S S S S Z + o > g T ( ' E g a + + Z Z Z A S S ",
"S S S S S y X * s R W O.9.~ R f * X 3 u Z V A S ",
"S S S S A - s g R E W 2.e.~ R R g s   3 A A S S ",
"S S S S A 5  .+.( T W ..+.! T E O. .o 3 S S S S ",
"S S S S Z ; E  .2.9.q.i.p.e.9.2. .E X 3 S S S S ",
"S S S S A 3 * T O.0.w.t.y.r.0.2.T * $ y S S S S ",
"S S S S S Z . o p f f R W g f s o . Z S S S S S ",
"S S S S S Z . * W T > W ^ a T { * . Z S A S S S ",
"S S S S S Z . > X.[ m (  .B [ u.p . Z S A S S S ",
"S S S S S i ; s R :.4.) Q 3.:.R s ; i Z S S S S ",
"S S S S A 5 } O.^ L &.%.$.&.L R o.} o 3 S S S S ",
"S S S i & Y 5._ f / ] ] ] ] / g _ 5.-.K r S S S ",
"S S S y   ;.7.J : ! ! ! ! ! ! f P 6.8.U % S S S ",
"S S S i & I *.n : E E W W W E s n *.=.D 4 A S S ",
"S S S S S y r + $ d N t > d M e % r 4 u A A S S ",
"S S S S S S S 3 @ w w O   q x < 3 S S S S S S S ",
"S S S S S S S 3 # b b @   x b w 3 S S S S S S S "
};
