/* XPM */
static char *ezgif_5_81083b8334[] = {
/* columns rows colors chars-per-pixel */
"24 24 122 2 ",
"   c #040503",
".  c #090602",
"X  c #070805",
"o  c #0D0A01",
"O  c #0C0D0A",
"+  c #110700",
"@  c #140F04",
"#  c #0E130A",
"$  c #191104",
"%  c #10160B",
"&  c #141B0D",
"*  c #0F0F10",
"=  c #151514",
"-  c #181411",
";  c #171D12",
":  c #1B1A17",
">  c #1B1B1B",
",  c #211500",
"<  c #21170B",
"1  c #2C1C0D",
"2  c #321600",
"3  c #3A1A01",
"4  c #261C13",
"5  c #231F1A",
"6  c #16200E",
"7  c #1A2411",
"8  c #1E2914",
"9  c #262606",
"0  c #2F2404",
"q  c #2F200F",
"w  c #39290A",
"e  c #212C16",
"r  c #20211F",
"t  c #2C2418",
"y  c #372B1D",
"u  c #243117",
"i  c #263218",
"p  c #28361A",
"a  c #2C3C1D",
"s  c #242424",
"d  c #282727",
"f  c #2C2C2C",
"g  c #302F2F",
"h  c #343333",
"j  c #3B3937",
"k  c #3C3C3B",
"l  c #421D00",
"z  c #472702",
"x  c #492802",
"c  c #422408",
"v  c #493202",
"b  c #4D3B00",
"n  c #5C3A00",
"m  c #523D0E",
"M  c #603900",
"N  c #2F401E",
"B  c #30421F",
"V  c #2F4120",
"C  c #334521",
"Z  c #364A24",
"A  c #384C25",
"S  c #58410F",
"D  c #6F4A02",
"F  c #744C00",
"G  c #7E5500",
"H  c #7F6000",
"J  c #41403F",
"K  c #454443",
"L  c #494744",
"P  c #494846",
"I  c #4C4B4A",
"U  c #504F4D",
"Y  c #555452",
"T  c #5A5956",
"R  c #5D5C5A",
"E  c #6A5A47",
"W  c #61574A",
"Q  c #796043",
"!  c #62615F",
"~  c #656361",
"^  c #686662",
"/  c #6B6966",
"(  c #73716D",
")  c #767571",
"_  c #797772",
"`  c #7D7B76",
"'  c #7C7B78",
"]  c #866000",
"[  c #8A6F00",
"{  c #937200",
"}  c #965A2C",
"|  c #A47036",
" . c #A97E4B",
".. c #827C73",
"X. c #978200",
"o. c #A18A00",
"O. c #AE8F00",
"+. c #B39300",
"@. c #BB9B00",
"#. c #C2A600",
"$. c #CBAF00",
"%. c #CCB000",
"&. c #D49B56",
"*. c #E59748",
"=. c #EDA34E",
"-. c #888680",
";. c #95918A",
":. c #9A978F",
">. c #999792",
",. c #9B9890",
"<. c #9C9891",
"1. c #9E9A93",
"2. c #9F9B93",
"3. c #A19E96",
"4. c #A5A5A4",
"5. c #ABA8A3",
"6. c #B1AEA8",
"7. c #B4B1AB",
"8. c #B5B1AB",
"9. c #B8B5AF",
"0. c #BBB8B2",
"q. c #BFBCB6",
/* pixels */
"A A A A A A A A A Z a o o o . & C A A A A A A A ",
"A A A A A A A A A a 9 X.o.o.[ v & Z A A A A A A ",
"A A A Z C C C Z V e b #.$.%.@.H 0 u Z Z A A A A ",
"A A A Z C C C Z e , ] O.+.+.O.{ n $ i C Z A A A ",
"A A A A A A A A e , F G G F M l l 3 . a A A A A ",
"A A A A A A A Z 8 + z D F x 3 3 3 2 . a A A A A ",
"A A A A A A Z 8 X O 5 t c 4 : - . . X a A A A A ",
"A A A A A C # : g P / ^ L h f d * X p C C Z A A ",
"A A A A C e = d I _ -./ I k j f = O 8 N C B Z A ",
"A A A A a O P R ' ;.` I K Y Y k d s X a Z Z A A ",
"A A A A a = ;.7.5.' R T I ( ` ^ I k O a A A A A ",
"A A A A a = >.9.q.7.3.2.2.-./ P K f X a A A A A ",
"A A A A a O h ' 0.9.6.2.2.:.^ > > : X a A A A A ",
"A A A A Z a O h ~ ! T K h h d : : = X a A A A A ",
"A A A A A C   g P K ' k s s > : = # ; C Z Z A A ",
"A A A A A C   j W E 4.P h h f > = & C A Z A A A ",
"A A A A A C   > Q  .P K K j h 8 & Z A A A A A A ",
"A A A A A C #   : j K ) ) Y f % C A A A A A A A ",
"A A A Z C B a & : K U ....Y f # Z A A A A A A A ",
"A A A Z C C C & > j y &.&.y X % Z A A Z A A A A ",
"A A A Z Z A A 7 : f 1 *.=.q   # Z Z C C C Z A A ",
"A A A A A A A u ; > 1 } | <   7 Z Z C C C Z A A ",
"A A A A A A A A e @ w $ @   & A A A A A A A A A ",
"A A A A A A A A e $ S S m o & A A A A A A A A A "
};
