/* XPM */
static char *ezgif_5_4be15a43e9[] = {
/* columns rows colors chars-per-pixel */
"24 24 125 2 ",
"   c #030402",
".  c #080500",
"X  c #060804",
"o  c #0B0C04",
"O  c #080708",
"+  c #0C0C0B",
"@  c #140E04",
"#  c #110D0A",
"$  c #0E130A",
"%  c #11160C",
"&  c #141B0D",
"*  c #141413",
"=  c #161814",
"-  c #1E1A17",
";  c #1C1C1C",
":  c #220F00",
">  c #261100",
",  c #291D07",
"<  c #22180C",
"1  c #3A1A01",
"2  c #261C13",
"3  c #1A2412",
"4  c #1E2914",
"5  c #1E201D",
"6  c #2E2204",
"7  c #2E210C",
"8  c #322605",
"9  c #3E2400",
"0  c #3A2A03",
"q  c #372809",
"w  c #212C15",
"e  c #26221B",
"r  c #2D2518",
"t  c #362A1C",
"y  c #233017",
"u  c #27361A",
"i  c #29371B",
"p  c #2D3D1E",
"a  c #232323",
"s  c #2C2C2C",
"d  c #353433",
"f  c #3A3432",
"g  c #393937",
"h  c #3C3C3B",
"j  c #411D00",
"k  c #492702",
"l  c #452B00",
"z  c #422408",
"x  c #502B00",
"c  c #4C3200",
"v  c #593602",
"b  c #523D0E",
"n  c #553217",
"m  c #613821",
"M  c #2F401F",
"N  c #30421F",
"B  c #324521",
"V  c #374A24",
"C  c #384C25",
"Z  c #564C03",
"A  c #57410F",
"S  c #5B4310",
"D  c #734C01",
"F  c #7D5400",
"G  c #775900",
"H  c #7F5F00",
"J  c #53432F",
"K  c #41403F",
"L  c #574032",
"P  c #714520",
"I  c #765733",
"U  c #444443",
"Y  c #4B4642",
"T  c #4C4B4A",
"R  c #52504E",
"E  c #555553",
"W  c #585755",
"Q  c #5A5956",
"!  c #5D5C59",
"~  c #605F5C",
"^  c #63615D",
"/  c #646360",
"(  c #6A6965",
")  c #6F6D69",
"_  c #74726E",
"`  c #777571",
"'  c #797672",
"]  c #7D7B76",
"[  c #7B7B7C",
"{  c #835F00",
"}  c #937600",
"|  c #9B7600",
" . c #A0602F",
".. c #A36F36",
"X. c #866849",
"o. c #B27E46",
"O. c #827C73",
"+. c #9F8800",
"@. c #A38A00",
"#. c #B29300",
"$. c #BC9D00",
"%. c #CBAE00",
"&. c #CDB000",
"*. c #868076",
"=. c #86847E",
"-. c #88857F",
";. c #92897E",
":. c #D39A56",
">. c #EE9548",
",. c #EBA14D",
"<. c #E3A45B",
"1. c #858484",
"2. c #8C8A85",
"3. c #918E87",
"4. c #928F88",
"5. c #98948D",
"6. c #9C9891",
"7. c #A09C94",
"8. c #A19E9A",
"9. c #A9A69F",
"0. c #ACA8A2",
"q. c #B0ADA7",
"w. c #B7B4AE",
"e. c #BAB7B2",
"r. c #BDBAB4",
/* pixels */
"C C C C C C C V w . o o o w V C C C C C C C C C ",
"C C C C C C C w 6 G +.@.@.Z 3 C C C C C C C C C ",
"C C C V B B 4 8 H $.%.%.&.} 0 3 V C C V C C C C ",
"C C C V M y % 9 { @.#.#.#.| c $ V C C V V C C C ",
"C C C C p   > j j x D F F F l $ C C C C C C C C ",
"C C C C p   : 1 1 1 k D D v > $ B C C C C C C C ",
"C C C C p X   . # - 2 z r e * X % B C C C C C C ",
"C C C C V p % O ; s d Y / ( Q g a % B B B V C C ",
"C C C C B & % * a g U T W ] 5.' h a % w B N V C ",
"C C C C p   = s h T Q W T ( 4.-.Q T O 3 V V V C ",
"C C C C p   s ! ' ] ] ' ~ ! ) 2.2.-.* 3 C C C C ",
"C C C C p   ; h Q _ _ =.6.7.0.r.q.) + 3 C C C C ",
"C C C C p X * ; a a g 3.6.9.w.e.8.g O 4 C C C C ",
"C C C C V p & + = = ; d U E / ^ R * i B C C C C ",
"C C C C C C & O = ; s s h 1.[ s W + B C V V C C ",
"C C C C C C 4 $ = a d g K 1.;.J Q + B C V C C C ",
"C C C C C C C w = s g U U U X.o.d o B C C C C C ",
"C C C C C V C V w = E ` ] E L m X $ B C C C C C ",
"C C C V B B B V w * R O.*.^ Y f o M V C C C C C ",
"C C C V B B B B w   t :.<.I a g $ V C V C C C C ",
"C C C V V C V C w   7 ,.>.P * s o B B B B V C C ",
"C C C C C C C C i o < .. .n * 5 3 V B B B V C C ",
"C C C C C C C C C u   @ @ 7 , % V C C C C C C C ",
"C C C C C C C C C u @ b A S q $ V C C C C C C C "
};
