/* XPM */
static char *ezgif_5_69796dc6ce[] = {
/* columns rows colors chars-per-pixel */
"24 24 127 2 ",
"   c #020201",
".  c #050803",
"X  c #0A0C05",
"o  c #0C0D0B",
"O  c #130802",
"+  c #1A0F00",
"@  c #0E130B",
"#  c #1B1106",
"$  c #12130D",
"%  c #12190D",
"&  c #131312",
"*  c #181A16",
"=  c #181718",
"-  c #1C1B1C",
";  c #241300",
":  c #231B07",
">  c #2B190C",
",  c #311C0C",
"<  c #231912",
"1  c #201F1F",
"2  c #162010",
"3  c #1B2512",
"4  c #1E2914",
"5  c #292806",
"6  c #2D2208",
"7  c #382000",
"8  c #3A2A03",
"9  c #302309",
"0  c #37280B",
"q  c #2F2512",
"w  c #212C15",
"e  c #26231C",
"r  c #2C2618",
"t  c #222C19",
"y  c #302210",
"u  c #3E2412",
"i  c #332F16",
"p  c #26341A",
"a  c #29361A",
"s  c #2B3A1C",
"d  c #242525",
"f  c #2C2C2B",
"g  c #3B362C",
"h  c #363534",
"j  c #3F3C37",
"k  c #3D3D3C",
"l  c #411E02",
"z  c #452102",
"x  c #482400",
"c  c #4D3300",
"v  c #44320C",
"b  c #4A370D",
"n  c #5C3500",
"m  c #422C16",
"M  c #46301F",
"N  c #633C00",
"B  c #443E33",
"V  c #483B31",
"C  c #403D3B",
"Z  c #30421F",
"A  c #324521",
"S  c #364A24",
"D  c #384C25",
"F  c #564C03",
"G  c #5D4510",
"H  c #6F4600",
"J  c #754D00",
"K  c #6D5000",
"L  c #7C5200",
"P  c #6C411E",
"I  c #40403F",
"U  c #6F4E26",
"Y  c #7A5429",
"T  c #7A5831",
"R  c #454443",
"E  c #484746",
"W  c #4C4B4A",
"Q  c #504F4D",
"!  c #52524F",
"~  c #555452",
"^  c #5B5A57",
"/  c #5E5C5A",
"(  c #605F5C",
")  c #63615E",
"_  c #6A635C",
"`  c #676662",
"'  c #696764",
"]  c #6A6965",
"[  c #6D6C68",
"{  c #796F61",
"}  c #716F6B",
"|  c #73716D",
" . c #7B756B",
".. c #7F786C",
"X. c #767470",
"o. c #797772",
"O. c #7C7A75",
"+. c #7F7D78",
"@. c #835B00",
"#. c #8F6800",
"$. c #937500",
"%. c #997500",
"&. c #9E602E",
"*. c #AA7942",
"=. c #84786B",
"-. c #887B6D",
";. c #988300",
":. c #A38C00",
">. c #C4A700",
",. c #CCB000",
"<. c #84817C",
"1. c #CF9147",
"2. c #E48D44",
"3. c #E49C4C",
"4. c #F3A14E",
"5. c #E6A151",
"6. c #EAA556",
"7. c #8A8882",
"8. c #8E8B84",
"9. c #8E8B85",
"0. c #8F8D87",
"q. c #9B9790",
"w. c #9C9991",
"e. c #9E9B93",
"r. c #9F9B93",
"t. c #A19D95",
"y. c #A19D96",
/* pixels */
"D D D D D D D D D S s X X w S D D D D D D D D D ",
"D D D D D D D D D s 5 ;.:.F 3 D D D D D D D D D ",
"D D D S A A A S a : K >.,.$.8 3 S D S S D D D D ",
"D D D S A A A S w ; @.%.%.#.c @ S D S S S D D D ",
"D D D D D D D D w + N L L H 7 @ D D D D D D D D ",
"D D D D D D D S 4 O x J J n ; $ A S D D D D D D ",
"D D D D D D S 4 o < l z z z , & X a D D D D D D ",
"D D D D D A $ @ - h V z l M C d = @ p A A S D D ",
"D D D D A % @ - h E ~ =.-._ E k f = @ w A Z S D ",
"D D D D s o W / ~ k ~ 7.0.[ R E ( ^ 1 3 S S S D ",
"D D D D s $ ' +.` E ) <.<.} Q ! +.O.f 3 D D D D ",
"D D D D s o C ) o.<.q.t.t.e.8.o.o.~ = 3 D D D D ",
"D D D D s X = h ( O.<.e.e.8.O.[ W f o 4 D D D D ",
"D D D D S a X & f R E ^ / W R h d o 4 A D D D D ",
"D D D D D A . - I R E E E E R R h & w D S S D D ",
"D D D D D A   h ^ I W W W W E E ' - w D S D D D ",
"D D D D S s * W ' E ~ ~ ~ ~ W ~ O.h t A D D D D ",
"D D D S s r {  .} X.O.O.O.O.o.| } ..V w A D D D ",
"D D D a q 1.6.T d / O.O.O.O.[ k & *.5.U 2 D D D ",
"D D D p y 3.2.P = W ~ ~ ~ ~ ~ h   &.4.Y % D D D ",
"D D D A a m u # = k E W W W E f   > m i a S D D ",
"D D D D A @ @ . $ g B h h j B e   X @ w S S D D ",
"D D D D D S D 3 # v 0 .   : v 9   a D D D D D D ",
"D D D D D D D 3 : G b .   6 G v   a D D D D D D "
};
