/* XPM */
static char *ezgif_5_095ec8a7ab[] = {
/* columns rows colors chars-per-pixel */
"24 24 115 2 ",
"   c #141316",
".  c #1B1816",
"X  c #171A19",
"o  c #171B19",
"O  c #191F1B",
"+  c #1F241B",
"@  c #1D211C",
"#  c #1D221C",
"$  c #2E2314",
"%  c #2F2415",
"&  c #22261D",
"*  c #20271E",
"=  c #22291F",
"-  c #3E2F15",
";  c #33301C",
":  c #1D2B23",
">  c #1C2C24",
",  c #242F20",
"<  c #263022",
"1  c #273325",
"2  c #2F3A27",
"3  c #20372A",
"4  c #263F29",
"5  c #203A2C",
"6  c #213E2D",
"7  c #203D2E",
"8  c #213E2E",
"9  c #213E2F",
"0  c #203F2F",
"q  c #213F2F",
"w  c #303621",
"e  c #303C27",
"r  c #323C27",
"t  c #323D27",
"y  c #343E27",
"u  c #383B20",
"i  c #423013",
"p  c #483312",
"a  c #533A13",
"s  c #3E4124",
"d  c #3C4226",
"f  c #354029",
"g  c #354129",
"h  c #364129",
"j  c #214030",
"k  c #264A33",
"l  c #2B5536",
"z  c #2C5837",
"x  c #2F5D37",
"c  c #315332",
"v  c #316239",
"b  c #35673B",
"n  c #3C673B",
"m  c #33693C",
"M  c #336A3D",
"N  c #336B3D",
"B  c #346B3D",
"V  c #356B3D",
"C  c #346C3D",
"Z  c #356C3D",
"A  c #366D3D",
"S  c #3C723F",
"D  c #574116",
"F  c #57431C",
"G  c #624C1A",
"H  c #534724",
"J  c #43542B",
"K  c #46532F",
"L  c #405030",
"P  c #425331",
"I  c #435431",
"U  c #495C35",
"Y  c #4B5D34",
"T  c #4B5E35",
"R  c #4B5F36",
"E  c #4F5F35",
"W  c #715A25",
"Q  c #556C2F",
"!  c #4D6238",
"~  c #4E6238",
"^  c #4E6338",
"/  c #4E6438",
"(  c #4F6438",
")  c #4E6439",
"_  c #4F6439",
"`  c #4F6539",
"'  c #536337",
"]  c #506539",
"[  c #506639",
"{  c #4A723C",
"}  c #597332",
"|  c #776530",
" . c #447A41",
".. c #477C42",
"X. c #4A8043",
"o. c #568945",
"O. c #578A45",
"+. c #568A46",
"@. c #578A46",
"#. c #5F8C41",
"$. c #588C46",
"%. c #598C46",
"&. c #5A8D46",
"*. c #619346",
"=. c #6A9742",
"-. c #689B47",
";. c #6A9D47",
":. c #73A144",
">. c #76A847",
",. c #77A947",
"<. c #78A947",
"1. c #78AA47",
"2. c #85B547",
"3. c #95C347",
"4. c #97C649",
/* pixels */
"^ ^ ^ ^ ^ ^ ^ ^ ^ [ e     e [ ^ ^ ^ ^ ^ ^ ^ ^ ^ ",
"^ ^ ^ ^ ^ ^ ^ / U g J Q Q J g U / ^ ^ ^ ^ ^ ^ ^ ",
"^ ^ ^ ^ ^ ^ ^ U I & } 4.4.} & I U ^ ^ ^ ^ ^ ^ ^ ",
"^ ^ ^ ^ ^ ^ / g = { :.3.3.:.{ = g / ^ ^ ^ ^ ^ ^ ",
"^ ^ ^ ^ ^ ^ / e + #.<.2.2.<.#.+ e / ^ ^ ^ ^ ^ ^ ",
"^ ^ ^ ^ ^ ^ U e , =.,.,.,.,.=., e U ^ ^ ^ ^ ^ ^ ",
"^ ^ ^ ^ / U & 4 b O.;.<.<.;.O.b 4 & U / ^ ^ ^ ^ ",
"^ ^ ^ / L 2 : c X.O.*.-.-.*.O.X.c : 2 L / ^ ^ ^ ",
"^ ^ ^ / e X 9 n O.%.%.%.%.%.%.O.n 9 X e / ^ ^ ^ ",
"^ ^ ^ / e O x B S O.%.%.%.%.O.S B x O e / ^ ^ ^ ",
"^ ^ ^ / e O v A A  ......... .A A v @ e / ^ ^ ^ ",
"^ ^ ^ / e O x N B N N N N B B B N x O e / ^ ^ ^ ",
"^ ^ ^ / e X 9 z A A A A A A A A z 9 o e / ^ ^ ^ ",
"^ ^ ^ / e X 5 k l l l l l l l l k 5 X e / ^ ^ ^ ",
"^ ^ ^ / g @ 3 9 9 9 9 9 9 9 9 9 9 3 @ g / ^ ^ ^ ",
"^ ^ ^ ^ U L @ > j j 9 9 9 9 9 j > @ L U ^ ^ ^ ^ ",
"^ ^ ^ ^ / U g 1 : < w u u w < : 1 g U / ^ ^ ^ ^ ",
"^ ^ ^ ^ ^ ^ [ y . % i a a i % . y [ ^ ^ ^ ^ ^ ^ ",
"^ ^ ^ ^ ^ ^ / d $ p D G G D p $ d / ^ ^ ^ ^ ^ ^ ",
"^ ^ ^ ^ ^ ^ / K d - F W W F - d K ^ ^ ^ ^ ^ ^ ^ ",
"^ ^ ^ ^ ^ ^ ^ / U ; H | | H ; U / ^ ^ ^ ^ ^ ^ ^ ",
"^ ^ ^ ^ ^ ^ ^ ^ ^ U E ' ' E U ^ ^ ^ ^ ^ ^ ^ ^ ^ ",
"^ ^ ^ ^ ^ ^ ^ ^ ^ ^ ^ ^ ^ ^ ^ ^ ^ ^ ^ ^ ^ ^ ^ ^ ",
"^ ^ ^ ^ ^ ^ ^ ^ ^ ^ ^ ^ ^ ^ ^ ^ ^ ^ ^ ^ ^ ^ ^ ^ "
};
