/* XPM */
static char *ezgif_5_014c95158f[] = {
/* columns rows colors chars-per-pixel */
"24 24 142 2 ",
"   c #141316",
".  c #1C1916",
"X  c #171A19",
"o  c #171B1A",
"O  c #181B1A",
"+  c #1B1F1A",
"@  c #1A1F1B",
"#  c #1A201B",
"$  c #1B201B",
"%  c #1E2119",
"&  c #1F241C",
"*  c #1F251C",
"=  c #2F2314",
"-  c #2F2415",
";  c #20271D",
":  c #21271D",
">  c #252D1C",
",  c #2F2B18",
"<  c #3D2E14",
"1  c #26301C",
"2  c #26301D",
"3  c #27301D",
"4  c #26301E",
"5  c #27301E",
"6  c #27311E",
"7  c #27321F",
"8  c #29321E",
"9  c #28331E",
"0  c #29341E",
"q  c #29341F",
"w  c #2A341F",
"e  c #2D3B1F",
"r  c #34361B",
"t  c #30351C",
"y  c #31371D",
"u  c #34371C",
"i  c #303B1D",
"p  c #1C2A22",
"a  c #1D2C23",
"s  c #1C2D24",
"d  c #1F372A",
"f  c #212E20",
"g  c #242F20",
"h  c #263022",
"j  c #253E28",
"k  c #203A2C",
"l  c #213E2D",
"z  c #203D2E",
"x  c #213E2E",
"c  c #213E2F",
"v  c #203F2F",
"b  c #213F2F",
"n  c #303621",
"m  c #303F21",
"M  c #383B20",
"N  c #423013",
"B  c #483312",
"V  c #533A13",
"C  c #30421F",
"Z  c #304320",
"A  c #314320",
"S  c #314122",
"D  c #324223",
"F  c #364221",
"G  c #324420",
"H  c #324421",
"J  c #324521",
"K  c #334521",
"L  c #334621",
"P  c #334622",
"I  c #334722",
"U  c #344622",
"Y  c #344722",
"T  c #354724",
"R  c #354823",
"E  c #374823",
"W  c #364923",
"Q  c #364A23",
"!  c #364924",
"~  c #374924",
"^  c #374A24",
"/  c #374B24",
"(  c #374B25",
")  c #374C25",
"_  c #384B25",
"`  c #3B4B25",
"'  c #384C25",
"]  c #384D25",
"[  c #394D25",
"{  c #394E25",
"}  c #3E4E26",
"|  c #214030",
" . c #264A33",
".. c #2B5536",
"X. c #2C5837",
"o. c #2F5D37",
"O. c #315332",
"+. c #316239",
"@. c #35673B",
"#. c #3C673B",
"$. c #33693C",
"%. c #336A3D",
"&. c #336B3D",
"*. c #346B3D",
"=. c #356B3D",
"-. c #346C3D",
";. c #356C3D",
":. c #366D3D",
">. c #3C723F",
",. c #574116",
"<. c #58441C",
"1. c #624C1A",
"2. c #404F26",
"3. c #514522",
"4. c #715B25",
"5. c #556C2F",
"6. c #4A723C",
"7. c #597332",
"8. c #75632E",
"9. c #447A41",
"0. c #477C42",
"q. c #4A8043",
"w. c #568945",
"e. c #578A45",
"r. c #568A46",
"t. c #578A46",
"y. c #5F8C41",
"u. c #588C46",
"i. c #598C46",
"p. c #5A8D46",
"a. c #619346",
"s. c #6A9742",
"d. c #689B47",
"f. c #6A9D47",
"g. c #73A144",
"h. c #76A847",
"j. c #77A947",
"k. c #78A947",
"l. c #78AA47",
"z. c #85B547",
"x. c #95C347",
"c. c #97C649",
/* pixels */
"' ' ' ' ' ' ' ' ' ' 4     4 ' ' ' ' ' ' ' ' ' ' ",
"' ' ' ' ' ' ' ' ! 9 } 5.5.} 9 ! ' ' ' ' ' ' ' ' ",
"' ' ' W H H U U D * 7.c.c.7.* D ! ' ' ! ' ' ' ' ",
"' ' ' W H H H 4 : 6.g.x.x.g.6.: q ' ' W ! ' ' ' ",
"' ' ' ' ' ' ' 4 * y.k.z.z.k.y.* 4 ' ' ' ' ' ' ' ",
"' ' ' ' ' _ T 4 g s.j.j.j.j.s.g 4 T _ ' ' ' ' ' ",
"' ' ' ' ' T % j @.e.f.k.k.f.e.@.j % T ' ' ' ' ' ",
"' ' ' ' m 4 p O.q.e.a.d.d.a.e.q.O.p 4 e U ! _ ' ",
"' ' ' ' 4 X c #.e.i.i.i.i.i.i.e.#.c O > C C W ' ",
"' ' ' ' 4 + o.*.>.e.i.i.i.i.e.>.*.o.+ 4 ! W ' ' ",
"' ' ' ' 4 $ +.:.:.9.0.0.0.0.9.:.:.+.$ 4 ' ' ' ' ",
"' ' ' ' 4 + o.&.*.&.&.&.&.*.*.*.&.o.+ 4 ' ' ' ' ",
"' ' ' ' 4 O c X.:.:.:.:.:.:.:.:.X.c O 4 ' ' ' ' ",
"' ' ' ' 4 X k  ................. .k X 4 ' ' ' ' ",
"' ' ' ' q $ d c c c c c c c c c c d $ q W ! ' ' ",
"' ' ' ' ! D + s | | c c c c c | s + D ! W ' ' ' ",
"' ' ' ' ' ! q f p h n M M n h a f q ! ' ' ' ' ' ",
"' ' ' ' ' _ ' 9 . - N V V N - . 9 ' ' ' ' ' ' ' ",
"' ' ' ! U D H t = B ,.1.1.,.B = t ' ' ' ' ' ' ' ",
"' ' ' W D H D i r < <.4.4.<.< u F ' ' _ ' ' ' ' ",
"' ' ' ! ! ' ! ! W , 3.8.8.3., ! ' ! H D H ! ' ' ",
"' ' ' ' ' ' ' ' _ W _ 2.2._ W ' ' ! H H U ! ' ' ",
"' ' ' ' ' ' ' ' ' ' ' ' ' ' ' ' ' ' ' ' ' ' ' ' ",
"' ' ' ' ' ' ' ' ' ' ' ' ' ' ' ' ' ' ' ' ' ' ' ' "
};
