/* XPM */
static char *result[] = {
/* columns rows colors chars-per-pixel */
"64 64 37 1 ",
"  c #2E401E",
". c #2E411E",
"X c #2E411F",
"o c #30411E",
"O c #30411F",
"+ c #30421F",
"@ c #31421F",
"# c #314220",
"$ c #314320",
"% c #324320",
"& c #324420",
"* c #324421",
"= c #334421",
"- c #334521",
"; c #344622",
": c #354622",
"> c #354722",
", c #354723",
"< c #354923",
"1 c #364923",
"2 c #354924",
"3 c #364A24",
"4 c #374A24",
"5 c #374B24",
"6 c #384C25",
"7 c #957215",
"8 c #A27C17",
"9 c #CDA332",
"0 c #D3AE4A",
"q c #D6B356",
"w c #D9B962",
"e c #DCBE6E",
"r c #DFC47A",
"t c #E2C986",
"y c #E5CE92",
"u c #E8D49E",
"i c #EBD9AA",
/* pixels */
"6666666666666666666666666666666666666666666666666666666666666666",
"6666666666666666666666666666666666666666666666666666666666666666",
"6666666666666666666666666666666666666666666666666666666666666666",
"6666666666666666666666666666666666666666666666666666666666666666",
"6666666666666666666666666666666666666666666666666666666666666666",
"6666666666666666666666666666666666666666666666666666666666666666",
"66666666611;-$&;311356666666666666666666666666666666666666666666",
"666666666-.o   O+OO@;666666666666666666666666666665>><6666666666",
"666666666-   .      ;666666666666666666666666666665-@>6666666666",
"666666666;@+$=$O@##*>666666666666666666666666666665;->6666666666",
"66666666666666111666666666666666<>>56666666666666665556666666666",
"66666666666666666666666666666666>@-56666666666666666666666666666",
"66666666666666666666666666666666>-;56666666666666666666666666666",
"6666666666666666666666666666666655566666666666666666666666666666",
"6666666666666666666666666666666666666666666666666666666666666666",
"6666666666666666666666666666666666666666666666666666666666666666",
"6666666666666666666666666666677777777666666666666666666666666666",
"6666666666666666666666666666677777777666666666666666666666666666",
"666666666666666666666666666679977ee77666666666666666666666666666",
"666666666666666666666666666679977ee77666666666666665<<1666666666",
"66666666666666666666666666779779900yy776666666666:-#+O%>66666666",
"66666666666666666666666666779779977rr776666666666-XO . O+@%>6666",
"66666666666666666666666666779779977rr776666666666-O+&@.    ;6666",
"66666666666666666666666677997999977eeww77666666661,,63$  .@;6666",
"66666666666666666666666677997999977eeww776666666666666>&&;556666",
"666666666666666666666666779979977rr77ee7766666666666666666666666",
"666666666666666666666666779979977rr77ee7766666666666666666666666",
"666666666666666666666666779979977yy77yy7766666666666666666666666",
"666666666666666666666666779979977yy77yy7766666666666666666666666",
"666666666666666666666666779979977ii77tt7766666666666666666666666",
"666666666661136666666666779979977ii77tt7766666666666666666666666",
"66666666665-%>6666666666779979977uu77tt7766666666666666666666666",
"66666666665-%>6666666666779979977uu77tt7766666666666666666666666",
"666666666661136666666666779979977ii77tt7766666666666666666666666",
"666666666666666666666666779979977ii77tt7766666666666666666666666",
"666666666666666666666666779979977rr77ii7766666666666666666666666",
"666666666666666666666666779979977ee77tt7715666666666666666666666",
"666666666666666666666666779979977ee77tt77*1666666666666666666666",
"66666666666666666666666677997990077wwqq77*16666666666<>>56666666",
"66666666666666666666666677997990077wwqq77156666666666>@-56666666",
"66666666666666666666666666779779988007766666666666666>-;56666666",
"6666666666666666666666666677977998800776666666666666655566666666",
"666666666666666666666666667797799qqrr776666666666666666666666666",
"666666666666666666666666667797799qqrr776666666666666666666666666",
"666666666666666666666666666679988ee77666666666666666666666666666",
"666666666666666666666666666679988ee77666666666666666666666666666",
"6666666666666666666666666666677777777666666666666666666666666666",
"6666666666666666666666666666677777777666666666666666666666666666",
"6666666666666-%%<6666666666666<>>5666666666666666666666666666666",
"666666666661;@  O-566666666666>@-5666666666666666666666666666666",
"6666666662-O.    .+@*166666666>-;5666666666666666666666666666666",
"666666666;O   @o    O;666666665556666666666666666666666666666666",
"666666666;OoO%1;&O  O;666666666666666666666666666666666666666666",
"6666666663,>456661;*;1666666666666666666666666665551<<5666666666",
"66666666666666666666666666666666666666666666666>%OOOO+#-26666666",
"66666666666666666666666666666666666666666666666;       O;6666666",
"66666666666666666666666666666666666666666666666;$.  @$OO;6666666",
"6666666666666666666666666666666666666666666666655;&&<5,,36666666",
"6666666666666666666666666666666666666666666666666666666666666666",
"6666666666666666666666666666666666666666666666666666666666666666",
"6666666666666666666666666666666666666666666666666666666666666666",
"6666666666666666666666666666666666666666666666666666666666666666",
"6666666666666666666666666666666666666666666666666666666666666666",
"6666666666666666666666666666666666666666666666666666666666666666"
};
