/* XPM */
static char *result[] = {
/* columns rows colors chars-per-pixel */
"64 64 39 1 ",
"  c #302820",
". c #302921",
"X c #312922",
"o c #322A25",
"O c #322B26",
"+ c #342C29",
"@ c #352E2B",
"# c #362F2E",
"$ c #2E401E",
"% c #2E411E",
"& c #2E411F",
"* c #30411E",
"= c #30411F",
"- c #30421F",
"; c #31421F",
": c #314220",
"> c #314320",
", c #324320",
"< c #324420",
"1 c #324421",
"2 c #334421",
"3 c #334521",
"4 c #344622",
"5 c #354722",
"6 c #354723",
"7 c #354923",
"8 c #364923",
"9 c #354924",
"0 c #364A24",
"q c #374B24",
"w c #384C25",
"e c #101060",
"r c #F86000",
"t c #289070",
"y c #68C078",
"u c #F8E028",
"i c #90D898",
"p c #A0F8A8",
"a c #F8F8E0",
/* pixels */
"wwwwwwwwwwwwwwwwwwwwwwwweeeewwwwwwwwweeeewwwwwwwwwwwwwwwwwwwwwww",
"wwwwwwwwwwwwwwwwwwwwwwwweeeewwwwwwwwweeeewwwwwwwwwwwwwwwwwwwwwww",
"wwwwwwwwwwwwwwwwwwweeeeewwwwwwwwwwwwwwwwweeeeewwwwwwwwwwwwwwwwww",
"wwwwwwwwwwwwwwwwwwweeeeewwwwwwwwwwwwwwwwweeeeewwwwwwwwwwwwwwwwww",
"wwwwwwwwwwwwwwwwweewwwwweewwwwwwwwwwwwweewwwwweewwwwwwwwwwwwwwww",
"wwwwwwwwwwwwwwwwweewwwwweewwwwwwwwwwwwweewwwwweewwwwwwwwwwwwwwww",
"wwwwwwwww8843><40ee0qwwweewwwwwwwwwwwwweewwwwweewwwwwwwwwwwwwwww",
"wwwwwwwww3%*$$$=-==;4eeewwwwwwwwwwwwwwwwweeewwwwwwq557wwwwwwwwww",
"wwwwwwwww3$$$%$$$$$$4eeewwwwwwwwwwwwwwwwweeewwwwwwq3;5wwwwwwwwww",
"wwwwwwwww4;->2>=;ee15wwweewwwwwwwwwwwwweewwwwweewwq435wwwwwwwwww",
"wwwwwwwwwwwwww888eewwwwweewwwwww755qwwweewwwwweewwwqqqwwwwwwwwww",
"wwwwwwwwwwwwwwwwweewweeewweewwww5;3qweewweeewweewwwwwwwwwwwwwwww",
"wwwwwwwwwwwwwwwwweewweeewweewwww534qweewweeewweewwwwwwwwwwwwwwww",
"wwwwwwwwwwwwwwweeuueewwwwwwwwwwwqqqwwwwwwwwweeuueewwwwwwwwwwwwww",
"wwwwwwwwwwwwwwweeuueewwwwwwwwwwwwwwwwwwwwwwweeuueewwwwwwwwwwwwww",
"wwwwwwwwwwwwwwweeuueewwwwwwwwwwwwwwwwwwwwwwweeuueewwwwwwwwwwwwww",
"wwwwwwwwwwwwwwweeuueewwwwwwwwwwwwwwwwwwwwwwweeuueewwwwwwwwwwwwww",
"wwwwwwwwwwwwwwweeuueewwwwwwwwwwwwwwwwwwwwwwweeuueewwwwwwwwwwwwww",
"wwwwwwwwwwwwwwwwweewwwwwwwwwwwwwwwwwwwwwwwwwwweewwwwwwwwwwwwwwww",
"wwwwwwwwwwwwwwwwweewwwwwwwwwwwwwwwwwwwwwwwwwwweewwwq778wwwwwwwww",
"wwwwwwwwwwwwwwweewwwweeeeewweeeeeeeeewweeeeewwwwee3:-=,5wwwwwwww",
"wwwwwwwwwwwwwwweewwwweeeeewweeeeeeeeewweeeeewwwwee&=$%$=-;,5wwww",
"wwwwwwwwwwwwwwweerreettteewweeiiiiieewweettteerree=-<;%$$$$4wwww",
"wwwwwwwwwwwwwwweerreettteewweeiiiiieewweettteerree66w0>$$%;4wwww",
"wwwwwwwwwwwwwwwwweeeeeeewwwwwweeeeewwwwwweeeeeeewwwwww5<<4qqwwww",
"wwwwwwwwwwwwwwwwweeeeeeewwwwwweeeeewwwwwweeeeeeewwwwwwwwwwwwwwww",
"wwwwwwwwwwwwwwweeuueewwwwww8864,15wwwwwwwwwweeuueewwwwwwwwwwwwww",
"wwwwwwwwwwwwwwweeuueewwwwww3===$$>8wwwwwwwwweeuueewwwwwwwwwwwwww",
"wwwwwwwwwwwwwwweeuueewwwwww<$$$=$%1wwwwwwwwweeuueewwwwwwwwwwwwww",
"wwwwwwwwwwwwwwweeuueeeeewww3%$=<>$1wwwwwweeeeeuueewwwwwwwwwwwwww",
"wwwwwwwwwww880weeuueeeeewww0334w444wwwwwweeeeeuueewwwwwwwwwwwwww",
"wwwwwwwwwwq3,5weeeeeewwweewwwwwwwwwwwwweewwweeeeeewwwwwwwwwwwwww",
"wwwwwwwwwwq3,5weeeeeewwweewwwwwwwwwwwwweewwweeeeeewwwwwwwwwwwwww",
"wwwwwwwwwww880wwwwweeeeewwwwwwwwwwwwwwwwweeeeewwwwwwwwwwwwwwwwww",
"wwwwwwwwwwwwwwwwwwweeeeewwwwwwwwwwwwwwwwweeeeewwwwwwwwwwwwwwwwww",
"wwwwwwwwwwwwwwweewwwwwwweewwwwwwwwwwwwweewwwwwwweewwwwwwwwwwwwww",
"wwwwwwwwwwwwwwweewwwwwwweewwwwwwwwwwwwwee8qwwwwweewwwwwwwwwwwwww",
"wwwwwwwwwwwwwwweewwwwwwweewwwwwwwwwwwwwee18wwwwweewwwwwwwwwwwwww",
"wwwwwwwwwwwwwwweeeeeeeeewwwwwwwwwwwwwww81eeeeeeeeewww755qwwwwwww",
"wwwwwwwwwwwwwwweeeeeeeeewwwwwwwwwwwwwwwq8eeeeeeeeewww5;3qwwwwwww",
"wwwwwwwwwwwwwwweeeeeeeeeeewwwwwwwwwwwwweeeeeeeeeeewww534qwwwwwww",
"wwwwwwwwwwwwwwweeeeeeeeeeewwwwwwwwwwwwweeeeeeeeeeewwwqqqwwwwwwww",
"wwwwwwwwwwwwwwweeuuaaeeeaaeewwwwwwwwweeaaeeeaauueewwwwwwwwwwwwww",
"wwwwwwwwwwwwwwweeuuaaeeeaaeewwwwwwwwweeaaeeeaauueewwwwwwwwwwwwww",
"wwwwwwwwwwwwwwweeyyeerrrrrppeewwwwweepprrrrreeyyeewwwwwwwwwwwwww",
"wwwwwwwwwwwwwwweeyyeerrrrrppeewwwwweepprrrrreeyyeewwwwwwwwwwwwww",
"wwwwwwwwwwwwwwweeyyeeeeeeeppeewwwwweeppeeeeeeeyyeewwwwwwwwwwwwww",
"wwwwwwwwwwwwwwweeyyeeeeeeeppeewwwwweeppeeeeeeeyyeewwwwwwwwwwwwww",
"wwwwwwwwwwwww3,eeyyeeeeeeeppee755qweeppeeeeeeeyyeewwwwwwwwwwwwww",
"wwwwwwwwwww84;$eeiieewwwwweeww5;3qwwweewwwwweeiieewwwwwwwwwwwwww",
"wwwwwwwww93=%$$eeiiee8wwwweeww534qwwweewwwwweeiieewwwwwwwwwwwwww",
"wwwwwwwwee=$$$;rree$=4wwww             wwwwwwweerrwwwwweewwwwwww",
"wwwwwwwwee=*=,8rree$=4wwww             wwwwwwweerrwwwwweewwwwwww",
"wwwwwweeuueeeeeuuttee             .OOo      eettuueeeeeuueewwwww",
"wwwwwweeuueeeeeuuttee             X@#+      eettuueeeeeuueewwwww",
"wwwwwweeuuuuuttttee               X@#+        eettttuuuuueewwwww",
"wwwwwweeuuuuuttttee               .OOo        eettttuuuuueewwwww",
"wwwwwweeyyyyyyyeeww                           wqeeyyyyyyyeewwwww",
"wwwwwweeyyyyyyyeeww                           wweeyyyyyyyeewwwww",
"wwwwwweeyyyyyyyeeww                           wweeyyyyyyyeewwwww",
"wwwwwwwweeeeeeewwwwww                       wwwwwweeeeeeewwwwwww",
"wwwwwwwweeeeeeewwwwww                       wwwwwweeeeeeewwwwwww",
"wwwwwwwwwwwwwwwwwwwwwwwwww             wwwwwwwwwwwwwwwwwwwwwwwww",
"wwwwwwwwwwwwwwwwwwwwwwwwww             wwwwwwwwwwwwwwwwwwwwwwwww"
};
