/* XPM */
static char *result[] = {
/* columns rows colors chars-per-pixel */
"64 64 16 1 ",
"  c #302820",
". c #4E6338",
"X c #101060",
"o c #F86000",
"O c #289070",
"+ c #68C078",
"@ c #F8A800",
"# c #F8E028",
"$ c #8060F8",
"% c #90D898",
"& c #A0F8A8",
"* c #F8F8A0",
"= c #A080F8",
"- c #C0A0F8",
"; c #E0C0F8",
": c #F8F8E0",
/* pixels */
"...............................XXX..............................",
"...............................XXX..............................",
".............................XX***XX............................",
".............................XX***XX............................",
"...........................XX@@OOO@@XX..........................",
"...........................XX@@OOO@@XX..........................",
"...........................XXXX+++XXXX..........................",
"...........................XXXX+++XXXX..........................",
".........................XXXXXX%%%XXXXXX........................",
".........................XXXXXX%%%XXXXXX........................",
".....................XXXX....XX+++XX....XXXX....................",
".....................XXXX....XX+++XX....XXXX....................",
"...................XX....XXXXooOOOooXXXX....XX..................",
"...................XX....XXXXooOOOooXXXX....XX..................",
".......................XX##XX@@***@@XX##XX......................",
".......................XX##XX@@***@@XX##XX......................",
"...................XXXXoo**oo##ooo##oo**ooXXXX..................",
"...................XXoo@@##ooXXO::XXoo##@@ooXX..................",
"...................XXoo@@##ooXXO::XXoo##@@ooXX..................",
".................XXXX**@@XXXXOOO::::XXXX@@**XXXX................",
".................XXXX**@@XXXXOOO::::XXXX@@**XXXX................",
".................XXXX**XX..XXOOO::::XX..XX**XXXX................",
".................XXXX**XX..XXOOO::::XX..XX**XXXX................",
"...................XXXX....XXOOO::::XX....XXXX..................",
"...................XXXX....XXOOO::::XX....XXXX..................",
".................XX....XXXXXX++O::;;XXXXXX....XX................",
".................XX....XXXXXX++O::;;XXXXXX....XX................",
".................XXooXXOOXXXX%%+;;--XXXXOOXXooXX................",
".................XXooXXOOXXXX%%+;;--XXXXOOXXooXX................",
"...................XXXXXX..XX&&%--==XX..XXXXXX..................",
"...................XXXXXX..XX&&%--==XX..XXXXXX..................",
".................XX##XX....XX::&==$$XX....XX##XX................",
".................XX##XX....XX::&==$$XX....XX##XX................",
".................XX##XXXX..XX&&:$$==XX..XXXX##XX................",
".................XX##XXXX..XX&&:$$==XX..XXXX##XX................",
".................XXXXXX..XXXX%%&==--XXXX..XXXXXX................",
".................XXXXXX..XXXX%%&==--XXXX..XXXXXX................",
".....................XXXX..XX++%--;;XX..XXXX....................",
".....................XXXX..XX++%--;;XX..XXXX....................",
".................XX......XXXXOO%--::XXXX......XX................",
".................XX......XXXXOO%--::XXXX......XX................",
".................XXXXXXXX..XXOO+;;;;XX..XXXXXXXX................",
".................XXXXXXXX..XXOO+;;;;XX..XXXXXXXX................",
".................XXXXXXXXXXXXOOO::==XXXXXXXXXXXX................",
".................XXXXXXXXXXXXOOO::==XXXXXXXXXXXX................",
".................XX##::XX::XXOOO::$$XX::XX::##XX................",
".................XX##::XX::XXOOO::$$XX::XX::##XX................",
".................XX++XXoooo&&XXO;;XX&&ooooXX++XX................",
".................XX++XXXXXX&&XXO==XX&&XXXXXX++XX................",
".................XX++XXXXXX&&XXO==XX&&XXXXXX++XX................",
".................XX%%XX....XX..XXX..XX....XX%%XX................",
".................XX%%XX....XX..XXX..XX....XX%%XX................",
"...........XX....ooXX......    XXX    ......XXoo....XX..........",
"...........XX....ooXX......    XXX    ......XXoo....XX..........",
".........XX##XXXX##OOXX                   XXOO##XXXX##XX........",
".........XX##XXXX##OOXX                   XXOO##XXXX##XX........",
".........XX####OOOOXX                       XXOOOO####XX........",
".........XX####OOOOXX                       XXOOOO####XX........",
".........XX++++++XX..                       ..XX++++++XX........",
".........XX++++++XX..                       ..XX++++++XX........",
"...........XXXXXX......                   ......XXXXXX..........",
"...........XXXXXX......                   ......XXXXXX..........",
"...........................           ..........................",
"...........................           .........................."
};
