/* XPM */
static char *result[] = {
/* columns rows colors chars-per-pixel */
"64 64 26 1 ",
"  c #3B4D2A",
". c #394A28",
"X c #374827",
"o c #364726",
"O c #344525",
"+ c #354625",
"@ c #394B29",
"# c #3A4C29",
"$ c #324323",
"% c #334323",
"& c #324223",
"* c #334324",
"= c #334424",
"- c #344424",
"; c #384927",
": c #384A28",
"> c #364626",
", c #344425",
"< c #354626",
"1 c #384827",
"2 c #354525",
"3 c #324324",
"4 c #384928",
"5 c #384A29",
"6 c #3A4B29",
"7 c white",
/* pixels */
"                                                                ",
"                                                                ",
"                                                                ",
"                                                                ",
"                                                                ",
"                                                                ",
"         ..XoO+X@..@#                                           ",
"         o$%&&&*=**-X                             #;;:          ",
"         o&&&$&&&&&&X                             #o-;          ",
"         X-=O>O*-,,<;                             #Xo;          ",
"              ...               :;;#               ###          ",
"                                ;-o#                            ",
"                                ;oX#                            ",
"                                ###                             ",
"                                                                ",
"                                                                ",
"                                                                ",
"                                                                ",
"                                                                ",
"                                                   #::.         ",
"                                                 1o,=*2;        ",
"                                                 o3*&$&*=-2;    ",
"                                                 o*=+-$&&&&X    ",
"                                                 .44 @O&&$-X    ",
"                                                      ;++X##    ",
"                                                                ",
"                           ..4X2<;                              ",
"                           o***&&O.                             ",
"                           +&&&*&$<                             ",
"                           o$&*+O&<                             ",
"           ..@             @ooX XXX                             ",
"          #o2;                                                  ",
"          #o2;                                                  ",
"           ..@                                                  ",
"                                                                ",
"                                                                ",
"                                       #..#                     ",
"                                       .<<.                     ",
"                                       .<<.          :;;#       ",
"                                       #..#          ;-o#       ",
"                                                     ;oX#       ",
"                                                     ###        ",
"                                                                ",
"                                                                ",
"                                                                ",
"                                                                ",
"                                                                ",
"                                                                ",
"             o22:             :;;#                              ",
"           .X-&&*o#           ;-o#                              ",
"         5o*$&&&&$=-<.        ;oX#                              ",
"         X*&&&-%&&&&*X        ###                               ",
"         X*%*2.X+*&&*X                                          ",
"         @4;6#   .X<X.                          ###.::#         ",
"                                               ;2****=,o5       ",
"                                               X&&&&&&&*X       ",
"                                               XO$&&-O**X       ",
"                                               ##X++:#44@       ",
"                                                                ",
"                                                                ",
"                                                                ",
"                                                                ",
"                                                                ",
"                                                                "
};
