/* XPM */
static char *result[] = {
/* columns rows colors chars-per-pixel */
"64 64 40 1 ",
"  c black",
". c #181818",
"X c #3D2C0B",
"o c gray20",
"O c #401C00",
"+ c #2E401E",
"@ c #2E411E",
"# c #2E411F",
"$ c #30411E",
"% c #30411F",
"& c #30421F",
"* c #31421F",
"= c #314220",
"- c #314320",
"; c #324320",
": c #324420",
"> c #324421",
", c #334421",
"< c #334521",
"1 c #344622",
"2 c #354622",
"3 c #354722",
"4 c #354723",
"5 c #354923",
"6 c #364923",
"7 c #354924",
"8 c #364A24",
"9 c #374B24",
"0 c #384C25",
"q c #5D4510",
"w c #7D5400",
"e c #4C4B4A",
"r c #7E7C77",
"t c #854625",
"y c #C7AB00",
"u c #DA803E",
"i c #F6AB53",
"p c #A39F97",
"a c #BFBCB6",
"s c #E9E9E9",
/* pixels */
"000000000000000000000000000000     00000000000000000000000000000",
"000000000000000000000000000000     00000000000000000000000000000",
"000000000000000000000000000000     00000000000000000000000000000",
"000000000000000000000000000000     00000000000000000000000000000",
"000000000000000000000000000000     00000000000000000000000000000",
"0000000000000000000000000     yyyyy    0000000000000000000000000",
"000000000661<-:1866890000     yyyyy    0000000000000000000000000",
"000000000<@$+++%&%%*100  wwwwwyyyyywwww   0000000093350000000000",
"000000000<+++@++++++100  wwwwwyyyyywwww   000000009<*30000000000",
"0000000001*&-,-%*==>300  wwwwwyyyyywwww   0000000091<30000000000",
"00000000000000666000000  wwwwwwwwwwwwww   0000000009990000000000",
"00000000000000000000000  wwwwwwwwwwwwww   0000000000000000000000",
"00000000000000000000000  wwwwwwwwwwwwww   0000000000000000000000",
"00000000000000000000000  OOOOOwwwwwOOOO   0000000000000000000000",
"00000000000000000000000  OOOOOwwwwwOOOO   0000000000000000000000",
"00000000000000000000000  OOOOOwwwwwOOOO   0000000000000000000000",
"00000000000000000000000  OOOOOwwwwwOOOO   0000000000000000000000",
"00000000000000000000   .......OOOOO.......  00000000000000000000",
"00000000000000000000   .......OOOOO.......  00000000000000000000",
"0000000000000000    ...ooeeeeerrrrreeeeooo..    0009556000000000",
"0000000000000000    ...ooeeeeerrrrreeeeooo..    02<=&%;300000000",
"0000000000000000    ...ooeeeeerrrrreeeeooo..    0<#%+@+%&*;30000",
"0000000000000000    ...ooeeeeerrrrreeeeooo..    0<%&:*@++++10000",
"00000000000000  ....oooeeeeeeepppppeeeeeeeoo....    08-++@*10000",
"00000000000000  ....oooeeeeeeepppppeeeeeeeoo....    003::1990000",
"00000000000000  ....oooeeeeeeepppppeeeeeeeoo....    000000000000",
"00000000000000  rrrrrrrooeeeeerrrrreeeeooorrrrrr    000000000000",
"00000000000000  rrrrrrrooeeeeerrrrreeeeooorrrrrr    000000000000",
"00000000000000  rrrrrrrooeeeeerrrrreeeeooorrrrrr    000000000000",
"00000000000000  rrrrrrrooeeeeerrrrreeeeooorrrrrr    000000000000",
"00000000000668  eeeerrrpppppppaaaaappppppprreeee    000000000000",
"00000000009<;3  eeeerrrpppppppaaaaappppppprreeee    000000000000",
"00000000009<;3  ....pppppaaaaaaaaaaaaaappppp....    000000000000",
"00000000000668  ....pppppaaaaaaaaaaaaaappppp....    000000000000",
"0000000000000000    ...oooooooeeeeeooooooo..    0000000000000000",
"0000000000000000    ...oooooooeeeeeooooooo..    0000000000000000",
"0000000000000000    ...oooooooeeeeeooooooo..    0000000000000000",
"0000000000000000    ...oooooooeeeeeooooooo..    0000000000000000",
"0000000000000000    ...oooooooeeeeeooooooo..    0000053390000000",
"0000000000000000    eeess     rrrrr    sssee    000003*<90000000",
"0000000000000000    eeess     rrrrr    sssee    000003<190000000",
"0000000000000000    eeess     rrrrr    sssee    0000099900000000",
"0000000000000000    oooeeiiiiieeeeeiiiieeeoo    0000000000000000",
"0000000000000000    oooeeiiiiieeeeeiiiieeeoo    0000000000000000",
"0000000000000000    oooeeiiiiieeeeeiiiieeeoo    0000000000000000",
"00000000000000  rrrrrrroottttttttttttttooorrrrrr    000000000000",
"00000000000000  rrrrrrroottttttttttttttooorrrrrr    000000000000",
"00000000000000  rrrrrrroottttttttttttttooorrrrrr    000000000000",
"0000000000000<  rrrrrrroottttttttttttttooorrrrrr    000000000000",
"0000000000    iiiiii   eerrrrrrrrrrrrrreee  iiiiiiii   000000000",
"0000000007    iiiiii   eerrrrrrrrrrrrrreee  iiiiiiii   000000000",
"0000000001    iiuuuu   eeeeeeeeeeeeeeeeeee  uuuuiiii   000000000",
"0000000001    iiuuuu   eeeeeeeeeeeeeeeeeee  uuuuiiii   000000000",
"0000000008    iiuuuu   eeeeeeeeeeeeeeeeeee  uuuuiiii   000000000",
"0000000000    iiuuuu   eeeeeeeeeeeeeeeeeee  uuuuiiii   <70000000",
"00000000000000         ooeeeeeeeeeeeeeeooo          +++%10000000",
"00000000000000         ooeeeeeeeeeeeeeeooo          *-%%10000000",
"00000000000000000000   XXXXXXX     XXXXXXX  000991::594480000000",
"00000000000000000000   XXXXXXX     XXXXXXX  00000000000000000000",
"00000000000000000000   XXXXXXX     XXXXXXX  00000000000000000000",
"00000000000000000000   XXXXXXX     XXXXXXX  00000000000000000000",
"00000000000000000000   XXXXXXX     XXXXXXX  00000000000000000000",
"00000000000000000000   qqqqqqq     qqqqqqq  00000000000000000000",
"00000000000000000000   qqqqqqq     qqqqqqq  00000000000000000000"
};
