/* XPM */
static char *result[] = {
/* columns rows colors chars-per-pixel */
"64 64 40 1 ",
"  c black",
". c #181818",
"X c #3D2C0B",
"o c gray20",
"O c #401C00",
"+ c #2E401E",
"@ c #2E411E",
"# c #2E411F",
"$ c #30411E",
"% c #30411F",
"& c #30421F",
"* c #31421F",
"= c #314220",
"- c #314320",
"; c #324320",
": c #324420",
"> c #324421",
", c #334421",
"< c #334521",
"1 c #344622",
"2 c #354622",
"3 c #354722",
"4 c #354723",
"5 c #354923",
"6 c #364923",
"7 c #354924",
"8 c #364A24",
"9 c #374A24",
"0 c #374B24",
"q c #384C25",
"w c #5D4510",
"e c #7D5400",
"r c #4C4B4A",
"t c #7E7C77",
"y c #C7AB00",
"u c #DA803E",
"i c #F6AB53",
"p c #A39F97",
"a c #BFBCB6",
"s c #E9E9E9",
/* pixels */
"qqqqqqqqqqqqqqqqqqqqqqqqqqqqq             qqqqqqqqqqqqqqqqqqqqqq",
"qqqqqqqqqqqqqqqqqqqqqqqqqqqqq             qqqqqqqqqqqqqqqqqqqqqq",
"qqqqqqqqqqqqqqqqqqqqqqqqqqqqq             qqqqqqqqqqqqqqqqqqqqqq",
"qqqqqqqqqqqqqqqqqqqqqqqqqq   yyyyyyyyyyeee   qqqqqqqqqqqqqqqqqqq",
"qqqqqqqqqqqqqqqqqqqqqqqqqq   yyyyyyyyyyeee   qqqqqqqqqqqqqqqqqqq",
"qqqqqqqqqqqqqqqqqqqqqqqqqq   yyyyyyyyyyeee   qqqqqqqqqqqqqqqqqqq",
"qqqqqqqqq661<-:186680qqqqq   yyyyyyyyyyeee   qqqqqqqqqqqqqqqqqqq",
"qqqqqqqqq<@$+++%&%%*1qq   eeeyyyyyyyyyyyyyeee   qq0335qqqqqqqqqq",
"qqqqqqqqq<+++@++++++1qq   eeeyyyyyyyyyyyyyeee   qq0<*3qqqqqqqqqq",
"qqqqqqqqq1*&-,-%*==>3qq   eeeyyyyyyyyyyyyyeee   qq01<3qqqqqqqqqq",
"qqqqqqqqqqqqqq666qqqqqq   eeeeeeeeeeeeeOOOOOOOOO   000qqqqqqqqqq",
"qqqqqqqqqqqqqqqqqqqqqqq   eeeeeeeeeeeeeOOOOOOOOO   qqqqqqqqqqqqq",
"qqqqqqqqqqqqqqqqqqqqqqq   eeeeeeeeeeeeeOOOOOOOOO   qqqqqqqqqqqqq",
"qqqqqqqqqqqqqqqqqqqqqqq   OOOeeeeeeOOOOOOOOOOOOO   qqqqqqqqqqqqq",
"qqqqqqqqqqqqqqqqqqqqqqq   OOOeeeeeeOOOOOOOOOOOOO   qqqqqqqqqqqqq",
"qqqqqqqqqqqqqqqqqqqqqqq   OOOeeeeeeOOOOOOOOOOOOO   qqqqqqqqqqqqq",
"qqqqqqqqqqqqqqqqqqqq      ......OOO.......         qqqqqqqqqqqqq",
"qqqqqqqqqqqqqqqqqqqq      ......OOO.......         qqqqqqqqqqqqq",
"qqqqqqqqqqqqqqqqqqqq      ......OOO.......         qqqqqqqqqqqqq",
"qqqqqqqqqqqqqqqq    ooorrrttttttrrrooooooo...   qqq0556qqqqqqqqq",
"qqqqqqqqqqqqqqqq    ooorrrttttttrrrooooooo...   q2<=&%;3qqqqqqqq",
"qqqqqqqqqqqqqqqq    ooorrrttttttrrrooooooo...   q<#%+@+%&*;3qqqq",
"qqqqqqqqqqqqqqqq    ooorrrttttttrrrooooooo...   q<%&:*@++++1qqqq",
"qqqqqqqqqqqqq   oooorrrpppppprrrrrrrrrrooo......   4q8-++@*1qqqq",
"qqqqqqqqqqqqq   oooorrrpppppprrrrrrrrrrooo......   qqq3::100qqqq",
"qqqqqqqqqqqqq   oooorrrpppppprrrrrrrrrrooo......   qqqqqqqqqqqqq",
"qqqqqqqqqqqqq   ppppaaatttrrrrrroootttttttrrrrrr   qqqqqqqqqqqqq",
"qqqqqqqqqqqqq   ppppaaatttrrrrrroootttttttrrrrrr   qqqqqqqqqqqqq",
"qqqqqqqqqqqqq   ppppaaatttrrrrrroootttttttrrrrrr   qqqqqqqqqqqqq",
"qqqqqqqqqqqqq   aaaaaaaaaapppppppppttttrrrrrrooo   qqqqqqqqqqqqq",
"qqqqqqqqqqq66   aaaaaaaaaapppppppppttttrrrrrrooo   qqqqqqqqqqqqq",
"qqqqqqqqqq0<;   aaaaaaaaaapppppppppttttrrrrrrooo   qqqqqqqqqqqqq",
"qqqqqqqqqq0<;   ooooaaaaaaaaapppppppppp.........   qqqqqqqqqqqqq",
"qqqqqqqqqqq66   ooooaaaaaaaaapppppppppp.........   qqqqqqqqqqqqq",
"qqqqqqqqqqqqq   ooooaaaaaaaaapppppppppp.........   qqqqqqqqqqqqq",
"qqqqqqqqqqqqqqqq    rrrrrrrrrooo................   qqqqqqqqqqqqq",
"qqqqqqqqqqqqqqqq    rrrrrrrrrooo................   qqqqqqqqqqqqq",
"qqqqqqqqqqqqqqqq    rrrrrrrrrooo................   qqqqqqqqqqqqq",
"qqqqqqqqqqqqqqqq    rrrrrrrrrooo................   qq5330qqqqqqq",
"qqqqqqqqqqqqqqqq    ttt   sssrrrooooooo......   qqqqq3*<0qqqqqqq",
"qqqqqqqqqqqqqqqq    ttt   sssrrrooooooo......   qqqqq3<10qqqqqqq",
"qqqqqqqqqqqqqqqq    ttt   sssrrrooooooo......   qqqqq000qqqqqqqq",
"qqqqqqqqqqqqqqqq    rrriiirrrooooooooooooo   qqqqqqqqqqqqqqqqqqq",
"qqqqqqqqqqqqqqqq    rrriiirrrooooooooooooo   qqqqqqqqqqqqqqqqqqq",
"qqqqqqqqqqqqqqqq    rrriiirrrooooooooooooo   qqqqqqqqqqqqqqqqqqq",
"qqqqqqqqqqqqqqqq       oooooottttttrrrr   qqqqqqqqqqqqqqqqqqqqqq",
"qqqqqqqqqqqqqqqq       oooooottttttrrrr   qqqqqqqqqqqqqqqqqqqqqq",
"qqqqqqqqqqqqqqqq       oooooottttttrrrr   qqqqqqqqqqqqqqqqqqqqqq",
"qqqqqqqqqqqqq<;;5qqq   rrrrrrttttttrrrr   qqqqqqqqqqqqqqqqqqqqqq",
"qqqqqqqqqqq61*++%<0q   rrrrrrttttttrrrr   qqqqqqqqqqqqqqqqqqqqqq",
"qqqqqqqqq7<%@++++@&*   rrrrrrttttttrrrr   qqqqqqqqqqqqqqqqqqqqqq",
"qqqqqqqqq1%+++*$++++   rrr   iiiiii       qqqqqqqqqqqqqqqqqqqqqq",
"qqqqqqqqq1%$%;61:%++   rrr   iiiiii       qqqqqqqqqqqqqqqqqqqqqq",
"qqqqqqqqq84390qqq61>   rrr   iiiiii       qqqqqq0006550qqqqqqqqq",
"qqqqqqqqqqqqqqqqqqqq   rrr   iiiiii       qqqqq3;%%%%&=<7qqqqqqq",
"qqqqqqqqqqqqqqqqqqqq   ooo   uuuiii       qqqqq1+++++++%1qqqqqqq",
"qqqqqqqqqqqqqqqqqqqq   ooo   uuuiii       qqqqq1-@++*-%%1qqqqqqq",
"qqqqqqqqqqqqqqqqqqqq   ooo   uuuiii       qqqqq001::50448qqqqqqq",
"qqqqqqqqqqqqqqqqqqqqqqq   XXX          qqqqqqqqqqqqqqqqqqqqqqqqq",
"qqqqqqqqqqqqqqqqqqqqqqq   XXX          qqqqqqqqqqqqqqqqqqqqqqqqq",
"qqqqqqqqqqqqqqqqqqqqqqq   XXX          qqqqqqqqqqqqqqqqqqqqqqqqq",
"qqqqqqqqqqqqqqqqqqqqqqq   wwwwwwwww    qqqqqqqqqqqqqqqqqqqqqqqqq",
"qqqqqqqqqqqqqqqqqqqqqqq   wwwwwwwww    qqqqqqqqqqqqqqqqqqqqqqqqq",
"qqqqqqqqqqqqqqqqqqqqqqq   wwwwwwwww    qqqqqqqqqqqqqqqqqqqqqqqqq"
};
