/* XPM */
static char *result[] = {
/* columns rows colors chars-per-pixel */
"64 64 33 1 ",
"  c gray9",
". c #2E2415",
"X c #213F2F",
"o c #4F3712",
"O c #2E401E",
"+ c #2E411E",
"@ c #30411E",
"# c #30411F",
"$ c #30421F",
"% c #31421F",
"& c #314220",
"* c #314320",
"= c #324320",
"- c #324420",
"; c #324421",
": c #334421",
"> c #334521",
", c #344622",
"< c #354722",
"1 c #354723",
"2 c #354923",
"3 c #364923",
"4 c #354924",
"5 c #364A24",
"6 c #374A24",
"7 c #374B24",
"8 c #384C25",
"9 c #346B3D",
"0 c #644F1B",
"q c #7B642E",
"w c #598C46",
"e c #77A947",
"r c #93C147",
/* pixels */
"8888888888888888888888888888        8888888888888888888888888888",
"8888888888888888888888888888        8888888888888888888888888888",
"8888888888888888888888888888        8888888888888888888888888888",
"8888888888888888888888888888        8888888888888888888888888888",
"888888888888888888888888    rrrrrrrr    888888888888888888888888",
"888888888888888888888888    rrrrrrrr    888888888888888888888888",
"88888888833,>*-,53357888    rrrrrrrr    888888888888888888888888",
"888888888>+@OOO#$##%,888    rrrrrrrr    88888888887<<28888888888",
"888888888>OOO+OOOOOO    wwwwrrrrrrrrwwww    8888887>%<8888888888",
"888888888,%$*:*#%&&;    wwwwrrrrrrrrwwww    8888887,><8888888888",
"88888888888888333888    wwwwrrrrrrrrwwww    88888887778888888888",
"88888888888888888888    wwwwrrrrrrrrwwww    88888888888888888888",
"88888888888888888888    eeeeeeeeeeeeeeee    88888888888888888888",
"88888888888888888888    eeeeeeeeeeeeeeee    88888888888888888888",
"88888888888888888888    eeeeeeeeeeeeeeee    88888888888888888888",
"88888888888888888888    eeeeeeeeeeeeeeee    88888888888888888888",
"8888888888888888    9999wwwweeeeeeeewwww9999    8888888888888888",
"8888888888888888    9999wwwweeeeeeeewwww9999    8888888888888888",
"8888888888888888    9999wwwweeeeeeeewwww9999    8888888888888888",
"8888888888888888    9999wwwweeeeeeeewwww9999    8887223888888888",
"888888888888    XXXXwwwwwwwwwwwwwwwwwwwwwwwwXXXX    $#=<88888888",
"888888888888    XXXXwwwwwwwwwwwwwwwwwwwwwwwwXXXX    O+O#$%=<8888",
"888888888888    XXXXwwwwwwwwwwwwwwwwwwwwwwwwXXXX    -%+OOOO,8888",
"888888888888    XXXXwwwwwwwwwwwwwwwwwwwwwwwwXXXX    85*OO+%,8888",
"888888888888    99999999wwwwwwwwwwwwwwww99999999    88<--,778888",
"888888888888    99999999wwwwwwwwwwwwwwww99999999    888888888888",
"888888888888    99999999wwwwwwwwwwwwwwww99999999    888888888888",
"888888888888    99999999wwwwwwwwwwwwwwww99999999    888888888888",
"888888888888    99999999999999999999999999999999    888888888888",
"888888888888    99999999999999999999999999999999    888888888888",
"888888888883    99999999999999999999999999999999    888888888888",
"88888888887>    99999999999999999999999999999999    888888888888",
"88888888887>    XXXX999999999999999999999999XXXX    888888888888",
"888888888883    XXXX999999999999999999999999XXXX    888888888888",
"888888888888    XXXX999999999999999999999999XXXX    888888888888",
"888888888888    XXXX999999999999999999999999XXXX    888888888888",
"888888888888    XXXXXXXXXXXXXXXXXXXXXXXXXXXXXXXX    888888888888",
"888888888888    XXXXXXXXXXXXXXXXXXXXXXXXXXXXXXXX    888888888888",
"888888888888    XXXXXXXXXXXXXXXXXXXXXXXXXXXXXXXX    82<<78888888",
"888888888888    XXXXXXXXXXXXXXXXXXXXXXXXXXXXXXXX    8<%>78888888",
"8888888888888888    XXXXXXXXXXXXXXXXXXXXXXXX    88888<>,78888888",
"8888888888888888    XXXXXXXXXXXXXXXXXXXXXXXX    8888877788888888",
"8888888888888888    XXXXXXXXXXXXXXXXXXXXXXXX    8888888888888888",
"8888888888888888    XXXXXXXXXXXXXXXXXXXXXXXX    8888888888888888",
"88888888888888888888    ....oooooooo....    88888888888888888888",
"88888888888888888888    ....oooooooo....    88888888888888888888",
"88888888888888888888    ....oooooooo....    88888888888888888888",
"88888888888888888888    ....oooooooo....    88888888888888888888",
"8888888888888>==2888....oooo00000000oooo....88888888888888888888",
"888888888883,%OO#>78....oooo00000000oooo....88888888888888888888",
"8888888884>#+OOOO+$%....oooo00000000oooo....88888888888888888888",
"888888888,#OOO%@OOOO....oooo00000000oooo....88888888888888888888",
"888888888,#@#=3,-#OO#,88....qqqqqqqq....888888888888888888888888",
"88888888851<678883,;,388....qqqqqqqq....888888887773227888888888",
"888888888888888888888888....qqqqqqqq....8888888<=####$&>48888888",
"888888888888888888888888....qqqqqqqq....8888888,OOOOOOO#,8888888",
"88888888888888888888888888888888888888888888888,*+OO%*##,8888888",
"8888888888888888888888888888888888888888888888877,--271158888888",
"8888888888888888888888888888888888888888888888888888888888888888",
"8888888888888888888888888888888888888888888888888888888888888888",
"8888888888888888888888888888888888888888888888888888888888888888",
"8888888888888888888888888888888888888888888888888888888888888888",
"8888888888888888888888888888888888888888888888888888888888888888",
"8888888888888888888888888888888888888888888888888888888888888888"
};
