/* XPM */
static char *ezgif_6_6149021ca9[] = {
/* columns rows colors chars-per-pixel */
"48 48 142 2 ",
"   c #2E401E",
".  c #2F401E",
"X  c #2F411E",
"o  c #2F411F",
"O  c #2F421F",
"+  c #30411E",
"@  c #30411F",
"#  c #30421F",
"$  c #31421F",
"%  c #314320",
"&  c #324320",
"*  c #314420",
"=  c #324420",
"-  c #334420",
";  c #324520",
":  c #324421",
">  c #334421",
",  c #324521",
"<  c #334521",
"1  c #334621",
"2  c #344621",
"3  c #344622",
"4  c #344722",
"5  c #354722",
"6  c #344822",
"7  c #354822",
"8  c #354823",
"9  c #354923",
"0  c #364923",
"q  c #364A23",
"w  c #364924",
"e  c #354B25",
"r  c #364A24",
"t  c #374A24",
"y  c #374B24",
"u  c #364B25",
"i  c #374B25",
"p  c #3C4A20",
"a  c #3C4A21",
"s  c #3D4B21",
"d  c #3B4C23",
"f  c #3E4C22",
"g  c #3F4E23",
"h  c #384B25",
"j  c #384C25",
"k  c #394C25",
"l  c #3B4D24",
"z  c #3C4E24",
"x  c #3D4E24",
"c  c #3F4F24",
"v  c #625D1E",
"b  c #635D1E",
"n  c #665F1D",
"m  c #6D631F",
"M  c #404F24",
"N  c #6E6421",
"B  c #6E6522",
"V  c #836913",
"C  c #846A15",
"Z  c #846A16",
"A  c #8B6B10",
"S  c #8B6B11",
"D  c #8B6C12",
"F  c #8B6C13",
"G  c #8B6D13",
"H  c #8B6C14",
"J  c #8B6D14",
"K  c #8B6D15",
"L  c #8C6D15",
"P  c #8C6D16",
"I  c #8F6F16",
"U  c #8F7016",
"Y  c #987314",
"T  c #9D781A",
"R  c #9E7A1E",
"E  c #9E7B20",
"W  c #AE8C2E",
"Q  c #B18A23",
"!  c #B18B23",
"~  c #B18B24",
"^  c #B28B25",
"/  c #B28D27",
"(  c #B38D29",
")  c #B38E2A",
"_  c #B48F2C",
"`  c #B4902E",
"'  c #B4902F",
"]  c #B59233",
"[  c #B69337",
"{  c #B7963B",
"}  c #D0A738",
"|  c #D0A739",
" . c #D1A83B",
".. c #D1A93D",
"X. c #B99842",
"o. c #BA9A45",
"O. c #BA9B47",
"+. c #B5984A",
"@. c #BB9B48",
"#. c #BB9D4B",
"$. c #BC9E4F",
"%. c #BDA053",
"&. c #BDA054",
"*. c #BEA257",
"=. c #BBA464",
"-. c #D2AC42",
";. c #D2AC43",
":. c #D1AD4C",
">. c #D5B04B",
",. c #D5B14E",
"<. c #D6B14F",
"1. c #D2AF50",
"2. c #D6B150",
"3. c #D6B250",
"4. c #D7B456",
"5. c #D8B65A",
"6. c #D9B85E",
"7. c #C0A660",
"8. c #C3AA69",
"9. c #C3AB6C",
"0. c #DBBA64",
"q. c #DCBE6A",
"w. c #DDBE6C",
"e. c #C4AD70",
"r. c #C6B077",
"t. c #DEC171",
"y. c #DFC376",
"u. c #DCC27B",
"i. c #E0C478",
"p. c #E1C77E",
"a. c #CAB785",
"s. c #E3CA86",
"d. c #E5CD8D",
"f. c #E7D095",
"g. c #ECD9A8",
"h. c #E9D8AC",
"j. c #F0E0B8",
"k. c #F1E2BC",
"l. c #F1E3BE",
"z. c #F3E5C3",
"x. c #F6EBD1",
"c. c #FCF7EC",
/* pixels */
"j j j j j j j j j j j j j j j j j j j j j j j j j j j j j j j j j j j j j j j j j j j j j j j j ",
"j j j j j j j j j j j j j j j j j j j j j j j j j j j j j j j j j j j j j j j j j j j j j j j j ",
"j j j j j j j j j j j j j j j j j j j j j j j j j j j j j j j j j j j j j j j j j j j j j j j j ",
"j j j j j j j j j j j j j j j j j j j j j j j j j j j j j j j j j j j j j j j j j j j j j j j j ",
"j j j j j j j y y 8 8 8 y y y j j j j j j j j j j j j j j j j j j j j j j j j j j j j j j j j j ",
"j j j j j j y ; # o o # ; % ; 8 j j j j j j j j j j j j j j j j j j j j j j 8 8 y j j j j j j j ",
"j j j j j j y % o o o o o o o 5 j j j j j j j j j j j j j j j j j j j j j h 5 ; 8 j j j j j j j ",
"j j j j j j y 8 5 8 5 ; 5 5 8 y j j j j j j j j y 8 y j j j j j j j j j j j 8 8 y j j j j j j j ",
"j j j j j j j j j j j h j j j j j j j j j j j j 5 ; 8 j j j j j j j j j j j j j j j j j j j j j ",
"j j j j j j j j j j j j j j j j j j j j j j j j 8 5 y j j j j j j j j j j j j j j j j j j j j j ",
"j j j j j j j j j j j j j j j j j j j j j j j j y y j j j j j j j j j j j j j j j j j j j j j j ",
"j j j j j j j j j j j j j j j j j j j j j j z M M z j j j j j j j j j j j j j j j j j j j j j j ",
"j j j j j j j j j j j j j j j j j j j j j y b U U b y j j j j j j j j j j j j j j j j j j j j j ",
"j j j j j j j j j j j j j j j j j j j j j y n Y Y n y j j j j j j j j j j j j j j j j j j j j j ",
"j j j j j j j j j j j j j j j j j j j j j z m T E B z j j j j j j j j j j j y 8 8 y j j j j j j ",
"j j j j j j j j j j j j j j j j j j j j z Z W 1.h.=.V z j j j j j j j j y ; % # # ; 8 y y j j j ",
"j j j j j j j j j j j j j j j j j j j j M L ` 5.c.a.A M j j j j j j j j y % # # o o o # 5 j j j ",
"j j j j j j j j j j j j j j j j j j j j M L ) ,.x.r.D M j j j j j j j j y 5 5 8 ; o o o 5 j j j ",
"j j j j j j j j j j j j j j j j j j j j M L ) ,.z.e.D M j j j j j j j j j j j j y 5 ; 8 y j j j ",
"j j j j j j j j j j j j j j j j j j j j f H ` 4.k.9.D M j j j j j j j j j j j j j j j j j j j j ",
"j j j j j j j j j j j j j j j j j j j j s H ] 6.k.9.D M j j j j j j j j j j j j j j j j j j j j ",
"j j j j j j j j j j j j j j j j j j j j s H [ 0.j.8.D M j j j j j j j j j j j j j j j j j j j j ",
"j j j j j j j j y y j j j j j j j j j j f H { q.g.7.D M j j j j j j j j j j j j j j j j j j j j ",
"j j j j j j j j 5 ; y j j j j j j j j j M H ` 3.f.*.D M j j j j j j j j j j j j j j j j j j j j ",
"j j j j j j j j 5 ; y j j j j j j j j j M L / ;.d.*.D M j j j j j j j j j j j j j j j j j j j j ",
"j j j j j j j j y y h j j j j j j j j j M L !  .d.*.D M j j j j j j j j j j j j j j j j j j j j ",
"j j j j j j j j j j j j j j j j j j j j M H ` 3.s.$.D M j j j j j j j j j j j j j j j j j j j j ",
"j j j j j j j j j j j j j j j j j j j j M L ~ ..i.@.H M j y 8 8 j j j j j j j j j j j j j j j j ",
"j j j j j j j j j j j j j j j j j j j j M L ! | t.o.H M j 8 ; 5 h j j j j j j j y y h j j j j j ",
"j j j j j j j j j j j j j j j j j j j j M L ~ | w.X.H M j y 8 8 j j j j j j j y ; ; y j j j j j ",
"j j j j j j j j j j j j j j j j j j j j M L ) ;.y.o.H M j j j j j j j j j j j y 5 5 y j j j j j ",
"j j j j j j j j j j j j j j j j j j j j M L _ >.p.#.D M j j j j j j j j j j j j h j j j j j j j ",
"j j j j j j j j j j j j j j j j j j j j z Z W :.u.+.Z z j j j j j j j j j j j j j j j j j j j j ",
"j j j j j j j j j j j j j j j j j j j j j z m T R B z j j j j j j j j j j j j j j j j j j j j j ",
"j j j j j j j j j j j j j j j j j j j j j y n Y Y n y j j j j j j j j j j j j j j j j j j j j j ",
"j j j j j j j j j j h h j j j j j j j j j y b L L b y j j j j j j j j j j j j j j j j j j j j j ",
"j j j j j j j j j 8 ; % 8 y j j j j j j j j d s s z j j j j j j j j j j j j j j j j j j j j j j ",
"j j j j j j j y ; % o o o ; 5 8 y j j j j j y ; 5 y j j j j j j j j j j j j j j j j j j j j j j ",
"j j j j j j y ; o o o # o o o % y j j j j j y 8 y j j j j j j j j j j j j j j j j j j j j j j j ",
"j j j j j j y ; # % 5 8 ; # o % y j j j j j j j j j j j j j j j j j j j j j j y j j j j j j j j ",
"j j j j j j j y y y j j j y 8 y h j j j j j j j j j j j j j j j j j j y 5 ; ; ; ; 8 y j j j j j ",
"j j j j j j j j j j j j j j j j j j j j j j j j j j j j j j j j j j j 5 o o o o o # 8 j j j j j ",
"j j j j j j j j j j j j j j j j j j j j j j j j j j j j j j j j j j j 8 ; o o ; ; % 8 j j j j j ",
"j j j j j j j j j j j j j j j j j j j j j j j j j j j j j j j j j j j j y 8 8 y y y y j j j j j ",
"j j j j j j j j j j j j j j j j j j j j j j j j j j j j j j j j j j j j j j j j j j j j j j j j ",
"j j j j j j j j j j j j j j j j j j j j j j j j j j j j j j j j j j j j j j j j j j j j j j j j ",
"j j j j j j j j j j j j j j j j j j j j j j j j j j j j j j j j j j j j j j j j j j j j j j j j ",
"j j j j j j j j j j j j j j j j j j j j j j j j j j j j j j j j j j j j j j j j j j j j j j j j "
};
