/* XPM */
static char *ezgif_6_d9ea4423ff[] = {
/* columns rows colors chars-per-pixel */
"48 48 131 2 ",
"   c #344722",
".  c #364A24",
"X  c #384C25",
"o  c #404F24",
"O  c #445124",
"+  c #4A5424",
"@  c #555A24",
"#  c #5B5D25",
"$  c #525A28",
"%  c #585D29",
"&  c #605F22",
"*  c #5D602A",
"=  c #626023",
"-  c #6C6522",
";  c #64642A",
":  c #69662A",
">  c #6D692A",
",  c #746922",
"<  c #7B6D24",
"1  c #736D2E",
"2  c #7C6F29",
"3  c #7F7023",
"4  c #7A702C",
"5  c #756F31",
"6  c #7B7231",
"7  c #827122",
"8  c #8C7622",
"9  c #84752D",
"0  c #937A23",
"q  c #9B7F23",
"w  c #977F2D",
"e  c #997F2A",
"r  c #807532",
"t  c #857935",
"y  c #8B7B33",
"u  c #927F31",
"i  c #9E8023",
"p  c #938136",
"a  c #998333",
"s  c #938239",
"d  c #99853D",
"f  c #A48424",
"g  c #A98724",
"h  c #AD8925",
"j  c #A48528",
"k  c #AB8A2E",
"l  c #B48E26",
"z  c #B18D2A",
"x  c #B7912A",
"c  c #BA932C",
"v  c #A18836",
"b  c #A98B33",
"n  c #A08A3C",
"m  c #A48C3C",
"M  c #A78C3A",
"N  c #AB913F",
"B  c #AC903A",
"V  c #B59131",
"C  c #B39237",
"Z  c #BC9530",
"A  c #BD9631",
"S  c #BC9632",
"D  c #BD9733",
"F  c #BC9734",
"G  c #BC9735",
"H  c #BD9735",
"J  c #B99433",
"K  c #BC9836",
"L  c #BC9837",
"P  c #BD9837",
"I  c #BE9937",
"U  c #BF9936",
"Y  c #B2943D",
"T  c #B5953B",
"R  c #BA983B",
"E  c #BD9838",
"W  c #BD9839",
"Q  c #BC993B",
"!  c #BB983C",
"~  c #BA993D",
"^  c #BD9A3E",
"/  c #BC9A3D",
"(  c #C19B36",
")  c #C09D3C",
"_  c #988640",
"`  c #AF9342",
"'  c #B09340",
"]  c #B29542",
"[  c #B39646",
"{  c #B59745",
"}  c #B79843",
"|  c #B89840",
" . c #BB9A40",
".. c #BB9A41",
"X. c #BB9A42",
"o. c #BA9A43",
"O. c #BB9A43",
"+. c #BC9A40",
"@. c #BC9B41",
"#. c #B99A44",
"$. c #BC9C44",
"%. c #BD9C45",
"&. c #BC9C46",
"*. c #BC9C47",
"=. c #BD9D47",
"-. c #B39748",
";. c #B39749",
":. c #B2974A",
">. c #B2974B",
",. c #B3974B",
"<. c #B3984B",
"1. c #BB9C48",
"2. c #BC9C48",
"3. c #BD9D48",
"4. c #BC9D4A",
"5. c #BD9E4B",
"6. c #BE9E4A",
"7. c #BD9E4D",
"8. c #BC9E4E",
"9. c #BD9E4E",
"0. c #BC9F4F",
"q. c #BD9F50",
"w. c #BC9F51",
"e. c #BC9F52",
"r. c #BD9F52",
"t. c #BDA052",
"y. c #BDA053",
"u. c #BEA052",
"i. c #BDA054",
"p. c #BEA155",
"a. c #BEA156",
/* pixels */
"X X X X X X X X X X X X X X X X X X X X X X X X X X X X X X X X X X X X X X X X X X X X X X X X ",
"X X X X X X X X X X X X X X X X X X X X X X X X X X X X X X X X X X X X X X X X X X X X X X X X ",
"X X X X X X X X X X X X X X X X X X X X X X X X X X X X X X X X X X X X X X X X X X X X X X X X ",
"X X X X X X X X . . . . . X X X X X X X X X X X X X X X X X X X X X X X X X X X X X X X X X X X ",
"X X X X X X X . . .     . . . X X X X X X X X X X X X X X X X X X X X X X X X X X X X X X X X X ",
"X X X X X X . .           . . X X X X X X X X X X X X X X X X X X X X X X X X X X X X X X X X X ",
"X X X X X X . .             . X X X X X X X X X X X X X X X X X X X X X X X X X X X X X X X X X ",
"X X X X X X X . .           . X X X X X X X X X X X X X X X X X X X X X X X X X X X X X X X X X ",
"X X X X X X X X . . . . . . X X X X X X X X X X X X X X X X X X X X X X X X X X X X X X X X X X ",
"X X X X X X X X X X X X X X X X X X X X X X X X X X X X X X X X X X X X X X X X X X X X X X X X ",
"X X X X X X X X X X X X X X X X X X X X X X O O O O O X X X X X X X X X X X X X X X X X X X X X ",
"X X X X X X X X X X X X X X X X X X X X O + @ # # # @ + O X X X X X X X X X X X X X X X X X X X ",
"X X X X X X X X X X X X X X X X X X X O + # - < 2 2 > # + O X X X X X X X X X X X X X X X X X X ",
"X X X X X X X X X X X X X X X X X X X + # , 7 0 e w 9 > # + O X X X X X X X X X X X X X X X X X ",
"X X X X X X X X X X X X X X X X X X + @ - 7 0 j k b a 9 : % + X X X X X X X X X X X X X X X X X ",
"X X X X X X X X X X X X X X X X X O @ = < 0 f z V C M p r : $ O X X X X X . . .     . . . X X X ",
"X X X X X X X X X X X X X X X X X + & , 8 i h c H R Y m s 6 * O X X X X X . .           . X X X ",
"X X X X X X X X X X X X X X X X o @ - 7 q g l c I ^ o.' n t ; + X X X X X . . .       . X X X X ",
"X X X X X X X X X X X X X X X X O # , 0 f h c Z E o.o.} N p > @ O X X X X X X X X X X X X X X X ",
"X X X X X X X X X X X X X X X X O & 7 q g l c S ! o.&.&.' d 1 @ O X X X X X X X X X X X X X X X ",
"X X X X X X X X X X X X X X X X + = 7 i h l c H o.1.6.6.{ d 1 # + X X X X X X X X X X X X X X X ",
"X X X X X X X X X X X X X X X X + = 7 i h l c H &.8.e.9.-.d 5 # + X X X X X X X X X X X X X X X ",
"X X X X X X X X X X X X X X X X + = 7 q h l c E &.e.a.e.-.d 5 # + X X X X X X X X X X X X X X X ",
"X X X X X X X X X X X X X X X X + = 7 q h l c E 6.y.a.e.-._ 5 # + X X X X X X X X X X X X X X X ",
"X X X X X X X X X X X X X X X X O = 7 q h l c I &.y.a.e.<._ 5 # + X X X X X X X X X X X X X X X ",
"X X X X X X X X X X X X X X X X O & 7 q h l c I &.9.y.e.-._ 5 # + X X X X X X X X X X X X X X X ",
"X X X X X X X X X X X X X X X X O & 7 q h l c H @.6.9.9.-.d 5 # + X X X X X X X X X X X X X X X ",
"X X X X X X X X X X X X X X X X O # 7 q h l c Z E o.&.6.[ d 1 @ O X X X X X X X X X X X X X X X ",
"X X X X X X X X X X X X X X X X O # < 0 f l c Z E ! o.#.` s 1 @ O X X X X X X X X X X X X X X X ",
"X X X X X X X X X X X X X X X X O @ , 8 i h c c I ^ ! Y m y : + o X X X X X X X X X X X X X X X ",
"X X X X X X X X X X X X X X X X X + = < 0 f l c ( ) ! B a 6 * O X X X X X X X X X X X X X X X X ",
"X X X X X X X X X X X X X X X X X + # - 7 q h c ( ^ T v y 1 @ O . X X X X X X X X X X X X X X X ",
"X X X X X X X X X X X X X X X X X O + & , 0 f z S T b u 4 ; + X X X X X X X X X X X X X X X X X ",
"X X X X X X X X X X X X X X X X X X O @ - 7 0 f k b a 9 : @ O X X X X X X X X X X X X X X X X X ",
"X X X X X X X X X X X X X X X X X X X + # , 7 0 e w 9 > # + o X X X X X X X X X X X X X X X X X ",
"X X X X X X X X X X X X X X X X X X X O + & - < 2 2 > # + O X X X X X X X X X X X X X X X X X X ",
"X X X X X X X X . .       . X X X X X X O + @ # # # @ + O X X X X X X X X X X X X X X X X X X X ",
"X X X X X X X . .           . X X X X X X X O O O O O X X X X X X X X X X X X X X X X X X X X X ",
"X X X X X X X X .           . X X X X X X X X X X X X X X X X X X X X X X X X X X X X X X X X X ",
"X X X X X X X X X .         . X X X X X X X X X X X X X X X X X X X X X X . . . . X X X X X X X ",
"X X X X X X X X X X . . . . . X X X X X X X X X X X X X X X X X X X X X .         . X X X X X X ",
"X X X X X X X X X X X . . X X X X X X X X X X X X X X X X X X X X X X X .         . X X X X X X ",
"X X X X X X X X X X X X X X X X X X X X X X X X X X X X X X X X X X X X . . . . . . X X X X X X ",
"X X X X X X X X X X X X X X X X X X X X X X X X X X X X X X X X X X X X . . . . . X X X X X X X ",
"X X X X X X X X X X X X X X X X X X X X X X X X X X X X X X X X X X X X X X X X X X X X X X X X ",
"X X X X X X X X X X X X X X X X X X X X X X X X X X X X X X X X X X X X X X X X X X X X X X X X ",
"X X X X X X X X X X X X X X X X X X X X X X X X X X X X X X X X X X X X X X X X X X X X X X X X ",
"X X X X X X X X X X X X X X X X X X X X X X X X X X X X X X X X X X X X X X X X X X X X X X X X "
};
