/* XPM */
static char *ezgif_6_97a8a31796[] = {
/* columns rows colors chars-per-pixel */
"48 48 106 2 ",
"   c #2F411E",
".  c #30421F",
"X  c #334521",
"o  c #364A24",
"O  c #384C25",
"+  c #4D551F",
"@  c #5A5A1C",
"#  c #655E19",
"$  c #63601D",
"%  c #6B621A",
"&  c #756514",
"*  c #776A1B",
"=  c #404F23",
"-  c #475220",
";  c #485322",
":  c #786C20",
">  c #856B0F",
",  c #8D6E0D",
"<  c #96730D",
"1  c #99760F",
"2  c #9E790F",
"3  c #846D14",
"4  c #967614",
"5  c #9A7711",
"6  c #9E7A14",
"7  c #9D7D18",
"8  c #A37E14",
"9  c #A37F19",
"0  c #907B28",
"q  c #9E801C",
"w  c #A68116",
"e  c #A4811C",
"r  c #A8841B",
"t  c #AC881D",
"y  c #B28C1D",
"u  c #A68626",
"i  c #A98622",
"p  c #AF8D29",
"a  c #B38E24",
"s  c #B79123",
"d  c #BD9625",
"f  c #BF9827",
"g  c #B6922C",
"h  c #B9952E",
"j  c #A48A34",
"k  c #B59331",
"l  c #B89530",
"z  c #BD9931",
"x  c #B99738",
"c  c #BD9B3B",
"v  c #C29927",
"b  c #C49B29",
"n  c #C89F2B",
"m  c #C19D36",
"M  c #C19E3B",
"N  c #CEA42E",
"B  c #D0A62F",
"V  c #CDA533",
"C  c #C3A03C",
"Z  c #CBA63E",
"A  c #CFA939",
"S  c #D1A730",
"D  c #D1A836",
"F  c #D2AB3D",
"G  c #BC9C42",
"H  c #B79C4B",
"J  c #BD9F4A",
"K  c #BFA150",
"L  c #C7A442",
"P  c #CDA943",
"I  c #CEAA49",
"U  c #D4AF46",
"Y  c #D4AE46",
"T  c #D2AC43",
"R  c #D2AF4F",
"E  c #D4B045",
"W  c #D6B249",
"Q  c #D6B24F",
"!  c #D7B34F",
"~  c #CFAE52",
"^  c #CDAC54",
"/  c #D2AF50",
"(  c #D3B051",
")  c #D4B252",
"_  c #D5B353",
"`  c #D7B453",
"'  c #D8B454",
"]  c #D8B555",
"[  c #D8B656",
"{  c #D6B659",
"}  c #D4B45A",
"|  c #D6B55B",
" . c #D9B658",
".. c #DAB85C",
"X. c #DBBA5D",
"o. c #D1B360",
"O. c #D6B762",
"+. c #DBBA60",
"@. c #DCBB60",
"#. c #D4B86C",
"$. c #E0C272",
"%. c #E1C57A",
"&. c #E3C982",
"*. c #E1C886",
"=. c #E5CC89",
"-. c #E7CF92",
/* pixels */
"O O O O O O O O O O O O O O O O O O O O O O O O O O O O O O O O O O O O O O O O O O O O O O O O ",
"O O O O O O O O O O O O O O O O O O O O O O O O O O O O O O O O O O O O O O O O O O O O O O O O ",
"O O O O O O O O O O O O O O O O O O O O O O O O O O O O O O O O O O O O O O O O O O O O O O O O ",
"O O O O O O O O O O O O O O O O O O O O O O O O O O O O O O O O O O O O O O O O O O O O O O O O ",
"O O O O O O O o o o o o o o o O O O O O O O O O O O O O O O O O O O O O O O O O O O O O O O O O ",
"O O O O O O o X .     . X X X o O O O O O O O O O O O O O O O O O O O O O O o o o O O O O O O O ",
"O O O O O O o X               X O O O O O O O O O O O O O O O O O O O O O o X X o O O O O O O O ",
"O O O O O O o o X X X X X X o o O O O O O O O O o o o O O O O O O O O O O O o o o O O O O O O O ",
"O O O O O O O O O O O O O O O O O O O O O O O O X X o O O O O O O O O O O O O O O O O O O O O O ",
"O O O O O O O O O O O O O O O O O O O O O O O O o X o O O O O O O O O O O O O O O O O O O O O O ",
"O O O O O O O O O O O O O O O O O O O O O O O O o o O O O O O O O O O O O O O O O O O O O O O O ",
"O O O O O O O O O O O O O O O O O O O O O = = = = = O O O O O O O O O O O O O O O O O O O O O O ",
"O O O O O O O O O O O O O O O O O o o o & , , , , , > O o o O O O O O O O O O O O O O O O O O O ",
"O O O O O O O O O O O O O O O O O @ % # q y y y a g p % # # O O O O O O O O O O O O O O O O O O ",
"O O O O O O O O O O O O O O O O O 3 2 2 v S S B D W T 9 6 4 - O o O O O O O o o o o O O O O O O ",
"O O O O O O O O O O O O O O O $ 7 f N N v f f f f f v P T P u : + O O O o X X . . X o o o O O O ",
"O O O O O O O O O O O O O O O 7 N N N N w < < < < < 5 N D F ] l , = O O o X . .       . X O O O ",
"O O O O O O O O O O O O o @ 3 f N B v 8 s v f f v C m w z ! D Z c 3 @ o o X X o X       X O O O ",
"O O O O O O O O O O O O o % 2 N N b s 8 b B N N D T T i k L V Y ( 8 % o O O O O o X X o o O O O ",
"O O O O O O O O O O O O o # 2 N N 8 8 N N N N N N N V ' k 5 P ! R 6 # o O O O O O O O O O O O O ",
"O O O O O O O O O O O O & q v v w s b N N N N N N N N D Z C r z T ^ j & O O O O O O O O O O O O ",
"O O O O O O O O O O O = , y S f < v B N N N N N N N N N T ( 5 a E $.G , = O O O O O O O O O O O ",
"O O O O O O O O o o o = , y B f < f N N N N N N N N N N T / 5 g ! %.G , = O O O O O O O O O O O ",
"O O O O O O O O X X o = , y B f < f N N N N N N N N N N T / 5 g  .&.J , = O O O O O O O O O O O ",
"O O O O O O O O X X o - , y S f < f N N N N N N N N N N T / 5 k X.=.J , = O O O O O O O O O O O ",
"O O O O O O O O o o o = , y S f < f N N N N N N N N N N T / 5 k X.-.K , = O O O O O O O O O O O ",
"O O O O O O O O O O O O 3 t N v 5 f N N N N N N N N N V T ~ 6 l ] *.H > O O O O O O O O O O O O ",
"O O O O O O O O O O O O O % 8 n N w w N N N N N N N V X.x 6 Z ) { e % O O O O O O O O O O O O O ",
"O O O O O O O O O O O O o # 2 N N s y y n N N N N N T M h s F ] O.6 # o O O O O o o O O O O O O ",
"O O O O O O O O O O O O o # 4 n N B v 1 f N N N N N I r f F F ) o.4 # o O O O o X X o O O O O O ",
"O O O O O O O O O O O O O O - e B N N N w 1 1 1 1 1 6 V A F @.c 4 ; O O O O O o X X o O O O O O ",
"O O O O O O O O O O O O O O O * y n N N s y y y y y g T ` { c 0 # O O O O O O O O O O O O O O O ",
"O O O O O O O O O O O O O O o + , s N N N B N N S S Y R O.#.4 # o O O O O O O O O O O O O O O O ",
"O O O O O O O O O O O O O O O O = 3 2 2 v S N N F +.{ 9 6 4 ; O O O O O O O O O O O O O O O O O ",
"O O O O O O O O O O O O O O O O O @ % # q y y y a x k % # # O O O O O O O O O O O O O O O O O O ",
"O O O O O O O O O O O O O O O O O o o o & , , , , , > O o o O O O O O O O O O O O O O O O O O O ",
"O O O O O O O O O o X X o o O O O O O O O = O O O = = O O O O O O O O O O O O O O O O O O O O O ",
"O O O O O O O o X X       X X o O O O O O O o X X O O O O O O O O O O O O O O O O O O O O O O O ",
"O O O O O O o X       .       X o O O O O O o o o O O O O O O O O O O O O O O O O O O O O O O O ",
"O O O O O O o X . X X o X .   X o O O O O O O O O O O O O O O O O O O O O O O o O O O O O O O O ",
"O O O O O O O o o o O O O o o o o O O O O O O O O O O O O O O O O O O o X X X X X o o O O O O O ",
"O O O O O O O O O O O O O O O O O O O O O O O O O O O O O O O O O O O X           . o O O O O O ",
"O O O O O O O O O O O O O O O O O O O O O O O O O O O O O O O O O O O o X     X X X o O O O O O ",
"O O O O O O O O O O O O O O O O O O O O O O O O O O O O O O O O O O O O o o o o o o o O O O O O ",
"O O O O O O O O O O O O O O O O O O O O O O O O O O O O O O O O O O O O O O O O O O O O O O O O ",
"O O O O O O O O O O O O O O O O O O O O O O O O O O O O O O O O O O O O O O O O O O O O O O O O ",
"O O O O O O O O O O O O O O O O O O O O O O O O O O O O O O O O O O O O O O O O O O O O O O O O ",
"O O O O O O O O O O O O O O O O O O O O O O O O O O O O O O O O O O O O O O O O O O O O O O O O "
};
