/* XPM */
static char *ezgif_6_239c5f00ef[] = {
/* columns rows colors chars-per-pixel */
"48 48 210 2 ",
"   c #2F261F",
".  c #30271E",
"X  c #31281F",
"o  c #221D3A",
"O  c #2E2623",
"+  c #2B252B",
"@  c #302720",
"#  c #302820",
"$  c #363426",
"%  c #282130",
"&  c #6F3837",
"*  c #3F452C",
"=  c #394138",
"-  c #44553F",
";  c #46593D",
":  c #4A5D3B",
">  c #495934",
",  c #434E2F",
"<  c #715437",
"1  c #4F6437",
"2  c #4E6338",
"3  c #506637",
"4  c #536637",
"5  c #78612A",
"6  c #0C0C5E",
"7  c #0F115E",
"8  c #13145D",
"9  c #1B135B",
"0  c #16195B",
"q  c #191C5A",
"w  c #181553",
"e  c #1F144A",
"r  c #241A55",
"t  c #221658",
"y  c #241657",
"u  c #291E4A",
"i  c #1E2355",
"p  c #2C374C",
"a  c #2F394C",
"s  c #323D4B",
"d  c #303646",
"f  c #212555",
"g  c #242C53",
"h  c #272859",
"j  c #293852",
"k  c #3C3756",
"l  c #322652",
"z  c #0E0E61",
"x  c #070661",
"c  c #0F1160",
"v  c #101160",
"b  c #151C63",
"n  c #1B1D64",
"m  c #1A166E",
"M  c #1E1C6C",
"N  c #13116A",
"B  c #201D6D",
"V  c #1A2564",
"C  c #153165",
"Z  c #1A3966",
"A  c #22216B",
"S  c #242264",
"D  c #2F2F71",
"F  c #273E67",
"G  c #4D2947",
"H  c #522C47",
"J  c #50374A",
"K  c #374447",
"L  c #3E4D43",
"P  c #35424A",
"I  c #25445A",
"U  c #1D5569",
"Y  c #1A4A65",
"T  c #294768",
"R  c #235D66",
"E  c #344A72",
"W  c #1D666B",
"Q  c #216C6B",
"!  c #3A666D",
"~  c #2D7775",
"^  c #424A47",
"/  c #415140",
"(  c #494854",
")  c #534B56",
"_  c #5B514B",
"`  c #6E6846",
"'  c #6F724E",
"]  c #4A4B77",
"[  c #4F546D",
"{  c #496B64",
"}  c #4E7278",
"|  c #4B6F75",
" . c #6A5F5D",
".. c #883A30",
"X. c #B34F1B",
"o. c #9B4925",
"O. c #895135",
"+. c #B34E26",
"@. c #8B7035",
"#. c #AB741B",
"$. c #DA540B",
"%. c #E35808",
"&. c #CF6511",
"*. c #EE7107",
"=. c #E27B3F",
"-. c #857944",
";. c #807544",
":. c #1F9474",
">. c #268B6F",
",. c #258B70",
"<. c #279070",
"1. c #289170",
"2. c #3A997A",
"3. c #379675",
"4. c #3A9B6B",
"5. c #598D58",
"6. c #678E54",
"7. c #5BA25E",
"8. c #4F9372",
"9. c #599679",
"0. c #508C6C",
"q. c #619E7E",
"w. c #6E9961",
"e. c #45A479",
"r. c #5EB278",
"t. c #5FB477",
"y. c #5CA574",
"u. c #63B777",
"i. c #71BA66",
"p. c #6AC579",
"a. c #93923D",
"s. c #B69E35",
"d. c #BCA935",
"f. c #D5920E",
"g. c #FA8403",
"h. c #F09A09",
"j. c #F9A014",
"k. c #F6AE09",
"l. c #CE9238",
"z. c #EB8925",
"x. c #C6AB38",
"c. c #C5B234",
"v. c #F5B13C",
"b. c #ECD72B",
"n. c #F1D92C",
"m. c #FBE226",
"M. c #FEE835",
"N. c #D9CE32",
"B. c #8C8A49",
"V. c #87AF4E",
"C. c #87887B",
"Z. c #80AB6B",
"A. c #AEA968",
"S. c #ED8A46",
"D. c #D0B151",
"F. c #B3D450",
"G. c #B4D24F",
"H. c #8DC365",
"J. c #FECF48",
"K. c #FCEA58",
"L. c #F4CF72",
"P. c #F7EC72",
"I. c #302E87",
"U. c #4D4C82",
"Y. c #515982",
"T. c #5749AB",
"R. c #7D60EB",
"E. c #7355EC",
"W. c #8877BE",
"Q. c #9172F3",
"!. c #598B85",
"~. c #6A9684",
"^. c #68B884",
"/. c #78BD90",
"(. c #6EA88F",
"). c #7AC38E",
"_. c #868681",
"`. c #98AD80",
"'. c #8484A0",
"]. c #B3B39F",
"[. c #84D28D",
"{. c #85C996",
"}. c #8BC78F",
"|. c #94E19B",
" X c #97DDA5",
".X c #9DF4A7",
"XX c #A7F0AF",
"oX c #F4EC99",
"OX c #F7FBA1",
"+X c #E6EAA1",
"@X c #9982F3",
"#X c #A789EB",
"$X c #A792F0",
"%X c #B194F4",
"&X c #BCA4F0",
"*X c #BDADED",
"=X c #CDB4EC",
"-X c #D4B9F5",
";X c #C6A9F5",
":X c #DCD8D5",
">X c #E0D9DA",
",X c #CBECCB",
"<X c #E6EFD6",
"1X c #E6E7D8",
"2X c #E7F5D5",
"3X c #FBFAD9",
"4X c #D8C9EA",
"5X c #DCC8F0",
"6X c #E7CFF3",
"7X c #F9F8E1",
/* pixels */
"2 2 2 2 2 2 2 2 2 2 2 2 2 2 2 2 2 2 2 2 2 1 1 i 6 p 4 2 2 2 2 2 2 2 2 2 2 2 2 2 2 2 2 2 2 2 2 2 ",
"2 2 2 2 2 2 2 2 2 2 2 2 2 2 2 2 2 2 2 2 1 ; a  ._.[ a 2 2 2 2 2 2 2 2 2 2 2 2 2 2 2 2 2 2 2 2 2 ",
"2 2 2 2 2 2 2 2 2 2 2 2 2 2 2 2 2 2 2 2 2 L r ].OXC.r ; 2 2 2 2 2 2 2 2 2 2 2 2 2 2 2 2 2 2 2 2 ",
"2 2 2 2 2 2 2 2 2 2 2 2 2 2 2 2 2 2 2 2 f J h.6.3.a.f.f s 1 2 2 2 2 2 2 2 2 2 2 2 2 2 2 2 2 2 2 ",
"2 2 2 2 2 2 2 2 2 2 2 2 2 2 2 2 2 2 2 2 i l O.5.e.6.< 9 a 3 2 2 2 2 2 2 2 2 2 2 2 2 2 2 2 2 2 2 ",
"2 2 2 2 2 2 2 2 2 2 2 2 2 2 2 2 2 2 2 : i z z 8.p.! x z p : 2 2 2 2 2 2 2 2 2 2 2 2 2 2 2 2 2 2 ",
"2 2 2 2 2 2 2 2 2 2 2 2 2 2 2 2 3 3 / 8 v z v (.|.} 6 z v q : 3 1 2 2 2 2 2 2 2 2 2 2 2 2 2 2 2 ",
"2 2 2 2 2 2 2 2 2 2 2 2 2 2 1 ; a a a a s g c 9.[.| 6 p a a a a s 2 2 2 2 2 2 2 2 2 2 2 2 2 2 2 ",
"2 2 2 2 2 2 2 2 2 2 2 2 2 2 : L 8 8 f : : ^ t 0.p.{ r ; : ; q 8 q ; 2 2 2 2 2 2 2 2 2 2 2 2 2 2 ",
"2 2 2 2 2 2 2 2 2 2 2 2 2 2 f f : : L 8 8 G %.5.1.@.$.r 8 0 ; : ; 0 s 1 2 2 2 2 2 2 2 2 2 2 2 2 ",
"2 2 2 2 2 2 2 2 2 2 2 2 2 2 K K 1 K ^ -.h G g.A.}.D.*.t ( ' s L 2 s L 2 2 2 2 2 2 2 2 2 2 2 2 2 ",
"2 2 2 2 2 2 2 2 2 2 2 2 2 2 : : ; f _ M._ J k.P.oXJ.h.l B.n.l a ; : 2 2 2 2 2 2 2 2 2 2 2 2 2 2 ",
"2 2 2 2 2 2 2 2 2 2 2 2 2 2 g r H X.z.P.z.&.d.l.S.l.s.%.v.P.*.o.G 0 s 1 2 2 2 2 2 2 2 2 2 2 2 2 ",
"2 2 2 2 2 2 2 2 2 2 2 2 2 2 i G *.h.k.m.g.X.v ~ 2X'.w %.j.m.k.g.%.t a 1 2 2 2 2 2 2 2 2 2 2 2 2 ",
"2 2 2 2 2 2 2 2 2 2 2 1 / f 8 [ L.k.f.( H J Q 3.<X:X].J J _ h.v.L.S 0 g : 2 2 2 2 2 2 2 2 2 2 2 ",
"2 2 2 2 2 2 2 2 2 2 2 1 L z 6 [ OXx.@.i 8 C 1.2.<X7X1XV 8 g #.D.+XS z 8 : 2 2 2 2 2 2 2 2 2 2 2 ",
"2 2 2 2 2 2 2 2 2 2 2 1 L v 6 [ OX[ i 2 f C 1.2.<X7X1XA p : 8 _.+XS z 8 : 2 2 2 2 2 2 2 2 2 2 2 ",
"2 2 2 2 2 2 2 2 2 2 2 2 : L q n [ ^ - 2 f C <.2.<X7X1XA p 3 / ( ] v g / 2 2 2 2 2 2 2 2 2 2 2 2 ",
"2 2 2 2 2 2 2 2 2 2 2 2 : L j i i K L L q Z 3.2.<X7X:XA g L / p i i a / 2 2 2 2 2 2 2 2 2 2 2 2 ",
"2 2 2 2 2 2 2 2 2 2 2 1 L 8 L 3 2 f v v z F u.e.<X6X=XB 7 v z a 3 1 a 8 : 2 1 2 2 2 2 2 2 2 2 2 ",
"2 2 2 2 2 2 2 2 2 2 2 1 L z o.o.f R U z 6 T [.^.4X-X&XM z v Q T l &.& c : 2 2 2 2 2 2 2 2 2 2 2 ",
"2 2 2 2 2 2 2 2 2 2 2 1 / f o...z U R f 8 E |.{.=X;X#XM q g Q Y 9 X.& f : 2 2 2 2 2 2 2 2 2 2 2 ",
"2 2 2 2 2 2 2 2 2 2 2 2 2 2 f z v z f 2 i E .X X&X%XQ.m p : 8 v v z a 3 2 2 2 2 2 2 2 2 2 2 2 2 ",
"2 2 2 2 2 2 2 2 2 2 2 1 / f a.B.v s ; 2 i U.2XXX$XQ.R.m a 2 / g q s.` f : 2 2 2 2 2 2 2 2 2 2 2 ",
"2 2 2 2 2 2 2 2 2 2 2 1 L z c.c.v s - 1 i U.2X,X@XQ.R.m a 2 / g f n.-.7 : 2 2 2 2 2 2 2 2 2 2 2 ",
"2 2 2 2 2 2 2 2 2 2 2 1 L v d.d.v z f 2 i E .X,XQ.Q.Q.m a : 8 v h b.-.7 : 2 2 2 2 2 2 2 2 2 2 2 ",
"2 2 2 2 2 2 2 2 2 2 2 1 L z k k v s K f 8 E |.XX@X$X#XM 0 f L g v ( l 8 : 2 2 2 2 2 2 2 2 2 2 2 ",
"2 2 2 2 2 2 2 2 2 2 2 1 / f i q v s K f 8 T [. X$X%X&XB 0 f L g v i i g : 2 2 2 2 2 2 2 2 2 2 2 ",
"2 2 2 2 2 2 2 2 2 2 2 2 2 2 1 L v z f 2 i F u.{.&X-X=XB p : 0 v 8 : 2 2 2 2 2 2 2 2 2 2 2 2 2 2 ",
"2 2 2 2 2 2 2 2 2 2 2 1 / f - 2 L L K i 8 Z 3.).&X5X>XA 0 f L L / 1 K f : 2 2 2 2 2 2 2 2 2 2 2 ",
"2 2 2 2 2 2 2 2 2 2 2 1 L z s L L L K i 8 C <./.;X5X>XA 0 f L L L L g 8 : 2 2 2 2 2 2 2 2 2 2 2 ",
"2 2 2 2 2 2 2 2 2 2 2 1 L v v v v z f 2 f C 1.^.5X5X=XB p : 0 v v v v 8 : 2 2 2 2 2 2 2 2 2 2 2 ",
"2 2 2 2 2 2 2 2 2 2 2 1 L v z z 6 z 8 i 8 C <.e.1X-X#XM 0 i 8 6 6 z z 8 : 2 2 2 2 2 2 2 2 2 2 2 ",
"2 2 2 2 2 2 2 2 2 2 2 1 L v k ) U.M M U.B C <.2.2X=XQ.m D U.v D ] ) l 8 : 2 2 2 2 2 2 2 2 2 2 2 ",
"2 2 2 2 2 2 2 2 2 2 2 1 L v d.K.7XU.] 3XU.C <.2.2X*XE.N '.1Xn '.3XM.-.7 : 2 2 2 2 2 2 2 2 2 2 2 ",
"2 2 2 2 2 2 2 2 2 2 2 1 L v w.Z.U.O.+.S.`.!.C ~ 4XW.I.(.A.=.+. .Y.H.{ 8 : 2 2 2 2 2 2 2 2 2 2 2 ",
"2 2 2 2 2 2 2 2 2 2 2 1 L v 8.8.6 t y y {.{.z ~ $XT.b .X!.w y 9 b t.! 8 : 1 2 2 2 2 2 2 2 2 2 2 ",
"2 2 2 2 2 2 2 2 2 2 2 1 L c q.q.v g a a } } a T T.] s Y.{ p a i n ).| 8 : 1 2 2 2 2 2 2 2 2 2 2 ",
"2 2 2 2 2 2 2 2 : : 2 2 / t ~.~.8 / 3 1 i i 1 f 6 p : 8 d 4 4 s V /.} r : 2 2 : : 2 2 2 2 2 2 2 ",
"2 2 2 2 2 2 2 3 i i 3 2 5 %.H h : 2 2 2 $ O # w z u # O * 2 2 2 ; V ..$.4 3 : 8 p 3 2 2 2 2 2 2 ",
"2 2 2 2 2 2 ; a ` ` a p < j._ Y a = * * $ @ # o e % X @ $ * * = a Y @.j.^ a s ' _ p 2 2 2 2 2 2 ",
"2 2 2 2 2 1 L z c.c.f v ( b.7.W 8 % .   @ # # X X X # # @   . o 8 ~ V.N.h 0 k n.-.6 : 2 2 2 2 2 ",
"2 2 2 2 2 1 L v d.m.b.7.,.4.Z w O # # # # # # # # # # # # # # O + 8 R 4.,.V.b.m.-.7 : 2 2 2 2 2 ",
"2 2 2 2 2 1 L v V.F.G.i.3.U j d # # # # # # # # # # # # # # # # # d I U e.i.G.F.' 8 : 2 2 2 2 2 ",
"2 2 2 2 2 1 L 8 0.r.r.u.0.8 / > # # # # # # # # # # # # # # # # $ 1 s n y.u.r.t.! q : 2 2 2 2 2 ",
"2 2 2 2 2 2 2 : h b b b h : 2 1 : $     @ # # # # # # # @     * 1 2 2 - V b b b a : 2 2 2 2 2 2 ",
"2 2 2 2 2 2 2 2 K a a a K 2 2 2 2 , * * $ @ # # # # # X $ * * > 2 2 2 2 s a a a L 1 2 2 2 2 2 2 ",
"2 2 2 2 2 2 2 2 1 3 1 1 1 2 2 2 2 2 2 2 $   # # # # #   * 3 2 2 2 2 2 2 3 3 3 3 1 2 2 2 2 2 2 2 "
};
