/* XPM */
static char *ezgif_6_3d5356bc4b[] = {
/* columns rows colors chars-per-pixel */
"48 48 185 2 ",
"   c #31281E",
".  c #2A232D",
"X  c #2F2924",
"o  c #302720",
"O  c #302820",
"+  c #342D2A",
"@  c #29362D",
"#  c #2C3B2D",
"$  c #2A3929",
"%  c #323221",
"&  c #343B23",
"*  c #30372B",
"=  c #262234",
"-  c #232E3D",
";  c #282230",
":  c #2A3733",
">  c #2D3C35",
",  c #29353B",
"<  c #2C3B3A",
"1  c #253338",
"2  c #323D39",
"3  c #443835",
"4  c #7C3434",
"5  c #2F411E",
"6  c #30421E",
"7  c #2E412A",
"8  c #344522",
"9  c #374A24",
"0  c #384C25",
"q  c #34452C",
"w  c #364928",
"e  c #304031",
"r  c #37403C",
"t  c #7A4B1E",
"y  c #5F422A",
"u  c #181D4F",
"i  c #17184E",
"p  c #0C0C5D",
"a  c #140E5A",
"s  c #0E105D",
"d  c #161B52",
"f  c #191E51",
"g  c #12135C",
"h  c #1B145C",
"j  c #151A5A",
"k  c #1F1E5E",
"l  c #151655",
"z  c #231658",
"x  c #211F5E",
"c  c #261754",
"v  c #1F2844",
"b  c #1C224D",
"n  c #1E294B",
"m  c #1B2050",
"M  c #19215F",
"N  c #1F2954",
"B  c #232D43",
"V  c #222640",
"C  c #34214D",
"Z  c #253041",
"A  c #22354B",
"S  c #2B3542",
"D  c #3B3D41",
"F  c #23205D",
"G  c #2F2B59",
"H  c #222C57",
"J  c #27355D",
"K  c #0D0D62",
"L  c #050762",
"P  c #101060",
"I  c #151C64",
"U  c #1A1D66",
"Y  c #191F68",
"T  c #0B1765",
"R  c #152062",
"E  c #1B2268",
"W  c #172865",
"Q  c #183465",
"!  c #342762",
"~  c #263E66",
"^  c #293F66",
"/  c #273E68",
"(  c #202969",
")  c #4B2347",
"_  c #572F50",
"`  c #3E4143",
"'  c #2F4052",
"]  c #1C4C66",
"[  c #1C5068",
"{  c #1C5665",
"}  c #2A406A",
"|  c #31436E",
" . c #364969",
".. c #354D76",
"X. c #324570",
"o. c #1C646A",
"O. c #206D6B",
"+. c #3C686C",
"@. c #3A6369",
"#. c #257D6E",
"$. c #2C7067",
"%. c #48454C",
"&. c #4E4752",
"*. c #4B4552",
"=. c #4F4851",
"-. c #545343",
";. c #7B6F44",
":. c #7E7444",
">. c #545972",
",. c #4C746E",
"<. c #466D72",
"1. c #4E7178",
"2. c #51757D",
"3. c #83332D",
"4. c #853830",
"5. c #955415",
"6. c #984719",
"7. c #96601F",
"8. c #984730",
"9. c #B24720",
"0. c #DB560D",
"q. c #EB5B06",
"w. c #FD690B",
"e. c #EE7F0F",
"r. c #C26E20",
"t. c #C97212",
"y. c #857944",
"u. c #847844",
"i. c #887B43",
"p. c #8C6B50",
"a. c #857F72",
"s. c #27896F",
"d. c #289070",
"f. c #3A9F72",
"g. c #33906D",
"h. c #4E895F",
"j. c #5CA05D",
"k. c #46896A",
"l. c #519A61",
"z. c #519172",
"x. c #51A571",
"c. c #61B376",
"v. c #6BBC77",
"b. c #69C278",
"n. c #67C078",
"m. c #74C271",
"M. c #AFA43A",
"N. c #BEAA36",
"B. c #E28F38",
"V. c #DFD12D",
"C. c #D6DB3D",
"Z. c #D9DD3B",
"A. c #D1CA34",
"S. c #EAD42B",
"D. c #EBD32B",
"F. c #ECDF2D",
"G. c #F0D92A",
"H. c #FEE527",
"J. c #F8E028",
"K. c #F2E32D",
"L. c #939944",
"P. c #9DA247",
"I. c #93996C",
"U. c #C9AA59",
"Y. c #ACCB4B",
"T. c #C1C640",
"R. c #C9D641",
"E. c #6C6F89",
"W. c #666691",
"Q. c #7C7C9E",
"!. c #568587",
"~. c #77B593",
"^. c #73C681",
"/. c #8A8793",
"(. c #B5B2B9",
"). c #C7BCB4",
"_. c #88CC95",
"`. c #8ED497",
"'. c #86D6A0",
"]. c #96EAA4",
"[. c #A2FAA9",
"{. c #F0E883",
"}. c #F0EDAD",
"|. c #D9D9D2",
" X c #F2E4C9",
/* pixels */
"0 0 0 0 0 0 0 0 0 0 0 0 0 0 0 0 0 w g K g q 0 0 0 0 0 > K K f 0 0 0 0 0 0 0 0 0 0 0 0 0 0 0 0 0 ",
"0 0 0 0 0 0 0 0 0 0 0 0 0 0 , B B B B B Z w 0 0 0 0 0 q B B B B B B > 0 0 0 0 0 0 0 0 0 0 0 0 0 ",
"0 0 0 0 0 0 0 0 0 0 0 0 9 q b g g j q 9 0 0 0 0 0 0 0 0 0 9 > g g g B w 0 0 0 0 0 0 0 0 0 0 0 0 ",
"0 0 0 0 0 0 0 0 0 0 0 0 > g > w q q j Z 0 0 0 0 0 0 0 0 0 b b q q w B j w 0 0 0 0 0 0 0 0 0 0 0 ",
"0 0 0 0 0 0 0 9 9 9 9 9 > P > 0 0 q g B 0 0 0 0 0 0 0 0 0 f f 0 0 0 B g q 0 0 0 0 0 0 0 0 0 0 0 ",
"0 0 0 0 0 0 9 8 6 5 5 6 7 @ 8 # f b > q 0 0 0 0 0 0 0 0 0 q , f b w q > 9 0 9 9 9 0 0 0 0 0 0 0 ",
"0 0 0 0 0 0 9 8 5 5 5 5 & @ & # f b > q 0 0 0 0 0 0 0 0 0 q , f b w q > 9 9 8 8 9 0 0 0 0 0 0 0 ",
"0 0 0 0 0 0 9 9 8 9 8 8 : P : 9 0 q g B 0 0 0 0 9 9 9 0 0 f f 0 0 0 B g q 0 9 9 9 0 0 0 0 0 0 0 ",
"0 0 0 0 0 0 0 0 0 0 0 0 > K > q f b > B b w 0 0 8 8 9 e f , , f b 9 B s w 0 0 0 0 0 0 0 0 0 0 0 ",
"0 0 0 0 0 0 0 0 0 0 0 e 2 =.r , f b 9 , b w 0 0 9 8 9 e f q q f b > ` =.2 q 0 0 0 0 0 0 0 0 0 0 ",
"0 0 0 0 0 0 0 0 0 0 0 d &.J.&.d 0 0 0 0 0 0 0 0 0 9 0 0 0 0 0 0 q s u.S.F B 0 0 0 0 0 0 0 0 0 0 ",
"0 0 0 0 0 0 0 0 0 0 0 d &.J.&.d 0 0 0 0 0 0 0 0 0 0 0 0 0 0 0 0 q s u.S.F B 0 0 0 0 0 0 0 0 0 0 ",
"0 0 0 0 0 0 0 0 0 0 0 d &.H.&.d 0 0 0 0 0 0 0 0 0 0 0 0 0 0 0 0 q p u.G.x B 0 0 0 0 0 0 0 0 0 0 ",
"0 0 0 0 0 0 0 0 0 0 0 , ` u.` , 0 0 0 0 0 0 0 0 0 0 0 0 0 0 0 0 9 B -.:.S > 0 0 0 0 0 0 0 0 0 0 ",
"0 0 0 0 0 0 0 0 0 0 0 9 > s > 0 q q q w 0 q q q q q q w 0 w q q w 0 B g q 9 9 9 9 9 0 0 0 0 0 0 ",
"0 0 0 0 0 0 0 0 0 0 0 b b q 0 > g g g Z w j g g g g g b 0 b g g l w 9 e j - 6 6 6 8 9 9 9 0 0 0 ",
"0 0 0 0 0 0 0 0 0 0 0 f C 5.3 A [ ] P B w g | 2.2.2.( f 0 f R [ ] A y 5.h v 6 6 5 5 5 6 8 0 0 0 ",
"0 0 0 0 0 0 0 0 0 0 0 b ) q.) W s.#.j Z w l 1.`._._.| b 0 b Q s.#.T 4 0.c - 8 9 8 5 5 5 8 0 0 0 ",
"0 0 0 0 0 0 0 0 0 0 0 9 > h g P I j q 9 0 w A Y E Y < 9 0 9 < I I P g z q 9 0 0 9 8 8 9 9 0 0 0 ",
"0 0 0 0 0 0 0 0 0 0 0 , ` u.G g B Z 9 0 9 9 > V V B q 0 0 0 q B B s *.:.S > 0 0 0 0 0 0 0 0 0 0 ",
"0 0 0 0 0 0 0 0 0 0 0 d &.H.=.d 0 0 0 0 9 8 6 6 6 9 0 0 0 0 0 0 w s i.G.x B 0 0 0 0 0 0 0 0 0 0 ",
"0 0 0 0 0 0 0 0 0 0 0 d &.J.&.l > > 9 0 8 5 5 5 5 8 9 0 0 0 q > < p u.S.F B 0 0 0 0 0 0 0 0 0 0 ",
"0 0 0 0 0 0 0 0 9 9 9 d &.J.=.K P g q 0 9 8 8 8 8 8 9 0 0 0 > P P K u.S.F B 0 0 0 0 0 0 0 0 0 0 ",
"0 0 0 0 0 0 0 0 8 8 9 f k &.x j > > m , 0 9 9 0 9 9 0 0 0 B n > > g G *.P B 0 0 0 0 0 0 0 0 0 0 ",
"0 0 0 0 0 0 0 0 8 8 9 B f d g f > > m , 0 0 0 0 0 0 0 0 0 B n > > g g d f , 0 0 0 0 0 0 0 0 0 0 ",
"0 0 0 0 0 0 0 0 9 9 9 0 0 0 m K P g q 0 0 0 0 0 0 0 0 0 0 0 > P P K B 0 0 0 0 0 0 0 0 0 0 0 0 0 ",
"0 0 0 0 0 0 0 0 0 0 0 B B 0 e > > > b , 0 0 0 0 0 0 0 0 0 B n > > > q w b , 0 0 0 0 0 0 0 0 0 0 ",
"0 0 0 0 0 0 0 0 0 0 0 f f 0 0 0 0 w g B 0 0 0 0 0 0 0 0 0 f f 0 0 0 0 w g B 0 0 0 0 0 0 0 0 0 0 ",
"0 0 0 0 0 0 0 0 0 0 0 f j B B B B B B > 0 0 0 0 0 0 0 0 0 , V V B B B B g B 0 0 9 9 9 0 0 0 0 0 ",
"0 0 0 0 0 0 0 0 0 0 0 m K K K K K g q 9 0 0 0 0 0 0 0 0 0 9 : K K K K K K B 0 9 8 8 9 0 0 0 0 0 ",
"0 0 0 0 0 0 0 0 0 0 0 m K K p p P g p - 0 0 0 0 0 0 0 0 0 b p P P p p K K B 0 9 8 8 9 0 0 0 0 0 ",
"0 0 0 0 0 0 0 0 0 0 0 f G u./.W.P U Q.>.- 9 0 0 0 0 0 q B E.W.K U Q.a.;.h B 0 0 0 0 0 0 0 0 0 0 ",
"0 0 0 0 0 0 0 0 0 0 0 d &.K.}.(.z !  X/.R e w 0 0 0 w < E ).).z ! |.{.V.F B 0 0 0 0 0 0 0 0 0 0 ",
"0 0 0 0 0 0 0 0 0 0 0 f ^ m. ._ q.q.w.U.'.E Z 0 0 0 b  .].B.w.q.0.! ,.v.I B 0 0 0 0 0 0 0 0 0 0 ",
"0 0 0 0 0 0 0 0 0 0 0 f / n.~ c 4.4.3.I.].E B 0 0 0 u ..[.p.3.4.4 a +.c.I B 0 0 0 0 0 0 0 0 0 0 ",
"0 0 0 0 0 0 0 0 0 0 9 f / v.~ K K K L !.].E B 0 0 0 u ..[...L K K p +.c.I B 0 0 0 0 0 0 0 0 0 0 ",
"0 0 0 0 0 0 0 0 0 9 8 i } ^.} g m m u <.~.H , 9 9 0 V  .~. .u m f p <.v.Y B 0 0 0 0 0 0 0 0 0 0 ",
"0 0 0 0 0 0 0 9 8 8 5 i X.`.X.u 9 0 0 B g q 9 8 8 0 0 > P > 0 0 q g 2._.E B 0 0 0 0 0 0 0 0 0 0 ",
"0 0 0 0 0 w u - 6 5 6 6.8.| S $ 9 0 0 * ; % % % % % % X ; q 0 0 9 > '  .9.t 0 0 0 v v 0 0 0 0 0 ",
"0 0 0 0 q 2 &.D @ @ : t.r.Q - $ 8 8 8 %   o o o o o O O   & 8 8 8 > A J e.7.> > > %.%.> w 0 0 0 ",
"0 0 0 0 B F S.u.K P P N.A.d.Q i O O O O O O O O O O + + O O O O X a [ f.F.u.K P P N.N.P > 0 0 0 ",
"0 0 0 0 B F S.V.N.L.O.l.h.Q V . O O O O O O O O O O + + O O O O o . n Q j.k.$.M.N.D.N.P > 0 0 0 ",
"0 0 9 0 B k T.C.Z.Y.f.#.{ f .   O O O O O O O O O O O O O O O O O   = m o.s.x.R.C.C.P.P > 0 0 0 ",
"0 0 9 0 B I c.n.n.n.n./ f 0 % o O O O O O O O O O O O O O O O O O o & w g +.b.n.n.b.z.P > 0 0 0 ",
"0 0 0 0 Z M x.c.c.c.c.~ b 0 % O O O O O O O O O O O O O O O O O O O & w l @.c.c.c.c.k.g > 0 0 0 ",
"0 0 0 0 9 q M I I I I < w 0 9 8 o o o o O O O O O O O O O o o o O 9 9 9 w Z I I I I N q 9 0 0 0 ",
"0 0 0 0 0 9 Z B B B B q 0 0 0 9 & & & % o O O O O O O O O % & & & 9 0 0 0 > B B B B , 0 0 0 0 0 ",
"0 0 0 0 0 0 0 0 0 0 0 0 0 0 0 0 0 0 0 & o O O O O O O O O 8 0 0 0 0 0 0 0 0 0 0 0 0 0 0 0 0 0 0 "
};
