/* XPM */
static char *ezgif_6_2749836fb0[] = {
/* columns rows colors chars-per-pixel */
"48 48 18 1 ",
"  c #364726",
". c #374826",
"X c #374827",
"o c #374927",
"O c #384827",
"+ c #384927",
"@ c #384928",
"# c #384A28",
"$ c #394A28",
"% c #394B28",
"& c #394A29",
"* c #394B29",
"= c #3A4B29",
"- c #3A4C29",
"; c #3B4C29",
": c #3A4C2A",
"> c #3B4C2A",
", c #3B4D2A",
/* pixels */
",,,,,,,,,,,,,,,,,,,,,,,,,,,,,,,,,,,,,,,,,,,,,,,,",
",,,,,,,,,,,,,,,,,,,,,,,,,,,,,,,,,,,,,,,,,,,,,,,,",
",,,,,,,,,===,,,,,,,,,,,,,,,,,,,,,,,,,,,,,,,,,,,,",
",,,,,,,=======,,,,,,,,,,,,,,,,,,,,,,,,,,,,,,,,,,",
",,,,,,===+X++==,,,,,,,,,,,,,,,,,,,,,,,,,,,,,,,,,",
",,,,,,==+XXXX==,,,,,,,,,,,,,,,,,,,,,,,,,,,,,,,,,",
",,,,,,==+XX XX==,,,,,,,,===,,,,,,,,,,,,,,,,,,,,,",
",,,,,,===+XXXX==,,,,,,,,===,,,,,,,,,,,,,,,,,,,,,",
",,,,,,,========,,,,,,,,,===,,,,,,,,,,,,,,,,,,,,,",
",,,,,,,,,,====,,,,,,,,,,,,,,,,,,,,,,,,,,,,,,,,,,",
",,,,,,,,,,,,,,,,,,,,,,,,,,,,,,,,,,,,,,,,,,,,,,,,",
",,,,,,,,,,,,,,,,,,,,,,,,,,,,,,,,,,,,,,,,,,,,,,,,",
",,,,,,,,,,,,,,,,,,,,,,,,,,,,,,,,,,,,,,,,,,,,,,,,",
",,,,,,,,,,,,,,,,,,,,,,,,,,,,,,,,,,,,,,,,,,,,,,,,",
",,,,,,,,,,,,,,,,,,,,,,,,,,,,,,,,,,,,,,,=====,,,,",
",,,,,,,,,,,,,,,,,,,,,,,,,,,,,,,,,,,,====++===,,,",
",,,,,,,,,,,,,,,,,,,,,,,,,,,,,,,,,,,,==+XX XX==,,",
",,,,,,,,,,,,,,,,,,,,,,,,,,,,,,,,,,,,,==+XXX+==,,",
",,,,,,,,,,,,,,,,,,,,,======,,,,,,,,,,,,======,,,",
",,,,,,,,,,,,,,,,,,,,=======,,,,,,,,,,,,,,,===,,,",
",,,,,,,,,,,,,,,,,,,,==XX+==,,,,,,,,,,,,,,,,=,,,,",
",,,,,,,,,,,,,,,,,,,,==XX+==,,,,,,,,,,,,,,,,,,,,,",
",,,,,,,,,,,,,,,,,,,,=+XX+==,,,,,,,,,,,,,,,,,,,,,",
",,,,,,,,,,,,,,,,,,,,,=+===,,,,,,,,,,,,,,,,,,,,,,",
",,,,,,,,,,,,,,,,,,,,,,===,,,,,,,,,,,,,,,,,,,,,,,",
",,,,,,,,,,,,,,,,,,,,,,,,,,,,,,,,,,,,,,,,,,,,,,,,",
",,,,,,,,,,,,,,,,,,,,,,,,,,,,,,,,,,,,,,,,,,,,,,,,",
",,,,,,,,,,,,,,,,,,,,,,,,,,,,,,===,,,,,,===,,,,,,",
",,,,,,,,,,,,,,,,,,,,,,,,,,,,,,===,,,,,,===,,,,,,",
",,,,,,,,,,,,,,,,,,,,,,,,,,,,,,===,,,,,,===,,,,,,",
",,,,,,,,,,,,,,,,,,,,,,,,,,,,,,,,,,,,,,,,,,,,,,,,",
",,,,,,,,,,,,,,,,,,,,,,,,,,,,,,,,,,,,,,,,,,,,,,,,",
",,,,,,,,,,,,,,,,,,,,,,,,,,,,,,,,,,,,,,,,,,,,,,,,",
",,,,,,,,,,,,,,,,,,,,,,,,,,,,,,,,,,,,,,,,,,,,,,,,",
",,,,,,,,,,,,,,,,,,,,,,,,,,,,,,,,,,,,,,,,,,,,,,,,",
",,,,,,,,,======,,,,,,,,,,,,,,,,,,,,,,,,,,,,,,,,,",
",,,,,,,===+XX+===,,,,===,,,,,,,,,,,,,,,,,,,,,,,,",
",,,,,,==+XX  XX+==,,,===,,,,,,,,,,,,,,,,,,,,,,,,",
",,,,,,==+XX XXX+==,,,===,,,,,,,,,,,,,====,,,,,,,",
",,,,,,===++++++===,,,,,,,,,,,,,,,,,,======,,,,,,",
",,,,,,============,,,,,,,,,,,,,,,,,==XXXX==,,,,,",
",,,,,,,==========,,,,,,,,,,,,,,,,,,==+XX+==,,,,,",
",,,,,,,,,,,,,,,,,,,,,,,,,,,,,,,,,,,,==++==,,,,,,",
",,,,,,,,,,,,,,,,,,,,,,,,,,,,,,,,,,,,======,,,,,,",
",,,,,,,,,,,,,,,,,,,,,,,,,,,,,,,,,,,,,====,,,,,,,",
",,,,,,,,,,,,,,,,,,,,,,,,,,,,,,,,,,,,,,,,,,,,,,,,",
",,,,,,,,,,,,,,,,,,,,,,,,,,,,,,,,,,,,,,,,,,,,,,,,",
",,,,,,,,,,,,,,,,,,,,,,,,,,,,,,,,,,,,,,,,,,,,,,,,"
};
