/* XPM */
static char *ezgif_7_8c6e78640b[] = {
/* columns rows colors chars-per-pixel */
"48 48 154 2 ",
"   c #010101",
".  c #080603",
"X  c #0B0C03",
"o  c #050608",
"O  c #0B0B0A",
"+  c #110700",
"@  c #140D05",
"#  c #0F140A",
"$  c #13130C",
"%  c #191909",
"&  c #141414",
"*  c #1D1810",
"=  c #1A1A1A",
"-  c #200E01",
";  c #211500",
":  c #2C1A0C",
">  c #271C06",
",  c #3E1901",
"<  c #221811",
"1  c #1B2512",
"2  c #1E2914",
"3  c #2C2007",
"4  c #2E2208",
"5  c #2D2809",
"6  c #25270E",
"7  c #332C00",
"8  c #3E2900",
"9  c #342609",
"0  c #3D2C0A",
"q  c #323107",
"w  c #22231F",
"e  c #252414",
"r  c #372010",
"t  c #243017",
"y  c #263318",
"u  c #29371B",
"i  c #2A391C",
"p  c #39301F",
"a  c #363319",
"s  c #252524",
"d  c #292725",
"f  c #2A2927",
"g  c #2D2D2D",
"h  c #3C3322",
"j  c #38332C",
"k  c #2F2F30",
"l  c #333232",
"z  c #383735",
"x  c #3C3B3B",
"c  c #401C00",
"v  c #452100",
"b  c #4A2500",
"n  c #4F2A00",
"m  c #402E0B",
"M  c #522D00",
"N  c #4A3500",
"B  c #45330C",
"V  c #553F0F",
"C  c #422E16",
"Z  c #643B1C",
"A  c #463528",
"S  c #443B2A",
"D  c #483D35",
"F  c #403F3F",
"G  c #2F411E",
"H  c #30421F",
"J  c #334522",
"K  c #364A24",
"L  c #384C25",
"P  c #3B5027",
"I  c #5E4610",
"U  c #634D00",
"Y  c #784F00",
"T  c #734B00",
"R  c #7D5400",
"E  c #6D401F",
"W  c #4A4037",
"Q  c #40403F",
"!  c #6E4220",
"~  c #704421",
"^  c #735127",
"/  c #7B5529",
"(  c #7B5930",
")  c #454544",
"_  c #484746",
"`  c #494846",
"'  c #4C4B4A",
"]  c #504F4D",
"[  c #53504E",
"{  c #545351",
"}  c #585755",
"|  c #5A5856",
" . c #5C5B58",
".. c #6E5C4B",
"X. c #725E4C",
"o. c #615F5C",
"O. c #63615F",
"+. c #696257",
"@. c #666461",
"#. c #6D6B68",
"$. c #716F6B",
"%. c #73716D",
"&. c #7E766B",
"*. c #777570",
"=. c #787772",
"-. c #7E7C77",
";. c #7F7D78",
":. c #815600",
">. c #845B00",
",. c #8C6500",
"<. c #946D00",
"1. c #867401",
"2. c #927D00",
"3. c #CC773A",
"4. c #807E79",
"5. c #817E79",
"6. c #867F73",
"7. c #AF8E00",
"8. c #B39400",
"9. c #B99F00",
"0. c #BBA000",
"q. c #C2A500",
"w. c #C7AB00",
"e. c #C9AD00",
"r. c #CBAE00",
"t. c #CCAF00",
"y. c #CE803E",
"u. c #E0833F",
"i. c #8A8275",
"p. c #85837D",
"a. c #88857F",
"s. c #CE9046",
"d. c #D99A50",
"f. c #E38641",
"g. c #E58E45",
"h. c #E79448",
"j. c #E29D4C",
"k. c #E7A04E",
"l. c #EAA554",
"z. c #EDA856",
"x. c #F6AB53",
"c. c #F9AC53",
"v. c #F2AB58",
"b. c #FDB055",
"n. c #888580",
"m. c #888580",
"M. c #8D8A84",
"N. c #918E87",
"B. c #938F89",
"V. c #99968E",
"C. c #9F9C95",
"Z. c #A29E96",
"A. c #A6A39C",
"S. c #A4A098",
/* pixels */
"L L L L L L L L L L L L L L L L L L L L L u         . J L L L L L L L L L L L L L L L L L L L L ",
"L L L L L L L L L L L L L L L L L L L L L u         . J L L L L L L L L L L L L L L L L L L L L ",
"L L L L L L L L L L L L L L L L L L L t # q 2.2.2.2.1.% # i L L L L L L L L L L L L L L L L L L ",
"L L L L L L L L L L L L L L L L L L P 1   7 e.e.e.e.9.X   u P L L L L L L L L L L L L L L L L L ",
"L L L L L L L K K K K K K K K L L t 1 5 8 U w.w.w.e.0.N 8 6 1 u L L L L L L L L L L L L L L L L ",
"L L L L L L K J H G G H J J J K L #   8 :.<.e.e.e.e.q.>.:.;   1 L L L L L L K K K L L L L L L L ",
"L L L L L L K J G G G G G G G J L #   8 R ,.8.8.8.8.7.>.R ;   1 L L L L L K J J K L L L L L L L ",
"L L L L L L K K J J J J J J K K L #   8 :.R R R R R R R R ;   1 L L L L L L K K K L L L L L L L ",
"L L L L L L L L L L L L L L L L L #   8 R R R R R R R R Y ;   1 L L L L L L L L L L L L L L L L ",
"L L L L L L L L L L L L L L L L L #   ; v M R R R R R b v +   1 L L L L L L L L L L L L L L L L ",
"L L L L L L L L L L L L L L L L L #   - c M R R R R Y v , +   1 L L L L L L L L L L L L L L L L ",
"L L L L L L L L L L L L L L L J J #   - c n Y Y Y Y T v c +   1 J J K L L L L L L L L L L L L L ",
"L L L L L L L L L L L L L L J X . & & : c c v v v v v c c < & O .   2 L L L L L L L L L L L L L ",
"L L L L L L L L L L L L L L J .   & = : c c c c c c c c c < = O     1 L L L L L L L L L L L L L ",
"L L L L L L L L L L L J $ # # & & s g z W A c c c c c D D l g = & & $ # 1 L K K K K L L L L L L ",
"L L L L L L L L L L L J       & = g l x ' D , , , , , ` ' x l s & = O   # J J H H J K K K L L L ",
"L L L L L L L L L J 1 1 O O O s s x F ) ' [ X.X.X.X...' ' ) F l s s = O $ 1 1 i G G G G J L L L ",
"L L L L L L L L L u     & & = l l ) ' ' ` @.A.A.A.A.C.{ ' ' ' F l l s & &     J J G G G J L L L ",
"L L L L L L L L L u   o g l l ) ) ) ) ` ` o.V.V.V.V.B.{ ' ) ) ) ) _ x l s   . J K J J K K L L L ",
"L L L L L L L L L u   O %.-.-.-.-.) l x ' | -.-.-.-.=.] ' x l } 5.-.-.5. .  . J L L L L L L L L ",
"L L L L L L L L L u   O %.;.;.-.-.) l x ` } -.-.-.-.=.' ` x g } 5.-.;.p. .  . J L L L L L L L L ",
"L L L L L L L L L u   O @.$.%.-.-.{ ) { O.#.n.n.n.n.p.@.O.' ) O.;.-.*.%.[   . J L L L L L L L L ",
"L L L L L L L L L u   o ) ' ] =.-.-.-.N.S.Z.Z.Z.Z.Z.Z.Z.Z.n.-.-.-.;.@.' z   . J L L L L L L L L ",
"L L L L L L L L K y   o ) ) ' %.=.-.-.M.Z.Z.Z.Z.Z.Z.Z.Z.Z.a.-.-.=.=.o.) l   . J L L L L L L L L ",
"L L L L L L L L K y     = = s ' ] %.;.5.5.M.Z.Z.Z.Z.Z.p.5.;.;.@.' [ z = &   . J L L L L L L L L ",
"L L L L L L L L L u     & = = ) ' $.;.-.-.n.Z.Z.Z.Z.Z.5.-.-.;.@.` ' l & &   . J L L L L L L L L ",
"L L L L L L L L L J u y O o O s s x _ ) ) ' O.O.O.O.o.` ) ) _ z s s & o $ u u K L L L L L L L L ",
"L L L L L L L L L L L J .     & & f l l l x ` ` ` ` _ l l l l s & & O   # L L L L L L L L L L L ",
"L L L L L L L L L L L J .   o g l x F x x ) ' ' ' ' ` Q F x F x l l =   # L L L K K L L L L L L ",
"L L L L L L L L L L L J .   o ) ' ' ' ' ' ' ' ' ' ' ' ' ' ' ' ' ' ' s   # L L K J J K L L L L L ",
"L L L L L L L L L L L J .   O [ | ` ) ` ' ' ' ' ' ' ' ' ' ) ) ' |  .g   # L L K J J K L L L L L ",
"L L L L L L L L L L L J .   O %.;.) l F ' ' ' ' ' ' ' ' ' x l } 5.5.x   # L L L L L L L L L L L ",
"L L L L L L L L L L L J     O %.-.) k x ' ` ` ` ` ` ` ` ` x k } 5.p.x   # L L L L L L L L L L L ",
"L L L L L L L L L J u u s s f *.-.{ ) ] | | | | | | | | | ' ) O.5.5.] = w u u K L L L L L L L L ",
"L L L L L L L L L u   O %.-.-.-.-.-.-.-.-.-.-.-.;.;.-.-.-.-.-.;.-.-.-.5. .  . J L L L L L L L L ",
"L L L L L L L K J u @ * &.i.6.%.%.=.=.-.-.-.-.-.;.-.-.-.-.=.=.*.%.%.=.i.+.@ $ J J K L L L L L L ",
"L L L L L L L 2   C j.j.l.z.d.* O x [ @.;.-.-.-.;.-.-.-.-. .[ g O o ( v.l.j.s.$ . u L L L L L L ",
"L L L L L L L 1   C x.x.x.x.j.@   z ' @.5.-.-.-.;.-.-.-.-.| ' s     / b.x.x.j.@   u L L L L L L ",
"L L L L L L L 1   C x.x.g.g.y.@   z ' { | | | | | | | | | ] ' s     ~ g.h.x.j.@   u L L L L L L ",
"L L L L L L L 1   C b.c.f.u.3.@   z ' ' ` ` ` ` ` ` ` ` ` ' ' s     ~ f.g.b.k.@   u L L L L L L ",
"L L L L L L L u 1 a / / ! E Z .   g ) ) ' ' ' ' ' ' ` ` ' ) ) <     9 E ~ / ^ e 1 i K L L L L L ",
"L L L L L L L L P u               s l x ' ' ' ' ' ' ' ` ' x l =               i H J K L L L L L ",
"L L L L L L L L L u               s l F ' ' ' ' ' ' ' ' ' x z =               i J J K L L L L L ",
"L L L L L L L L L J 1 1 1 1 1     e p h S j s s s s d S S h h *     # 1 1 1 2 K K K K L L L L L ",
"L L L L L L L L L L L L L L J .   3 0 0 0 >           9 0 0 0 %     1 P L L L L L L L L L L L L ",
"L L L L L L L L L L L L L L J .   9 B B B 9         . m B B B >     1 L L L L L L L L L L L L L ",
"L L L L L L L L L L L L L L J .   B I I I B         . V I I I 4     1 L L L L L L L L L L L L L ",
"L L L L L L L L L L L L L L J .   B I I I B         . V I I I 4     1 L L L L L L L L L L L L L "
};
