/* XPM */
static char *ezgif_1_18f40dfcc0[] = {
/* columns rows colors chars-per-pixel */
"48 48 148 2 ",
"   c #010101",
".  c #090C06",
"X  c #0C0C0B",
"o  c #1E0E01",
"O  c #100D0B",
"+  c #0E140A",
"@  c #1A1304",
"#  c #10130E",
"$  c #131A0D",
"%  c #0F1011",
"&  c #151515",
"*  c #1C1915",
"=  c #171819",
"-  c #191919",
";  c #200E00",
":  c #201002",
">  c #231906",
",  c #21170B",
"<  c #2B1F08",
"1  c #361700",
"2  c #3B1700",
"3  c #3C1B01",
"4  c #231C13",
"5  c #1C2512",
"6  c #1E2914",
"7  c #2E2208",
"8  c #362200",
"9  c #352B02",
"0  c #3F2A00",
"q  c #37260B",
"w  c #323107",
"e  c #3C2411",
"r  c #243017",
"t  c #263319",
"y  c #28371B",
"u  c #29381B",
"i  c #252525",
"p  c #2C2C2C",
"a  c #32302F",
"s  c #302F30",
"d  c #333333",
"f  c #383736",
"g  c #3C3C3B",
"h  c #401C00",
"j  c #442101",
"k  c #4C2700",
"l  c #4D2A01",
"z  c #412F0C",
"x  c #512B00",
"c  c #473203",
"v  c #48350D",
"b  c #5D3C00",
"n  c #422E16",
"m  c #493E36",
"M  c #403F3E",
"N  c #483927",
"B  c #2F411E",
"V  c #30421F",
"C  c #334521",
"Z  c #364A24",
"A  c #384C25",
"S  c #3B5027",
"D  c #5D4510",
"F  c #6D4500",
"G  c #6A4F00",
"H  c #724C01",
"J  c #784F00",
"K  c #7D5300",
"L  c #785B00",
"P  c #6D401F",
"I  c #41403F",
"U  c #4B4139",
"Y  c #6E4220",
"T  c #7A5529",
"R  c #7B5325",
"E  c #755938",
"W  c #454544",
"Q  c #484746",
"!  c #494847",
"~  c #4C4B4A",
"^  c #504F4E",
"/  c #51504F",
"(  c #575654",
")  c #585755",
"_  c #5A5856",
"`  c #5D5C59",
"'  c #605E5A",
"]  c #63615E",
"[  c #666461",
"{  c #6B6A66",
"}  c #6B6A68",
"|  c #716F6B",
" . c #73716D",
".. c #797672",
"X. c #7E7C77",
"o. c #7F7D78",
"O. c #747576",
"+. c #815600",
"@. c #856200",
"#. c #876900",
"$. c #8C6B00",
"%. c #936D00",
"&. c #927D00",
"*. c #A27F00",
"=. c #836847",
"-. c #9D7445",
";. c #A47D4E",
":. c #8B7862",
">. c #817F79",
",. c #A38000",
"<. c #B59500",
"1. c #B89A00",
"2. c #C7AB00",
"3. c #CAAE00",
"4. c #CDB100",
"5. c #DF823F",
"6. c #83817C",
"7. c #88857F",
"8. c #C88E4B",
"9. c #D09653",
"0. c #D69E5D",
"q. c #E28641",
"w. c #E28D44",
"e. c #F6AB53",
"r. c #F9AC52",
"t. c #FEB356",
"y. c #848381",
"u. c #8D8A83",
"i. c #8D8A84",
"p. c #928F88",
"a. c #908D88",
"s. c #97948C",
"d. c #9B9790",
"f. c #9C9993",
"g. c #9E9E9E",
"h. c #A39F97",
"j. c #A5A19A",
"k. c #A8A49B",
"l. c #ABA7A0",
"z. c #AEABA4",
"x. c #B1ADA6",
"c. c #B2AFA8",
"v. c #B5B2AC",
"b. c #BFBCB6",
"n. c #C0BDB7",
"m. c #C2BFB9",
"M. c #C5C5C5",
"N. c #FAFAFA",
/* pixels */
"A A A A A A A A A A A A A A A A A A A A A y                   5 A A A A A A A A A A A A A A A A ",
"A A A A A A A A A A A A A A A A A A A A A y                   5 A A A A A A A A A A A A A A A A ",
"A A A A A A A A A A A A A A A A A A A r + w &.&.&.&.&.&.&.G b 9 + 5 A A A A A A A A A A A A A A ",
"A A A A A A A A A A A A A A A A A A A 5   9 3.3.3.3.3.3.3.%.+.0   + A A A A A A A A A A A A A A ",
"A A A A A A A Z Z Z Z Z Z Z Z A A A A 5   9 2.2.2.2.2.2.2.%.K 0   + A A A A A A A A A A A A A A ",
"A A A A A A Z C V B B V C C C Z A 5 + 9 b L 2.2.2.2.2.2.2.1.<.#.b c + $ Z A Z Z Z A A A A A A A ",
"A A A A A A Z C B B B B B B B C A +   0 +.%.3.3.3.3.3.3.3.4.4.,.+.b     Z A C C Z A A A A A A A ",
"A A A A A A Z Z C Z C C C C Z Z A +   0 K @.*.*.*.*.,.*.*.$.@.H b l ; : 5 5 u Z Z A A A A A A A ",
"A A A A A A A A A A A A A A A A A +   0 +.K K K K K K K K l 2 3 3 h h 3     y A A A A A A A A A ",
"A A A A A A A A A A A A A A A A A +   8 F H K K K K H F F k 3 h h h h 3     y A A A A A A A A A ",
"A A A A A A A A A A A A A A A A A +   ; h x K K K K x 3 h h h h h h h 3     y A A A A A A A A A ",
"A A A A A A A A A A A A A A A C C +   o 3 l J J J J l 3 3 3 3 3 3 3 3 1     y A A A A A A A A A ",
"A A A A A A A A A A A A A A C .       X * * 4 4 j j 4 * * * * O             y A A A A A A A A A ",
"A A A A A A A A A A A A A A C         X = = = * 3 h 4 = = = = X             y A A A A A A A A A ",
"A A A A A A A A A A A C $ + # i i d d ~ ] ] ] ' U m a p p p p - & X     t y C Z Z Z A A A A A A ",
"A A A A A A A A A A A C       d d Q ~ [ >.>.>.X./ ~ g d d d d i = &     C C C V V C Z Z Z A A A ",
"A A A A A A A A A A A C     . p d Q ~ [ o.X.X...^ ~ g d d d d i = &     C C B V B B B B C A A A ",
"A A A A A A A A A u + # i i p W Q ..u.p.d.7._ ) ~ ~ Q Q Q g d i = & & & + + y Z C B B B C A A A ",
"A A A A A A A A A y     p d d Q ~ u.k.j.k.i.~ ~ ~ ~ ~ ~ ~ f d i & & & &     y A Z C C Z Z A A A ",
"A A A A A A A A A y   . ] { { 6.y.i.p.6...{ ~ ~ I M _ [ [ ` _ W d d d p .   y A A A A A A A A A ",
"A A A A A A A A A y   X s.j.k.n.m.i.X.] Q ! ~ Q d d { >.o.>.6.[ ~ ~ ~ Q .   y A A A A A A A A A ",
"A A A A A A A A A y   X f.l.l.b.b.f.p...] ] ] ] / /  .o.X. .| ` ~ ~ Q g .   y A A A A A A A A A ",
"A A A A A A A A A y   & z.n.b.b.b.b.n.x.h.h.h.h.h.h.y.X.X._ ~ ~ ~ Q d p .   y A A A A A A A A A ",
"A A A A A A A A Z t   X j.v.v.b.b.b.n.c.j.j.h.h.h.h.u.>.>.( Q Q Q W d p .   y A A A A A A A A A ",
"A A A A A A A A Z t   . g g ~ v.b.b.b.b.b.v.h.h.h.h.h.h.h.M = - - - = =     y A A A A A A A A A ",
"A A A A A A A A A y   . p d g v.b.b.b.b.b.v.h.h.h.h.h.h.h.g & = = = = &     y A A A A A A A A A ",
"A A A A A A A A A C y t # X & ] { { { { { [ / ~ g g g g g i & = = = = &     y A A A A A A A A A ",
"A A A A A A A A A A A C     . W ~ ~ ~ ~ ~ W d p = & & & & & = = = = = &     y A A A A A A A A A ",
"A A A A A A A A A A A C     . Q ~ ~ ~ ~ ~ Q d d = = = = = = = = = = = &     y A Z Z A A A A A A ",
"A A A A A A A A A A A C     . [ | p X } M.g.Q W p p p p p - = = = & . . t y C A C C Z A A A A A ",
"A A A A A A A A A A A C .   .  .>.-   O.N.M.~ ~ d d d d d - & = = &     C A A Z C C Z A A A A A ",
"A A A A A A A A A A A C     . ` [ E R :.g.y.M g d d d d d p i = . # 5 6 Z A A A A A A A A A A A ",
"A A A A A A A A A A A C     . Q ~ 9.t.;.Q W d d d d d d d d d =   + A A A A A A A A A A A A A A ",
"A A A A A A A A A A A C     . d f -.8.=.W Q Q Q Q Q g g g p i - + 5 A A A A A A A A A A A A A A ",
"A A A A A A A A A A A C           i d d d Q X.X.X.X._ ~ ~ &   5 A A A A A A A A A A A A A A A A ",
"A A A A A A A A A A A C .         i d d d ! X.X.X.X._ ~ ~ &   5 A A A A A A A A A A A A A A A A ",
"A A A A A A A A A Z C C C C u     d ~ ~ ! ) X.X.X.X._ ~ ~ &   5 A A A A A A A A A A A A A A A A ",
"A A A A A A A Z C C B B B C V     f ~ ~ ~ _ X.X.X.X._ ~ ~ &   5 A A A A A A A A A A A A A A A A ",
"A A A A A A Z C B B V V B B u     f ~ a % N 0.0.0.0.N & & .   5 A A A A A A A A A A A A A A A A ",
"A A A A A A Z C V C Z Z C C u     f ^ i   n r.r.r.r.n         5 A A A A A A A Z A A A A A A A A ",
"A A A A A A A Z Z Z A A A Z C     f ^ i   n e.e.e.e.n         5 A A A Z C C C C C Z Z A A A A A ",
"A A A A A A A A A A A A A A C     p g -   e w.w.e.e.n         5 A A A C B B B B B V Z A A A A A ",
"A A A A A A A A A A A A A A C     i d =   e 5.q.r.r.n         5 A A A Z C B B C C C Z A A A A A ",
"A A A A A A A A A A A A A A Z 6 5 - = * @ q P Y T T ,     $ 5 u A A A A Z Z Z Z Z Z Z A A A A A ",
"A A A A A A A A A A A A A A A A A +   @ z <               u S A A A A A A A A A A A A A A A A A ",
"A A A A A A A A A A A A A A A A A +   > v q @ @ @ @       y A A A A A A A A A A A A A A A A A A ",
"A A A A A A A A A A A A A A A A A +   7 D D D D D D @     y A A A A A A A A A A A A A A A A A A ",
"A A A A A A A A A A A A A A A A A +   7 D D D D D D @     y A A A A A A A A A A A A A A A A A A "
};
