/* XPM */
static char *ezgif_6_795570a638[] = {
/* columns rows colors chars-per-pixel */
"48 48 163 2 ",
"   c #020201",
".  c #050608",
"X  c #0B0C0B",
"o  c #090F07",
"O  c #100600",
"+  c #130C05",
"@  c #0D1309",
"#  c #1E1504",
"$  c #13190C",
"%  c #10160B",
"&  c #141414",
"*  c #191C12",
"=  c #171819",
"-  c #1A1A1A",
";  c #211600",
":  c #251E07",
">  c #2C1A0C",
",  c #351B07",
"<  c #3F1B00",
"1  c #351E0F",
"2  c #231912",
"3  c #1B2512",
"4  c #1E2914",
"5  c #2D2108",
"6  c #362E00",
"7  c #3D2C0B",
"8  c #2F330E",
"9  c #232F16",
"0  c #27231D",
"q  c #3A2110",
"w  c #3E2D16",
"e  c #243017",
"r  c #27361A",
"t  c #29371B",
"y  c #29381B",
"u  c #2C3514",
"i  c #343118",
"p  c #242423",
"a  c #282827",
"s  c #2C2C2C",
"d  c #39352B",
"f  c #2F2F30",
"g  c #2F3031",
"h  c #333333",
"j  c #383736",
"k  c #393837",
"l  c #373838",
"z  c #3C3C3B",
"x  c #401C00",
"c  c #512B00",
"v  c #4E390E",
"b  c #45330C",
"n  c #5B3C00",
"m  c #513003",
"M  c #412D16",
"N  c #4A361E",
"B  c #442605",
"V  c #603900",
"C  c #48372E",
"Z  c #48372E",
"A  c #403F3D",
"S  c #2F411E",
"D  c #30421F",
"F  c #334522",
"G  c #364A24",
"H  c #384C25",
"J  c #3B5027",
"K  c #5E4610",
"L  c #6D4500",
"P  c #734B00",
"I  c #635500",
"U  c #7D5400",
"Y  c #785B00",
"T  c #604710",
"R  c #604811",
"E  c #4A4239",
"W  c #444038",
"Q  c #7B5529",
"!  c #755938",
"~  c #3E3F40",
"^  c #454444",
"/  c #494745",
"(  c #494847",
")  c #4C4B4A",
"_  c #454749",
"`  c #5A4940",
"'  c #504F4D",
"]  c #53504C",
"[  c #575653",
"{  c #585755",
"}  c #5A5856",
"|  c #5D5B59",
" . c #6D5945",
".. c #705D45",
"X. c #625F5A",
"o. c #7A644B",
"O. c #6D6257",
"+. c #64625F",
"@. c #6F6358",
"#. c #666461",
"$. c #6B6965",
"%. c #6E6D69",
"&. c #706E6A",
"*. c #74726E",
"=. c #777570",
"-. c #797773",
";. c #7D7B76",
":. c #7E7C79",
">. c #805700",
",. c #876000",
"<. c #916B00",
"1. c #917400",
"2. c #A27F00",
"3. c #854524",
"4. c #83543B",
"5. c #C77539",
"6. c #DA7F3E",
"7. c #996D43",
"8. c #B67D45",
"9. c #A47E50",
"0. c #807E79",
"q. c #A38100",
"w. c #C7AB00",
"e. c #C9AD00",
"r. c #CCAF00",
"t. c #CBB000",
"y. c #CE803E",
"u. c #DB823F",
"i. c #968166",
"p. c #99856B",
"a. c #9F896E",
"s. c #83817B",
"d. c #93897C",
"f. c #DC8440",
"g. c #D99147",
"h. c #CE9653",
"j. c #E38D44",
"k. c #E19C4C",
"l. c #F4A751",
"z. c #F6AB53",
"x. c #FBAD54",
"c. c #FFB256",
"v. c #858381",
"b. c #8B8B89",
"n. c #908D87",
"m. c #928F89",
"M. c #99958E",
"N. c #94918A",
"B. c #9D9A94",
"V. c #9D9D9D",
"C. c #A09D98",
"Z. c #A6A29A",
"A. c #A5A199",
"S. c #A8A49C",
"D. c #AEAAA2",
"F. c #AEAFAF",
"G. c #B4B1AA",
"H. c #BFBFBF",
"J. c #B1B2B3",
"K. c #C0BDB7",
"L. c #C1BEB8",
"P. c #CACAC9",
"I. c #FAFAFA",
/* pixels */
"H H H H H H H H H H H H H H H H H H H H H H 3       t H H H H H H H H H H H H H H H H H H H H H ",
"H H H H H H H H H H H H H H H H H H H H H H 3       t H H H H H H H H H H H H H H H H H H H H H ",
"H H H H H H H H H H H H H H H H H H H H H J 3       y H H H H H H H H H H H H H H H H H H H H H ",
"H H H H H H H H H H H H H H H H H H F y t y 8 6 6 6 u y y F H H H H H H H H H H H H H H H H H H ",
"H H H H H H H G G G G G G G G H H H y       I r.w.w.6     y H H H H H H H H H H H H H H H H H H ",
"H H H H H H G F D S S D F F F G H 3 : n n n 1.e.w.w.Y n n : @ e H H H H H H G G G H H H H H H H ",
"H H H H H H G F S S S S S S S F H @ ; U U U q.t.e.e.<.U U ;   3 H H H H H G F F G H H H H H H H ",
"H H H H H H G G F F F F F F G G H @ ; U U U <.q.2.q.,.U U ;   3 H H H H H H G G G H H H H H H H ",
"H H H H H H H H H H H H H H H H H @ ; U U U U U U U U U U ;   3 H H H H H H H H H H H H H H H H ",
"H H H H H H H H H H H H H H H H H @ # L L L P U U U P L L #   3 H H H H H H H H H H H H H H H H ",
"H H H H H H H H H H H H H H H H H @ O x x < n U U U c < x O   3 H H H H H H H H H H H H H H H H ",
"H H H H H H H H H H H H H H H H H @ O x x < V >.U U c < x O   3 H H H H H H H H H H H H H H H H ",
"H H H H H H H H H H H H H H G y t @ + , , , m L L L B , , + . * y G H H H H H H H H H H H H H H ",
"H H H H H H H H H H H H H H F     & = = = = > x x x 2 = = = = X   F H H H H H H H H H H H H H H ",
"H H H H H H H H H H H F $ @ @ & & a h z z z ] @.O.O./ z z h s - & @ @ $ F H G G G G H H H H H H ",
"H H H H H H H H H H H F       = = s z ) ) ) #.0.:.0.} ) ) z h a =       F F F D D F G G G H H H ",
"H H H H H H H H H H H F       = = s z ) ) ( #.0.;.;.} ( ) z h a =       F D D D S S S D F H H H ",
"H H H H H H H H H H e @ & & = s s z / ) ) ( *.B.M.M.X.( ) ^ ^ z s = & & @ @ % F F S S S F H H H ",
"H H H H H H H H H H 3   = = = s h ^ ) ) ) ( =.Z.Z.Z.+.( ) ) ) A s = = =       F G F F G G H H H ",
"H H H H H H H H H H 3 . ^ ( ) [ } ^ ^ ) ) ( %.m.n.n.| ( ) ^ z ) { ) ) ^ .     F H H H H H H H H ",
"H H H H H H H H H H 3 X *.0.0.0.0.^ j ) ) ( #.;.;.;.} ( ) z h } s.0.0.=.X     F H H H H H H H H ",
"H H H H H H H H H H 3 X *.0.:.;.;.^ h ( ( / +.;.;.;.{ ( ( h s [ 0.:.0.*.X     F H H H H H H H H ",
"H H H H H H H H G H 3 . | #.#.;.;.&.%.=.=.*.b.C.B.B.0.*.=.%.$.*.;.#.#.| X     F H H H H H H H H ",
"H H H H H H H H F F 3 . A ^ ) ;.0.B.Z.S.S.Z.G.L.L.L.D.Z.S.Z.Z.N.-.( ^ W .     F H H H H H H H H ",
"H H H H H H H H F F 3   = - a M.Z.Z.D.K.K.K.L.L.L.L.K.K.K.D.Z.Z.M.a - =       F H H H H H H H H ",
"H H H H H H H H G H y 3 X X & [ | #.%.-.-.-.:.v.v.v.;.-.-.%.$.+.[ & X X 3 3 4 G H H H H H H H H ",
"H H H H H H H H H H H F       & = s h f h s z ( ( ( h s f h h p &       F H H H H H H H H H H H ",
"H H H H H H H H H H H F       = = s h h h h A ) ) ) z h h h h a =       F H H H H H H H H H H H ",
"H H H H H H H H H H H F       = = s h h h h z ) ) ) z h h h h a =       F H H H G G H H H H H H ",
"H H H H H H H H H H H F     . z z V.b.X X X z *.&.&.a X X b.H.:.h .     F H H G F F G H H H H H ",
"H H H H H H H H H H H F     . ^ ) P.J.      z s.0.0.-     F.I.V.^ .     F H H G F F G H H H H H ",
"H H H H H H H H H H H F     . z A v.d.Q Q Q ..#.#.#.! Q Q d.V.%.j .     F H H H H H H H H H H H ",
"H H H H H H H H H H H F       s h ~ o.c.c.c.9._ ( ( h.c.c.o.^ z s       F H H H H H H H H H H H ",
"H H H H H H H H H H F t p p p ^ ^ ^  .g.g.g.7.` ` ` 8.g.g. .^ ^ ^ p p p t y y G H H H H H H H H ",
"H H H H H H H H H H 3 X *.;.;.;.;.^ Z 3.3.3.3.3.3.3.3.3.3.C h } 0.;.;.*.X     F H H H H H H H H ",
"H H H H H H H H H H 3 . *.;.;.0.0.^ Z 3.3.3.3.3.3.3.3.3.3.C g } s.;.;.*..     F H H H H H H H H ",
"H H H H H H H F t r i N i.a.p.X.| ^ E 4.4.4.4.4.4.4.4.4.4.E z ( X.p.a.i.N M M t y F H H H H H H ",
"H H H H H H H 3     Q x.z.z.k.+   h | ;.;.;.;.;.;.;.;.;.;.} ) a + k.z.z.z.z.k.+   y H H H H H H ",
"H H H H H H H 3     Q x.j.j.y.+   j ] } } } } } } } } } } ' ) a + 6.j.j.l.z.k.+   y H H H H H H ",
"H H H H H H H 3     Q x.u.6.5.+   j ) ( ( ( ( ( ( ( ( ( ( ) ) a + 5.6.u.l.z.k.+   y H H H H H H ",
"H H H H H H H 3     Q x.f.u.5.+   h ) ) ) ) ) ) ) ) ) ) ) ) ) a + 5.u.f.l.z.k.+   r H H H H H H ",
"H H H H H H H F t y i M q q 1     s ~ ) ) ) ) ) ) ) ) ) ) z z -   1 q q M M w 9 9 y G H H H H H ",
"H H H H H H H H H H 9 o @ @ @     0 d E E E A j j j A E E d d *   @ @ @ @ o @ S F F G H H H H H ",
"H H H H H H H H H H H H H H F     5 7 7 7 7 #       5 7 7 7 7 #   F H H G G G G G G G H H H H H ",
"H H H H H H H H H H H H H H F     5 7 7 7 7 #       5 7 7 7 7 #   F H H H H H H H H H H H H H H ",
"H H H H H H H H H H H H H H F     5 7 7 7 7 #       5 7 7 7 7 #   F H H H H H H H H H H H H H H ",
"H H H H H H H H H H H H H H F     7 v v v v :       7 v v v v :   F H H H H H H H H H H H H H H ",
"H H H H H H H H H H H H H H F     b T K K T 5       b T K K R 5   F H H H H H H H H H H H H H H "
};
