/* XPM */
static char *ezgif_4_f6db8a73bb[] = {
/* columns rows colors chars-per-pixel */
"48 48 161 2 ",
"   c #010101",
".  c #090600",
"X  c #0B0C03",
"o  c #0C0C0C",
"O  c #100700",
"+  c #120A03",
"@  c #0F140A",
"#  c #1A1304",
"$  c #10110F",
"%  c #13190C",
"&  c #1A1D0A",
"*  c #151515",
"=  c #1B1915",
"-  c #171819",
";  c #191919",
":  c #200E00",
">  c #221500",
",  c #251A08",
"<  c #21170B",
"1  c #3D1B01",
"2  c #3B1700",
"3  c #231C14",
"4  c #201F1F",
"5  c #1B2512",
"6  c #1F211E",
"7  c #1E2914",
"8  c #25270E",
"9  c #3D2A01",
"0  c #3B2B0B",
"q  c #22201D",
"w  c #202A16",
"e  c #233017",
"r  c #263319",
"t  c #28371B",
"y  c #2A391C",
"u  c #252525",
"i  c #2C2C2C",
"p  c #282523",
"a  c #302F2F",
"s  c #34312F",
"d  c #333333",
"f  c #383736",
"g  c #3D3C3C",
"h  c #401C00",
"j  c #442101",
"k  c #4D2A01",
"l  c #512B00",
"z  c #44310C",
"x  c #483401",
"c  c #563000",
"v  c #5B3500",
"b  c #5C3B00",
"n  c #412313",
"m  c #422E16",
"M  c #663C1D",
"N  c #403F3F",
"B  c #493E36",
"V  c #483927",
"C  c #2F411E",
"Z  c #30421F",
"A  c #334521",
"S  c #364A24",
"D  c #384C25",
"F  c #3B5027",
"G  c #5D4510",
"H  c #6D4600",
"J  c #734D01",
"K  c #784F00",
"L  c #7D5400",
"P  c #765D00",
"I  c #7A5800",
"U  c #6D401F",
"Y  c #47413C",
"T  c #6E4220",
"R  c #6E412A",
"E  c #7A5529",
"W  c #7B5426",
"Q  c #464544",
"!  c #484746",
"~  c #4A4947",
"^  c #4C4B4A",
"/  c #514E4C",
"(  c #51504F",
")  c #535250",
"_  c #585755",
"`  c #595856",
"'  c #5C5B58",
"]  c #705D45",
"[  c #605E5A",
"{  c #63615E",
"}  c #666461",
"|  c #696764",
" . c #6B6967",
".. c #6D6C68",
"X. c #716F6B",
"o. c #74726E",
"O. c #777570",
"+. c #787671",
"@. c #7D7B76",
"#. c #7F7D78",
"$. c #805600",
"%. c #835B00",
"&. c #876900",
"*. c #836400",
"=. c #867401",
"-. c #927D00",
";. c #9F7C00",
":. c #937200",
">. c #884827",
",. c #88633E",
"<. c #C77438",
"1. c #CD783A",
"2. c #DA7F3E",
"3. c #836848",
"4. c #B07C46",
"5. c #A57E50",
"6. c #817E79",
"7. c #A38000",
"8. c #B59600",
"9. c #B99F00",
"0. c #BBA000",
"q. c #C2A500",
"w. c #C7AB00",
"e. c #C9AD00",
"r. c #CBAE00",
"t. c #C9AE00",
"y. c #CCAF00",
"u. c #CDB100",
"i. c #DC833F",
"p. c #84827D",
"a. c #D48942",
"s. c #DF9447",
"d. c #CA9454",
"f. c #D69E5D",
"g. c #E18541",
"h. c #E99749",
"j. c #E49E4C",
"k. c #F6AA53",
"l. c #F9AC53",
"z. c #F4A751",
"x. c #FEB356",
"c. c #898781",
"v. c #8F8D88",
"b. c #8C8983",
"n. c #918E87",
"m. c #928F89",
"M. c #99958E",
"N. c #9C9993",
"B. c #979695",
"V. c #A29E96",
"C. c #A5A199",
"Z. c #A6A29A",
"A. c #A8A49B",
"S. c #ADAAA4",
"D. c #B8B5AE",
"F. c #BFBBB5",
"G. c #BAB7B1",
"H. c #C0BDB7",
"J. c #C2BFB9",
"K. c #E0DFDF",
"L. c #EEEEEE",
/* pixels */
"D D D D D D D D D D D D D D D D D @                 . A D D D D D D D D D D D D D D D D D D D D ",
"D D D D D D D D D D D D D D D D D @                 . A D D D D D D D D D D D D D D D D D D D D ",
"D D D D D D D D D D D D D D A % @ x b P -.-.-.-.-.-.=.& @ y D D D D D D D D D D D D D D D D D D ",
"D D D D D D D D D D D D D D A     b L 7.u.t.t.t.t.y.9.X   y F D D D D D D D D D D D D D D D D D ",
"D D D D D D D S S S A S A 7 7 9 9 &.7.8.t.w.w.w.w.w.0.x 9 8 5 y D D D D D D D D D D D D D D D D ",
"D D D D D D S A Z C C A e   . J $.8.t.t.w.w.w.w.w.w.q.%.$.>   5 D D D D D D S S S D D D D D D D ",
"D D D D D D S A C C Z A e   . J L 8.u.t.t.t.t.t.t.t.q.$.L >   7 D D D D D S A A S D D D D D D D ",
"D D D D D D S S A y 5 5 & : > v b I *.:.7.7.;.;.7.7.;.$.L >   7 D D D D D D S S S D D D D D D D ",
"D D D D D D D D D t     O h h 1 1 1 2 v L L L L L L L L L >   7 D D D D D D D D D D D D D D D D ",
"D D D D D D D D D t     O h h h h h 1 c H J L L L L L H H #   7 D D D D D D D D D D D D D D D D ",
"D D D D D D D D D t     O h h h h h h h 1 l L L L L K j h O   7 D D D D D D D D D D D D D D D D ",
"D D D D D D D D D t     O 1 1 1 1 1 1 1 1 k K J J J J j 1 O   5 A A D D D D D D D D D D D D D D ",
"D D D D D D D D D t               * = = = 3 j j 3 3 3 = = .     . % D D D D D D D D D D D D D D ",
"D D D D D D D D D t               * - - - 3 h 1 = - - - - .       @ D D D D D D D D D D D D D D ",
"D D D D D D D D D A t y 7     * * u i i i s B Y [ { { { { Q f i u 6 @ % A D S S S S D D D D D D ",
"D D D D D D D D D D F F y     * - i f d d g ^ ) @.6.6.#.#.` ^ g f u     A A A Z Z A S S S D D D ",
"D D D D D D D D D A 7 7 = o o * - i d g g Q ^ ^ { } | b.n.#.+.' g f - - 5 5 5 y C C C C A D D D ",
"D D D D D D D D D t     . - - - - i d N ^ ^ ^ ^ ^ ^ ) N.C.C.A.+.^ ! f a       A A C C C A D D D ",
"D D D D D D D D D t     . * * * * i d g ^ ^ ^ ^ ^ ^ ) N.C.C.C.O.~ Q d i .   . A S A A S S D D D ",
"D D D D D D D D D t     o d d ! ~ ) _ ' } } } { ^ ^ / o.+.c.m.+.{ }  .{ o   . A D D D D D D D D ",
"D D D D D D D D D t     * ^ ) @.p.6.6.6.#.#.#.+.^ ^ ^ ! ! ..@.@.@.c.C.M.o   . A D D D D D D D D ",
"D D D D D D D D D t     * ! ~ ..X.+.#.#.#.#.#.@.} { { { { p.m.m.v.m.M.b.o   . A D D D D D D D D ",
"D D D D D D D D D t     o d f ^ ^ X.#.#.#.#.#.6.V.V.V.V.V.D.H.F.J.S.#.o.o   . A D D D D D D D D ",
"D D D D D D D D S r     o d d ! ! | O.o.o.+.6.p.V.V.V.C.C.D.H.F.J.S.+...o   . A D D D D D D D D ",
"D D D D D D D D S r     . - - ; ; 6 u u ; Y N.V.V.V.C.G.F.F.F.F.J.N.g f .   . A D D D D D D D D ",
"D D D D D D D D D t     . - - - - - - - * g V.V.V.V.C.F.F.F.F.F.J.B.d i .   . A D D D D D D D D ",
"D D D D D D D D D A t y w . o * - - - - - u g g ^ ( ) |  . . . ...( o $ r t y S D D D D D D D D ",
"D D D D D D D D D D D D y     * - - - - - * * * i d d Q ! ^ ^ ^ ^ f     A D D D D D D D D D D D ",
"D D D D D D D D D D D D t     * - - * ; u u u u g g ! B.B.! u Q | ~   . A D D D S S D D D D D D ",
"D D D D D D D D D D D D t     * - - - u f f d f ^ ^ ` K.L.g   g p.'   . A D D S A A S D D D D D ",
"D D D D D D D D D D D D t     * - - * u f d d f ^ ^ ` K.L.g   g p.'   . A D D S A A S D D D D D ",
"D D D D D D D D D D D D A 7 5 o o ; u i d d d f g g ! B.B.3.W ] | ~   . A D D D D D D D D D D D ",
"D D D D D D D D D D D D D D A     u f f d d d d d d d ! ~ d.x.5.^ f   . A D D D D D D D D D D D ",
"D D D D D D D D D D D D D D A % @ 6 u a g g ! ! ! ! ! ! ! 4.s.,.f p   . A D D D D D D D D D D D ",
"D D D D D D D D D D D D D D D D D @   u ^ ` #.#.@.#.O.g d R >.n       . A D D D D D D D D D D D ",
"D D D D D D D D D D D D D D D D D @   u ^ ` #.#.@.#.O.g f R >.n     . X A D D D D D D D D D D D ",
"D D D D D D D D D S A A S D D D D @   u ^ ` #.#.@.#.+.^ ^ ^ / p   @ A A S D D D D D D D D D D D ",
"D D D D D D D S A Z C C C A A S S @   u ^ ` #.#.@.#.+./ ^ ^ ^ u   @ D D D D D D D D D D D D D D ",
"D D D D D D S A C C C Z C C C A S @   o * V f.f.f.f.d.q * g ^ u   @ D D D D D D D D D D D D D D ",
"D D D D D D S A Z A A S A Z C A S @       m l.l.l.l.j.+   f / u   @ D D D D D S D D D D D D D D ",
"D D D D D D D S S S D D D S S S S @       m k.k.h.h.a.+   i Q q   @ D S A A A A A S S D D D D D ",
"D D D D D D D D D D D D D D D D D @       m k.z.i.2.<.+   u f -   @ D A C C C C C Z S D D D D D ",
"D D D D D D D D D D D D D D D D D @       m l.l.g.g.1.+   u f -   @ D S A C C A A A S D D D D D ",
"D D D D D D D D D D D D D D D D D e 7 @   < E E T U M , # = - = 7 e D D S S S S S S S D D D D D ",
"D D D D D D D D D D D D D D D D D D F 7               0 0 +   7 F D D D D D D D D D D D D D D D ",
"D D D D D D D D D D D D D D D D D D D 7   . # # # # # z z +   7 D D D D D D D D D D D D D D D D ",
"D D D D D D D D D D D D D D D D D D D 7   # G G G G G G G #   7 D D D D D D D D D D D D D D D D ",
"D D D D D D D D D D D D D D D D D D D 7   # G G G G G G G #   7 D D D D D D D D D D D D D D D D "
};
