/* XPM */
static char *ezgif_1_39623a4544[] = {
/* columns rows colors chars-per-pixel */
"48 48 144 2 ",
"   c #161616",
".  c #161617",
"X  c #171617",
"o  c #171717",
"O  c #191817",
"+  c #1B1917",
"@  c #181A19",
"#  c #181B19",
"$  c #1A1B19",
"%  c #191D1A",
"&  c #191D1B",
"*  c #1B1D1A",
"=  c #191E1A",
"-  c #1C1D1A",
";  c #1D1E1A",
":  c #1C201B",
">  c #1C211B",
",  c #1D211B",
"<  c #1F231B",
"1  c #1B211C",
"2  c #1E231D",
"3  c #2C2315",
"4  c #2D2315",
"5  c #2B2517",
"6  c #2E2415",
"7  c #2F2415",
"8  c #2D2617",
"9  c #2F2817",
"0  c #21251B",
"q  c #22251B",
"w  c #20231C",
"e  c #20261D",
"r  c #212A1E",
"t  c #252A1D",
"y  c #272F1F",
"u  c #2F2818",
"i  c #302515",
"p  c #312515",
"a  c #312615",
"s  c #342715",
"d  c #332A17",
"f  c #342917",
"g  c #372B17",
"h  c #302918",
"j  c #312918",
"k  c #332E1B",
"l  c #372E1A",
"z  c #20392B",
"x  c #203B2D",
"c  c #203C2D",
"v  c #223D2D",
"b  c #213F2F",
"n  c #223F2E",
"m  c #253E2D",
"M  c #493413",
"N  c #4A3413",
"B  c #4C3512",
"V  c #4F3712",
"C  c #4E3713",
"Z  c #493615",
"A  c #4E3813",
"S  c #4B3814",
"D  c #513913",
"F  c #25422F",
"G  c #224230",
"H  c #224330",
"J  c #234330",
"K  c #244631",
"L  c #264631",
"P  c #274932",
"I  c #305E37",
"U  c #306039",
"Y  c #31643A",
"T  c #31643B",
"R  c #32643A",
"E  c #34673B",
"W  c #35673B",
"Q  c #32673C",
"!  c #32683C",
"~  c #33683C",
"^  c #346B3D",
"/  c #376D3E",
"(  c #376E3E",
")  c #3A703E",
"_  c #604B1A",
"`  c #624D1A",
"'  c #644F1B",
"]  c #644E1C",
"[  c #66511D",
"{  c #455733",
"}  c #465733",
"|  c #465833",
" . c #495932",
".. c #495D35",
"X. c #4A5D35",
"o. c #4B5E35",
"O. c #4C5E35",
"+. c #735D2A",
"@. c #715F2D",
"#. c #755F2C",
"$. c #4E6238",
"%. c #4E6338",
"&. c #4E6438",
"*. c #516337",
"=. c #526337",
"-. c #4F7A3F",
";. c #77642F",
":. c #79622C",
">. c #7B642E",
",. c #7FA63F",
"<. c #518343",
"1. c #538242",
"2. c #528343",
"3. c #568442",
"4. c #538745",
"5. c #548644",
"6. c #598742",
"7. c #568945",
"8. c #588B45",
"9. c #598C46",
"0. c #598D46",
"q. c #5B8E46",
"w. c #5C8E46",
"e. c #5C8F46",
"r. c #5E9146",
"t. c #609346",
"y. c #6D9A43",
"u. c #6D9B43",
"i. c #6F9D43",
"p. c #72A447",
"a. c #74A747",
"s. c #75A747",
"d. c #77A947",
"f. c #78AA47",
"g. c #79AB47",
"h. c #88B343",
"j. c #89B343",
"k. c #8CBB47",
"l. c #8EBC47",
"z. c #8EBD47",
"x. c #91BF47",
"c. c #93C147",
"v. c #93C247",
"b. c #94C247",
/* pixels */
"%.%.%.%.%.%.%.%.%.%.%.%.%.%.%.%.%.%.%.%.X.- . . . . - X.%.%.%.%.%.%.%.%.%.%.%.%.%.%.%.%.%.%.%.%.",
"%.%.%.%.%.%.%.%.%.%.%.%.%.%.%.%.%.%.%.&.X.* . . . . * X.&.%.%.%.%.%.%.%.%.%.%.%.%.%.%.%.%.%.%.%.",
"%.%.%.%.%.%.%.%.%.%.%.%.%.%.%.%.%.%.X.X.| t 0 0 0 0 t | X.X.%.%.%.%.%.%.%.%.%.%.%.%.%.%.%.%.%.%.",
"%.%.%.%.%.%.%.%.%.%.%.%.%.%.%.%.%.X.w * t ,.j.j.j.j.,.t * w X.%.%.%.%.%.%.%.%.%.%.%.%.%.%.%.%.%.",
"%.%.%.%.%.%.%.%.%.%.%.%.%.%.%.%.&.X.* . 0 j.c.c.c.c.j.0 . * X.%.%.%.%.%.%.%.%.%.%.%.%.%.%.%.%.%.",
"%.%.%.%.%.%.%.%.%.%.%.%.%.%.%.X.X.{ e : y j.c.c.c.c.j.y : e { X.X.%.%.%.%.%.%.%.%.%.%.%.%.%.%.%.",
"%.%.%.%.%.%.%.%.%.%.%.%.%.%.X.w * e -.<.6.z.c.c.c.c.z.6.<.-.e * w X.%.%.%.%.%.%.%.%.%.%.%.%.%.%.",
"%.%.%.%.%.%.%.%.%.%.%.%.%.%.X.* . : <.0.r.z.c.c.c.c.z.r.0.<.: . * X.%.%.%.%.%.%.%.%.%.%.%.%.%.%.",
"%.%.%.%.%.%.%.%.%.%.%.%.%.%.X.- . : 3.e.t.k.x.x.x.x.k.t.e.3.: . - X.%.%.%.%.%.%.%.%.%.%.%.%.%.%.",
"%.%.%.%.%.%.%.%.%.%.%.%.%.%.X.- . : y.s.s.g.g.g.g.g.g.s.s.y.: . - X.%.%.%.%.%.%.%.%.%.%.%.%.%.%.",
"%.%.%.%.%.%.%.%.%.%.%.%.%.%.X.- . : i.g.d.d.d.d.d.d.d.d.g.i.: . * X.%.%.%.%.%.%.%.%.%.%.%.%.%.%.",
"%.%.%.%.%.%.%.%.%.%.%.%.X.X.{ 2 * r y.s.s.d.d.d.d.d.d.s.s.y.r * 2 { X.X.%.%.%.%.%.%.%.%.%.%.%.%.",
"%.%.%.%.%.%.%.%.%.%.%.X.w * 2 I Y W 8.e.r.s.d.d.d.d.s.r.e.8.W Y I 2 * w X.%.%.%.%.%.%.%.%.%.%.%.",
"%.%.%.%.%.%.%.%.%.%.%.X.* . * Y ^ ^ 7.0.e.s.d.d.d.d.s.e.0.7.^ ^ Y * . * X.&.%.%.%.%.%.%.%.%.%.%.",
"%.%.%.%.%.%.%.%.%.X.X.{ : @ 1 E ^ ) 7.0.0.p.s.s.s.s.p.e.0.7.) ^ E 1 @ : { X.X.%.%.%.%.%.%.%.%.%.",
"%.%.%.%.%.%.%.%.X.w * : z x F <.7.7.0.0.0.0.e.e.e.e.0.0.0.0.7.7.<.F x z : * w X.%.%.%.%.%.%.%.%.",
"%.%.%.%.%.%.%.%.X.* . @ b b K 5.0.0.0.0.0.0.0.0.0.0.0.0.0.0.0.0.5.K b b @ . * X.%.%.%.%.%.%.%.%.",
"%.%.%.%.%.%.%.%.X.- . @ b J P <.7.7.0.0.0.0.0.0.0.0.0.0.0.0.7.7.<.P J b @ . - X.%.%.%.%.%.%.%.%.",
"%.%.%.%.%.%.%.%.X.- . * U ~ ~ ^ ^ ) 7.0.0.0.0.0.0.0.0.0.0.7.) ^ ^ ~ ~ U * . - X.%.%.%.%.%.%.%.%.",
"%.%.%.%.%.%.%.%.X.- . * Y ^ ^ ^ ^ ^ 7.0.0.0.0.0.0.0.0.0.0.7.^ ^ ^ ^ ^ Y * . - X.%.%.%.%.%.%.%.%.",
"%.%.%.%.%.%.%.%.X.- . * Y ^ ^ ^ ^ ^ 4.7.7.7.7.7.7.7.7.7.7.4.^ ^ ^ ^ ^ Y * . - X.%.%.%.%.%.%.%.%.",
"%.%.%.%.%.%.%.%.X.- . * Y ^ ^ ^ ^ ^ ^ ( ^ ^ ( ^ ^ ^ ^ ^ ^ ^ ^ ^ ^ ^ ^ Y * . - X.%.%.%.%.%.%.%.%.",
"%.%.%.%.%.%.%.%.X.- . * Y ^ ^ ^ ^ ^ ^ ^ ^ ^ ^ ^ ^ ^ ^ ^ ^ ^ ^ ^ ^ ^ ^ Y * . - X.%.%.%.%.%.%.%.%.",
"%.%.%.%.%.%.%.%.X.- . * U Q Q ^ ^ ^ ^ ^ ^ ^ ^ ^ ^ ^ ^ ^ ^ ^ ^ ^ ^ ~ ~ U * . - X.%.%.%.%.%.%.%.%.",
"%.%.%.%.%.%.%.%.X.- . @ b J K ~ ^ ^ ^ ^ ^ ^ ^ ^ ^ ^ ^ ^ ^ ^ ^ ^ Q K J b @ . - X.%.%.%.%.%.%.%.%.",
"%.%.%.%.%.%.%.%.X.- . @ x b J Q ^ ^ ^ ^ ^ ^ ^ ^ ^ ^ ^ ^ ^ ^ ^ ^ Q J b x @ . - X.%.%.%.%.%.%.%.%.",
"%.%.%.%.%.%.%.%.X.- . @ b b J Y Q Q Q Q Q Q Q Q ~ ~ ~ Q Q Q Q Q U J b x @ . - X.%.%.%.%.%.%.%.%.",
"%.%.%.%.%.%.%.%.X.- . @ x b b J J J J J J J J J J J J J J J J J J b b x @ . - X.%.%.%.%.%.%.%.%.",
"%.%.%.%.%.%.%.%.X.* . @ b b b b b b b b b b b b b b b b b b b b b b b b @ . - X.%.%.%.%.%.%.%.%.",
"%.%.%.%.%.%.%.%.X.w * : z b b b b b b b b b b b b b b b b b b b b b b z : * w X.%.%.%.%.%.%.%.%.",
"%.%.%.%.%.%.%.%.%.X.X.{ : @ * b b b b b b b b b b b b b b b b b b * @ : { X.X.%.%.%.%.%.%.%.%.%.",
"%.%.%.%.%.%.%.%.%.%.%.X.* . @ b b b b b b b b b b b b b b b b b b @ . * X.%.%.%.%.%.%.%.%.%.%.%.",
"%.%.%.%.%.%.%.%.%.%.%.X.w * : z b b b b b m m m m m m b b b b b z : - w X.%.%.%.%.%.%.%.%.%.%.%.",
"%.%.%.%.%.%.%.%.%.%.%.%.X.X.{ : @ @ 5 6 9 Z S Z S S Z d 6 5 @ @ : { X.X.%.%.%.%.%.%.%.%.%.%.%.%.",
"%.%.%.%.%.%.%.%.%.%.%.%.%.&.X.- . + 4 6 i C C C C C C i 6 4 + . - X.%.%.%.%.%.%.%.%.%.%.%.%.%.%.",
"%.%.%.%.%.%.%.%.%.%.%.%.%.%.X.- + + 6 i i C D D D D C s i 6 + O - X.%.%.%.%.%.%.%.%.%.%.%.%.%.%.",
"%.%.%.%.%.%.%.%.%.%.%.%.%.%.X.u 4 6 N C C _ ` ` ` ` _ C C N 6 4 u X.%.%.%.%.%.%.%.%.%.%.%.%.%.%.",
"%.%.%.%.%.%.%.%.%.%.%.%.%.%.X.j 6 i C C D ` ' ' ' ' ` D C C i 4 j X.%.%.%.%.%.%.%.%.%.%.%.%.%.%.",
"%.%.%.%.%.%.%.%.%.%.%.%.%.%.O.k j d N C A ] [ [ [ [ ] A C N d j k O.%.%.%.%.%.%.%.%.%.%.%.%.%.%.",
"%.%.%.%.%.%.%.%.%.%.%.%.%.%.%.O.X. .d i f +.:.:.:.:.+.f i d  .X.O.%.%.%.%.%.%.%.%.%.%.%.%.%.%.%.",
"%.%.%.%.%.%.%.%.%.%.%.%.%.%.%.%.%.X.j 4 f #.>.>.>.>.#.f 4 j X.%.%.%.%.%.%.%.%.%.%.%.%.%.%.%.%.%.",
"%.%.%.%.%.%.%.%.%.%.%.%.%.%.%.%.%.O.k j l @.;.;.;.;.@.l j k O.%.%.%.%.%.%.%.%.%.%.%.%.%.%.%.%.%.",
"%.%.%.%.%.%.%.%.%.%.%.%.%.%.%.%.%.%.O.X.O.*.*.*.*.*.*.O.X.O.%.%.%.%.%.%.%.%.%.%.%.%.%.%.%.%.%.%.",
"%.%.%.%.%.%.%.%.%.%.%.%.%.%.%.%.%.%.%.%.%.%.%.%.%.%.%.%.%.%.%.%.%.%.%.%.%.%.%.%.%.%.%.%.%.%.%.%.",
"%.%.%.%.%.%.%.%.%.%.%.%.%.%.%.%.%.%.%.%.%.%.%.%.%.%.%.%.%.%.%.%.%.%.%.%.%.%.%.%.%.%.%.%.%.%.%.%.",
"%.%.%.%.%.%.%.%.%.%.%.%.%.%.%.%.%.%.%.%.%.%.%.%.%.%.%.%.%.%.%.%.%.%.%.%.%.%.%.%.%.%.%.%.%.%.%.%.",
"%.%.%.%.%.%.%.%.%.%.%.%.%.%.%.%.%.%.%.%.%.%.%.%.%.%.%.%.%.%.%.%.%.%.%.%.%.%.%.%.%.%.%.%.%.%.%.%.",
"%.%.%.%.%.%.%.%.%.%.%.%.%.%.%.%.%.%.%.%.%.%.%.%.%.%.%.%.%.%.%.%.%.%.%.%.%.%.%.%.%.%.%.%.%.%.%.%."
};
