/* XPM */
static char *ezgif_1_e2ac6282d0[] = {
/* columns rows colors chars-per-pixel */
"48 48 189 2 ",
"   c #161617",
".  c #171617",
"X  c #171717",
"o  c #191817",
"O  c #1B1917",
"+  c #191A18",
"@  c #191B18",
"#  c #181A19",
"$  c #181B19",
"%  c #1A1B18",
"&  c #1A1B19",
"*  c #1A1C18",
"=  c #1B1E19",
"-  c #191D1B",
";  c #191E1A",
":  c #1A1E1A",
">  c #1C1D18",
",  c #1C1F19",
"<  c #1C2019",
"1  c #1C201B",
"2  c #1D211B",
"3  c #1C221B",
"4  c #1F231B",
"5  c #1B211C",
"6  c #1F241C",
"7  c #2C2315",
"8  c #2E2315",
"9  c #2B2517",
"0  c #2E2415",
"q  c #2F2415",
"w  c #2D2617",
"e  c #2F2716",
"r  c #2F2817",
"t  c #2E2917",
"y  c #21251B",
"u  c #22251B",
"i  c #23281C",
"p  c #212A1E",
"a  c #272F1F",
"s  c #312515",
"d  c #312615",
"f  c #342715",
"g  c #312916",
"h  c #342917",
"j  c #372B17",
"k  c #302A18",
"l  c #352C18",
"z  c #2E3E1D",
"x  c #2D3D1E",
"c  c #2E3E1E",
"v  c #2E3F1E",
"b  c #20392B",
"n  c #203B2D",
"m  c #203C2D",
"M  c #223D2D",
"N  c #213F2F",
"B  c #223F2E",
"V  c #253E2D",
"C  c #493413",
"Z  c #4A3413",
"A  c #4C3512",
"S  c #4F3712",
"D  c #4E3713",
"F  c #493615",
"G  c #4E3813",
"H  c #4B3814",
"J  c #513913",
"K  c #2E401E",
"L  c #2F401E",
"P  c #2F411E",
"I  c #2F411F",
"U  c #2F421F",
"Y  c #30411E",
"T  c #30411F",
"R  c #31411F",
"E  c #30421F",
"W  c #31421F",
"Q  c #25422F",
"!  c #314320",
"~  c #324320",
"^  c #324321",
"/  c #314420",
"(  c #324420",
")  c #334420",
"_  c #324421",
"`  c #324521",
"'  c #334521",
"]  c #334621",
"[  c #324422",
"{  c #334522",
"}  c #334423",
"|  c #344421",
" . c #344621",
".. c #344522",
"X. c #344523",
"o. c #344622",
"O. c #344722",
"+. c #354722",
"@. c #354723",
"#. c #364622",
"$. c #374622",
"%. c #354724",
"&. c #344822",
"*. c #354822",
"=. c #354823",
"-. c #354923",
";. c #364923",
":. c #354824",
">. c #364924",
",. c #374924",
"<. c #364A24",
"1. c #374A24",
"2. c #374B24",
"3. c #374B25",
"4. c #384924",
"5. c #384B25",
"6. c #384C25",
"7. c #3D4E26",
"8. c #3E4E26",
"9. c #224230",
"0. c #224330",
"q. c #234330",
"w. c #244631",
"e. c #264631",
"r. c #274932",
"t. c #305E37",
"y. c #306039",
"u. c #31643A",
"i. c #31643B",
"p. c #32643A",
"a. c #34673B",
"s. c #35673B",
"d. c #32673C",
"f. c #32683C",
"g. c #33683C",
"h. c #346B3D",
"j. c #376D3E",
"k. c #376E3E",
"l. c #3A703E",
"z. c #604B1A",
"x. c #624D1A",
"c. c #644F1B",
"v. c #644E1C",
"b. c #66511D",
"n. c #6F5D2B",
"m. c #735D2A",
"M. c #755F2C",
"N. c #4F793E",
"B. c #75622D",
"V. c #76622D",
"C. c #79622C",
"Z. c #7B642E",
"A. c #7C642E",
"S. c #7FA63F",
"D. c #518343",
"F. c #538242",
"G. c #528343",
"H. c #548242",
"J. c #568442",
"K. c #538745",
"L. c #548644",
"P. c #598742",
"I. c #568945",
"U. c #588B45",
"Y. c #598C46",
"T. c #598D46",
"R. c #5B8E46",
"E. c #5C8E46",
"W. c #5C8F46",
"Q. c #5E9146",
"!. c #609346",
"~. c #6D9A43",
"^. c #6D9B43",
"/. c #6F9D43",
"(. c #72A447",
"). c #74A747",
"_. c #75A747",
"`. c #77A947",
"'. c #78AA47",
"]. c #79AB47",
"[. c #88B343",
"{. c #89B343",
"}. c #8CBB47",
"|. c #8EBC47",
" X c #8EBD47",
".X c #91BF47",
"XX c #93C147",
"oX c #93C247",
"OX c #94C247",
/* pixels */
"6.6.6.6.6.6.6.6.6.6.6.6.6.6.6.6.6.6.6.6.%.%         : 1.6.6.6.6.6.6.6.6.6.6.6.6.6.6.6.6.6.6.6.6.",
"6.6.6.6.6.6.6.6.6.6.6.6.6.6.6.6.6.6.6.6.1.%         % 1.6.6.6.6.6.6.6.6.6.6.6.6.6.6.6.6.6.6.6.6.",
"6.6.6.6.6.6.6.6.6.6.6.6.6.6.6.6.6.6.1.1.+.i y y y y i +.%.1.5.6.6.6.6.6.6.6.6.6.6.6.6.6.6.6.6.6.",
"6.6.6.6.6.6.6.6.6.6.6.6.6.6.6.6.6.1.< % i S.{.{.{.{.S.i % , %.6.6.6.6.6.6.6.6.6.6.6.6.6.6.6.6.6.",
"6.6.6.6.6.6.6.1.1.=.=.=.1.1.1.6.6.1.%   y {.OXXXOXOX{.y   % 1.6.6.6.6.6.6.6.6.6.6.6.6.6.6.6.6.6.",
"6.6.6.6.6.6.1.( E L L E ! ! ! ( %.( 6 < a {.XXXXXXXX{.a < 6 ( 1.1.6.6.6.6.6.=.=.1.6.6.6.6.6.6.6.",
"6.6.6.6.6.6.1.! L L L L L L x : % 6 N.D.P. XXXXXXXXX|.P.D.N.6 % < 1.6.6.6.1.+.( =.6.6.6.6.6.6.6.",
"6.6.6.6.6.6.5.=.+.=.+.( +.+.! %   < D.T.Q. XXXXXXXXX XQ.T.D.<   % 1.6.6.6.6.=.=.1.6.6.6.6.6.6.6.",
"6.6.6.6.6.6.6.6.6.6.6.5.6.6.1.%   < J.W.!.|..X.X.X.X|.!.W.J.<   % %.6.6.6.6.6.6.6.6.6.6.6.6.6.6.",
"6.6.6.6.6.6.6.6.6.6.6.6.6.6.%.:   < ~._._.].].].].].]._._.~.<   % %.6.6.6.6.6.6.6.6.6.6.6.6.6.6.",
"6.6.6.6.6.6.6.6.6.6.6.6.6.6.1.%   < /.].`.`.`.`.`.`.`.`.`./.<   % 1.6.6.6.6.6.6.6.6.6.6.6.6.6.6.",
"6.6.6.6.6.6.6.6.6.6.6.6.1.1.( < : i ~._._.`.`.`.`.`.`._._.~.i : < ( 1.1.6.6.6.6.6.6.6.6.6.6.6.6.",
"6.6.6.6.6.6.6.6.6.6.6.1., % < t.u.s.U.W.Q._.`.`.`.`._.Q.W.U.s.u.t.< % < 1.6.6.6.6.6.6.6.6.6.6.6.",
"6.6.6.6.6.6.6.6.6.6.6.1.%   : u.h.h.I.T.W._.`.`.`.`._.W.T.I.h.h.u.:   % 1.6.6.6.6.6.6.6.6.6.6.6.",
"6.6.6.6.6.6.6.6.6.1.1.( : # 5 a.h.l.I.T.T.(._._._._.(.W.T.I.l.h.a.5 % : ( 1.+.=.=.1.6.6.6.6.6.6.",
"6.6.6.6.6.6.6.6.1.< % : b n Q D.I.I.T.T.T.T.W.W.W.W.T.T.T.T.I.I.D.Q n b : % , x E ( =.1.1.6.6.6.",
"6.6.6.6.6.6.6.6.%.%   % N N w.L.T.T.T.T.T.T.T.T.T.T.T.T.T.T.T.T.L.w.N N %   % x L L L E +.6.6.6.",
"6.6.6.6.6.6.6.6.1.%   % N q.r.D.I.I.T.T.T.T.T.T.T.T.T.T.T.T.I.I.D.r.q.N %   % ( ( L L E +.6.6.6.",
"6.6.6.6.6.6.6.6.1.%   : y.g.g.h.h.l.I.T.T.T.T.T.T.T.T.T.T.I.l.h.h.g.d.y.:   % 1.1.+.+.=.1.6.6.6.",
"6.6.6.6.6.6.6.6.%.:   : u.h.h.h.h.h.I.T.T.T.T.T.T.T.T.T.T.I.h.h.h.h.h.u.:   % %.6.6.6.6.6.6.6.6.",
"6.6.6.6.6.6.6.6.%.%   : u.h.h.h.h.h.K.I.I.I.I.I.I.I.I.I.I.K.h.h.h.h.h.u.:   : 1.6.6.6.6.6.6.6.6.",
"6.6.6.6.6.6.6.6.1.%   : u.h.h.h.h.h.h.k.h.h.k.h.h.h.h.h.h.h.h.h.h.h.h.u.:   : %.6.6.6.6.6.6.6.6.",
"6.6.6.6.6.6.6.6.+.%   : u.h.h.h.h.h.h.h.h.h.h.h.h.h.h.h.h.h.h.h.h.h.h.u.:   % %.6.6.6.6.6.6.6.6.",
"6.6.6.6.6.6.6.6.! %   : y.d.d.h.h.h.h.h.h.h.h.h.h.h.h.h.h.h.h.h.h.d.d.y.:   : %.6.6.6.6.6.6.6.6.",
"6.6.6.6.6.6.6.6.! %   % N q.w.d.h.h.h.h.h.h.h.h.h.h.h.h.h.h.h.h.g.w.q.N %   % %.6.6.6.6.6.6.6.6.",
"6.6.6.6.6.6.6.6.+.%   % n N q.d.h.h.h.h.h.h.h.h.h.h.h.h.h.h.h.h.d.q.N n %   % %.6.6.6.6.6.6.6.6.",
"6.6.6.6.6.6.6.6.%.%   % N N q.u.d.d.d.d.d.d.d.d.g.g.g.d.d.d.d.d.y.q.N n %   % %.6.6.6.6.6.6.6.6.",
"6.6.6.6.6.6.6.6.%.%   % N N N q.q.q.q.q.q.q.q.q.q.q.q.q.q.q.q.q.q.N N n %   % %.6.6.6.6.6.6.6.6.",
"6.6.6.6.6.6.6.6.%.%   % N N N N N N N N N N N N N N N N N N N N N N N n %   % %.1.1.5.6.6.6.6.6.",
"6.6.6.6.6.6.6.6.1., % : b N N N N N N N N N N N N N N N N N N N N N n b : % < +.+.( 1.6.6.6.6.6.",
"6.6.6.6.6.6.6.6.5.%.%.! : % : N N N N N N N N N N N N N N N N N N : % : ( 1.1.1.+.+.1.6.6.6.6.6.",
"6.6.6.6.6.6.6.6.6.6.6.%.%   % N N N N N N N N N N N N N N N N N N %   % 1.6.6.6.5.6.6.6.6.6.6.6.",
"6.6.6.6.6.6.6.6.6.6.6.1.< % : b n n N N N V V V V V V N N N n n b : % , 1.6.6.6.6.6.6.6.6.6.6.6.",
"6.6.6.6.6.6.6.6.6.6.6.6.1.1.( : % % 9 w w F F F H H F g w 9 % % : ! %.%.6.6.6.6.6.6.6.6.6.6.6.6.",
"6.6.6.6.6.6.6.6.6.6.6.6.6.6.1.%   O 8 w s D D D D D D s w 8 O   % 1.6.6.6.6.6.6.6.6.6.6.6.6.6.6.",
"6.6.6.6.6.6.6.6.6.6.5.5.6.6.%.: O O w s s D J J J J D f s w O O , %.6.6.6.6.6.6.6.6.6.6.6.6.6.6.",
"6.6.6.6.6.6.6.6.6.=.( ! +.1.1.w 8 w Z D D z.x.x.x.x.z.D D Z w 8 w 1.6.6.6.6.6.6.6.6.6.6.6.6.6.6.",
"6.6.6.6.6.6.6.1.+.! L L L ( +.w w s D D J x.c.c.c.c.x.J D D s w w 1.6.6.6.6.6.6.6.6.6.6.6.6.6.6.",
"6.6.6.6.6.6.1.( L L E E L L x t w g Z D G v.b.b.b.b.v.G D Z g w k 1.6.6.6.6.6.6.6.6.6.6.6.6.6.6.",
"6.6.6.6.6.6.1.( E ! +.=.( E L E +.+.g s h m.C.C.C.C.m.h s g +.1.1.6.6.6.6.6.5.1.6.6.6.6.6.6.6.6.",
"6.6.6.6.6.6.6.1.1.1.6.6.6.1.=.1.5.1.w 8 h M.A.Z.Z.A.M.h 8 w 1.6.6.6.6.1.+.+.( ( ( =.1.6.6.6.6.6.",
"6.6.6.6.6.6.6.6.6.6.6.6.6.6.6.6.6.1.k w l n.V.V.V.V.m.l w k 1.6.6.6.6.+.L L L L L E =.6.6.6.6.6.",
"6.6.6.6.6.6.6.6.6.6.6.6.6.6.6.6.6.6.1.1.5.7.7.7.7.7.7.5.1.1.6.6.6.6.6.=.( L L ( ( ! =.6.6.6.6.6.",
"6.6.6.6.6.6.6.6.6.6.6.6.6.6.6.6.6.6.6.6.6.6.6.6.6.6.6.6.6.6.6.6.6.6.6.6.1.=.=.1.1.1.1.6.6.6.6.6.",
"6.6.6.6.6.6.6.6.6.6.6.6.6.6.6.6.6.6.6.6.6.6.6.6.6.6.6.6.6.6.6.6.6.6.6.6.6.6.6.6.6.6.6.6.6.6.6.6.",
"6.6.6.6.6.6.6.6.6.6.6.6.6.6.6.6.6.6.6.6.6.6.6.6.6.6.6.6.6.6.6.6.6.6.6.6.6.6.6.6.6.6.6.6.6.6.6.6.",
"6.6.6.6.6.6.6.6.6.6.6.6.6.6.6.6.6.6.6.6.6.6.6.6.6.6.6.6.6.6.6.6.6.6.6.6.6.6.6.6.6.6.6.6.6.6.6.6.",
"6.6.6.6.6.6.6.6.6.6.6.6.6.6.6.6.6.6.6.6.6.6.6.6.6.6.6.6.6.6.6.6.6.6.6.6.6.6.6.6.6.6.6.6.6.6.6.6."
};
