/* XPM */
static char *ezgif_4_7b6bc79391[] = {
/* columns rows colors chars-per-pixel */
"64 64 36 1 ",
"  c #2E401E",
". c #2E411E",
"X c #2E411F",
"o c #30411E",
"O c #30411F",
"+ c #30421F",
"@ c #31421F",
"# c #314220",
"$ c #314320",
"% c #324320",
"& c #324420",
"* c #324421",
"= c #334421",
"- c #334521",
"; c #344622",
": c #354622",
"> c #354722",
", c #354723",
"< c #354923",
"1 c #364923",
"2 c #354924",
"3 c #364A24",
"4 c #374A24",
"5 c #374B24",
"6 c #384C25",
"7 c #96730D",
"8 c #A37D10",
"9 c #CEA42E",
"0 c #D1AB3C",
"q c #D4B049",
"w c #D7B455",
"e c #DABA62",
"r c #DDBF6E",
"t c #E0C57B",
"y c #E3CA87",
"u c #E6CF93",
/* pixels */
"6666666666666666666666666666666666666666666666666666666666666666",
"6666666666666666666666666666666666666666666666666666666666666666",
"6666666666666666666666666666666666666666666666666666666666666666",
"6666666666666666666666666666666666666666666666666666666666666666",
"6666666666666666666666666666666666666666666666666666666666666666",
"6666666666666666666666666666666666666666666666666666666666666666",
"66666666611;-$&;311356666666666666666666666666666666666666666666",
"666666666-.o   O+OO@;666666666666666666666666666665>><6666666666",
"666666666-   .      ;666666666666666666666666666665-@>6666666666",
"666666666;@+$=$O@##*>666666666666666666666666666665;->6666666666",
"66666666666666111666666666666666<>>56666666666666665556666666666",
"66666666666666666666666666666666>@-56666666666666666666666666666",
"66666666666666666666666666666666>-;56666666666666666666666666666",
"6666666666666666666666666666666655566666666666666666666666666666",
"6666666666666666666666666666666666666666666666666666666666666666",
"6666666666666666666666666666666666666666666666666666666666666666",
"6666666666666666666666666667777777776666666666666666666666666666",
"6666666666666666666666666667777777776666666666666666666666666666",
"666666666666666666666667777999999qqq7777666666666666666666666666",
"666666666666666666666667777999999qqq7777666666666665<<1666666666",
"666666666666666666666779999999999999wwww776666666:-#+O%>66666666",
"6666666666666666666679999997777777779900ww7766666-XO . O+@%>6666",
"6666666666666666666679999997777777779900ww7766666-O+&@.    ;6666",
"666666666666666666779999977999999qqq77ww99ww776661,,63$  .@;6666",
"666666666666666666779999977999999qqq77ww99ww7766666666>&&;556666",
"666666666666666666779997799999999999ww77qqww77666666666666666666",
"666666666666666666779997799999999999ww77qqww77666666666666666666",
"66666666666666667799977999999999999999ww7700rr776666666666666666",
"66666666666666667799977999999999999999ww7700rr776666666666666666",
"66666666666666667799977999999999999999ww77qqtt776666666666666666",
"66666666666113667799977999999999999999ww77qqtt776666666666666666",
"66666666665-%>667799977999999999999999ww77wwyy776666666666666666",
"66666666665-%>667799977999999999999999ww77wwyy776666666666666666",
"66666666666113667799977999999999999999ww77wwuu776666666666666666",
"66666666666666667799977999999999999999ww77wwuu776666666666666666",
"66666666666666667799977999999999999999ee77qquu776666666666666666",
"666666666666666666779997799999999999ee77qqee77666666666666666666",
"666666666666666666779997799999999999ee77qqee77666666666666666666",
"66666666666666666677999997799999999e880000rr776666666<>>56666666",
"66666666666666666677999997799999999e880000rr776666666>@-56666666",
"6666666666666666666679999997777777770000ee77666666666>-;56666666",
"6666666666666666666679999997777777770000ee7766666666655566666666",
"66666666666666666666677999999999999qwwtt776666666666666666666666",
"66666666666666666666677999999999999qwwtt776666666666666666666666",
"666666666666666666666667777999999eee7777666666666666666666666666",
"666666666666666666666667777999999eee7777666666666666666666666666",
"6666666666666666666666666667777777776666666666666666666666666666",
"6666666666666666666666666667777777776666666666666666666666666666",
"6666666666666-%%<6666666666666<>>5666666666666666666666666666666",
"666666666661;@  O-566666666666>@-5666666666666666666666666666666",
"6666666662-O.    .+@*166666666>-;5666666666666666666666666666666",
"666666666;O   @o    O;666666665556666666666666666666666666666666",
"666666666;OoO%1;&O  O;666666666666666666666666666666666666666666",
"6666666663,>456661;*;1666666666666666666666666665551<<5666666666",
"66666666666666666666666666666666666666666666666>%OOOO+#-26666666",
"66666666666666666666666666666666666666666666666;       O;6666666",
"66666666666666666666666666666666666666666666666;$.  @$OO;6666666",
"6666666666666666666666666666666666666666666666655;&&<5,,36666666",
"6666666666666666666666666666666666666666666666666666666666666666",
"6666666666666666666666666666666666666666666666666666666666666666",
"6666666666666666666666666666666666666666666666666666666666666666",
"6666666666666666666666666666666666666666666666666666666666666666",
"6666666666666666666666666666666666666666666666666666666666666666",
"6666666666666666666666666666666666666666666666666666666666666666"
};
