/* XPM */
static char *ezgif_4_b2f0924a3f[] = {
/* columns rows colors chars-per-pixel */
"64 64 39 1 ",
"  c #2E401E",
". c #2E411E",
"X c #2E411F",
"o c #30411E",
"O c #30411F",
"+ c #30421F",
"@ c #31421F",
"# c #314220",
"$ c #314320",
"% c #324320",
"& c #324420",
"* c #324421",
"= c #334421",
"- c #334521",
"; c #344622",
": c #354622",
"> c #354722",
", c #354723",
"< c #354923",
"1 c #364923",
"2 c #354924",
"3 c #364A24",
"4 c #374A24",
"5 c #374B24",
"6 c #384C25",
"7 c #957215",
"8 c #CDA332",
"9 c #D0A93E",
"0 c #D3AE4A",
"q c #D6B356",
"w c #D9B962",
"e c #DCBE6E",
"r c #DFC47A",
"t c #E2C986",
"y c #E5CE92",
"u c #EBD9AA",
"i c #F1E4C2",
"p c #F4E9CE",
"a c #FDFAF4",
/* pixels */
"6666666666666666666666666666666666666666666666666666666666666666",
"6666666666666666666666666666666666666666666666666666666666666666",
"6666666666666666666666666666666666666666666666666666666666666666",
"6666666666666666666666666666666666666666666666666666666666666666",
"6666666666666666666666666666666666666666666666666666666666666666",
"6666666666666666666666666666666666666666666666666666666666666666",
"66666666611;-$&;311356666666666666666666666666666666666666666666",
"666666666-.o   O+OO@;666666666666666666666666666665>><6666666666",
"666666666-   .      ;666666666666666666666666666665-@>6666666666",
"666666666;@+$=$O@##*>666666666666666666666666666665;->6666666666",
"66666666666666111666666666666666<>>56666666666666665556666666666",
"66666666666666666666666666666666>@-56666666666666666666666666666",
"66666666666666666666666666666666>-;56666666666666666666666666666",
"6666666666666666666666666666666655566666666666666666666666666666",
"6666666666666666666666666666666666666666666666666666666666666666",
"6666666666666666666666666666666666666666666666666666666666666666",
"6666666666666666666666666666667777666666666666666666666666666666",
"6666666666666666666666666666667777666666666666666666666666666666",
"6666666666666666666666666666667777666666666666666666666666666666",
"6666666666666666666666666666667777666666666666666665<<1666666666",
"66666666666666666666666666667700uu776666666666666:-#+O%>66666666",
"66666666666666666666666666667700aa776666666666666-XO . O+@%>6666",
"66666666666666666666666666667700aa776666666666666-O+&@.    ;6666",
"66666666666666666666666666667799pp7766666666666661,,63$  .@;6666",
"66666666666666666666666666667799pp77666666666666666666>&&;556666",
"66666666666666666666666666667700ii776666666666666666666666666666",
"66666666666666666666666666617700ii776666666666666666666666666666",
"666666666666666666666666666-77qqii776666666666666666666666666666",
"666666666666666666666666666&77qqii776666666666666666666666666666",
"666666666666666666666666666-77wwuu776666666666666666666666666666",
"666666666661136666666666666377wwuu776666666666666666666666666666",
"66666666665-%>666666666666667799yy776666666666666666666666666666",
"66666666665-%>666666666666667799yy776666666666666666666666666666",
"66666666666113666666666666667788yy776666666666666666666666666666",
"66666666666666666666666666667788yy776666666666666666666666666666",
"666666666666666666666666666677qqtt776666666666666666666666666666",
"66666666666666666666666666667788rr776665115666666666666666666666",
"66666666666666666666666666667788rr776661**1666666666666666666666",
"66666666666666666666666666667788ee776661**16666666666<>>56666666",
"66666666666666666666666666667788ee7766651156666666666>@-56666666",
"66666666666666666666666666667799rr7766666666666666666>-;56666666",
"66666666666666666666666666667799rr776666666666666666655566666666",
"66666666666666666666666666667700tt776666666666666666666666666666",
"66666666666666666666666666667700tt776666666666666666666666666666",
"6666666666666666666666666666667777666666666666666666666666666666",
"6666666666666666666666666666667777666666666666666666666666666666",
"6666666666666666666666666666667777666666666666666666666666666666",
"6666666666666666666666666666667777666666666666666666666666666666",
"6666666666666-%%<6666666666666<>>5666666666666666666666666666666",
"666666666661;@  O-566666666666>@-5666666666666666666666666666666",
"6666666662-O.    .+@*166666666>-;5666666666666666666666666666666",
"666666666;O   @o    O;666666665556666666666666666666666666666666",
"666666666;OoO%1;&O  O;666666666666666666666666666666666666666666",
"6666666663,>456661;*;1666666666666666666666666665551<<5666666666",
"66666666666666666666666666666666666666666666666>%OOOO+#-26666666",
"66666666666666666666666666666666666666666666666;       O;6666666",
"66666666666666666666666666666666666666666666666;$.  @$OO;6666666",
"6666666666666666666666666666666666666666666666655;&&<5,,36666666",
"6666666666666666666666666666666666666666666666666666666666666666",
"6666666666666666666666666666666666666666666666666666666666666666",
"6666666666666666666666666666666666666666666666666666666666666666",
"6666666666666666666666666666666666666666666666666666666666666666",
"6666666666666666666666666666666666666666666666666666666666666666",
"6666666666666666666666666666666666666666666666666666666666666666"
};
