/* XPM */
static char *ezgif_4_46ef188117[] = {
/* columns rows colors chars-per-pixel */
"64 64 37 1 ",
"  c black",
". c #181818",
"X c #3D2C0B",
"o c gray20",
"O c #401C00",
"+ c #2E401E",
"@ c #2E411E",
"# c #2E411F",
"$ c #30411E",
"% c #30411F",
"& c #30421F",
"* c #31421F",
"= c #314220",
"- c #314320",
"; c #324320",
": c #324420",
"> c #324421",
", c #334421",
"< c #334521",
"1 c #344622",
"2 c #354622",
"3 c #354722",
"4 c #354723",
"5 c #354923",
"6 c #364923",
"7 c #354924",
"8 c #364A24",
"9 c #374B24",
"0 c #384C25",
"q c #5D4510",
"w c #7D5400",
"e c #4C4B4A",
"r c #7E7C77",
"t c #C7AB00",
"y c #DA803E",
"u c #F6AB53",
"i c #A39F97",
/* pixels */
"00000000000000000000000000000       0000000000000000000000000000",
"00000000000000000000000000000       0000000000000000000000000000",
"00000000000000000000000000000       0000000000000000000000000000",
"00000000000000000000000000   ttttttt   0000000000000000000000000",
"00000000000000000000000000   ttttttt   0000000000000000000000000",
"00000000000000000000000000   ttttttt   0000000000000000000000000",
"000000000661<-:18668900   wwwtttttttwww   0000000000000000000000",
"000000000<@$+++%&%%*100   wwwtttttttwww   0000000093350000000000",
"000000000<+++@++++++100   wwwtttttttwww   000000009<*30000000000",
"0000000001*&-,-%*==>300   wwwwwwwwwwwww   0000000091<30000000000",
"00000000000000666000000   wwwwwwwwwwwww   0000000009990000000000",
"00000000000000000000000   wwwwwwwwwwwww   0000000000000000000000",
"00000000000000000000000   OOOwwwwwwwOOO   0000000000000000000000",
"00000000000000000000000   OOOwwwwwwwOOO   0000000000000000000000",
"00000000000000000000000   OOOwwwwwwwOOO   0000000000000000000000",
"00000000000000000000000   OOOwwwwwwwOOO   0000000000000000000000",
"00000000000000000000   ...OOOOOOOOOOOOO...    000000000000000000",
"00000000000000000000   ...OOOOOOOOOOOOO...    000000000000000000",
"00000000000000000000   ...OOOOOOOOOOOOO...    000000000000000000",
"0000000000000000    ...oooeeeOOOOOOOeeeooo....   009556000000000",
"0000000000000000    ...oooeeeOOOOOOOeeeooo....   2<=&%;300000000",
"0000000000000000    ...oooeeeOOOOOOOeeeooo....   <#%+@+%&*;30000",
"0000000000000   ....oooeeeeeeiiiiiiieeeeeeoooo...   :*@++++10000",
"0000000000000   ....oooeeeeeeiiiiiiieeeeeeoooo...   08-++@*10000",
"0000000000000   ....oooeeeeeeiiiiiiieeeeeeoooo...   003::1990000",
"0000000000000   rrrrrrroooeeerrrrrrreeeooorrrrrrr   000000000000",
"0000000000000   rrrrrrroooeeerrrrrrreeeooorrrrrrr   000000000000",
"0000000000000   rrrrrrroooeeerrrrrrreeeooorrrrrrr   000000000000",
"0000000000000   rrrrrrroooeeerrrrrrreeeooorrrrrrr   000000000000",
"0000000000000   eeeerrrrrriiiiiiiiiiiiirrrrrrreee   000000000000",
"0000000000066   eeeerrrrrriiiiiiiiiiiiirrrrrrreee   000000000000",
"00000000009<;   eeeerrrrrriiiiiiiiiiiiirrrrrrreee   000000000000",
"00000000009<;   ....eeerrrrrriiiiiiirrrrrreeee...   000000000000",
"0000000000066   ....eeerrrrrriiiiiiirrrrrreeee...   000000000000",
"0000000000000   ....eeerrrrrriiiiiiirrrrrreeee...   000000000000",
"0000000000000000    ...ooooooeeeeeeeoooooo....   000000000000000",
"0000000000000000    ...ooooooeeeeeeeoooooo....   000000000000000",
"0000000000000000    ...ooooooeeeeeeeoooooo....   000000000000000",
"0000000000000000    eeeeeeeeeeeeeeeeeeeeeeeeee   000053390000000",
"0000000000000000    eeeeeeeeeeeeeeeeeeeeeeeeee   00003*<90000000",
"0000000000000000    eeeeeeeeeeeeeeeeeeeeeeeeee   00003<190000000",
"0000000000000000    rrroooeeeeeeeeeeeeeooorrrr   000099900000000",
"0000000000000000    rrroooeeeeeeeeeeeeeooorrrr   000000000000000",
"0000000000000000    rrroooeeeeeeeeeeeeeooorrrr   000000000000000",
"0000000000000000    rrroooeeeeeeeeeeeeeooorrrr   000000000000000",
"0000000000000   rrrrrrrrrrrrrrrrrrrrrrrrrrrrrrrrr   000000000000",
"0000000000000   rrrrrrrrrrrrrrrrrrrrrrrrrrrrrrrrr   000000000000",
"0000000000000   rrrrrrrrrrrrrrrrrrrrrrrrrrrrrrrrr   000000000000",
"0000000000   uuuuuuu   eeerrrrrrrrrrrrreee    uuuuuu   000000000",
"0000000000   uuuuuuu   eeerrrrrrrrrrrrreee    uuuuuu   000000000",
"0000000007   uuuuuuu   eeerrrrrrrrrrrrreee    uuuuuu   000000000",
"0000000001   uuuyyyy   eeeeeeeeeeeeeeeeeee    yyyuuu   000000000",
"0000000001   uuuyyyy   eeeeeeeeeeeeeeeeeee    yyyuuu   000000000",
"0000000008   uuuyyyy   eeeeeeeeeeeeeeeeeee    yyyuuu   000000000",
"0000000000000          oooeeeeeeeeeeeeeooo          %&=<70000000",
"0000000000000          oooeeeeeeeeeeeeeooo          +++%10000000",
"0000000000000          oooeeeeeeeeeeeeeooo          *-%%10000000",
"0000000000000          oooeeeeeeeeeeeeeooo          594480000000",
"00000000000000000000   XXXXXX       XXXXXX    000000000000000000",
"00000000000000000000   XXXXXX       XXXXXX    000000000000000000",
"00000000000000000000   XXXXXX       XXXXXX    000000000000000000",
"00000000000000000000   qqqqqq       qqqqqq    000000000000000000",
"00000000000000000000   qqqqqq       qqqqqq    000000000000000000",
"00000000000000000000   qqqqqq       qqqqqq    000000000000000000"
};
