/* XPM */
static char *ezgif_4_7022ffb46d[] = {
/* columns rows colors chars-per-pixel */
"64 64 41 1 ",
"  c black",
". c #181818",
"X c #3D2C0B",
"o c gray20",
"O c #401C00",
"+ c #2E401E",
"@ c #2E411E",
"# c #2E411F",
"$ c #30411E",
"% c #30411F",
"& c #30421F",
"* c #31421F",
"= c #314220",
"- c #314320",
"; c #324320",
": c #324420",
"> c #324421",
", c #334421",
"< c #334521",
"1 c #344622",
"2 c #354622",
"3 c #354722",
"4 c #354723",
"5 c #354923",
"6 c #364923",
"7 c #354924",
"8 c #364A24",
"9 c #374A24",
"0 c #374B24",
"q c #384C25",
"w c #5D4510",
"e c #7D5400",
"r c #4C4B4A",
"t c #7E7C77",
"y c #854625",
"u c #C7AB00",
"i c #DA803E",
"p c #F6AB53",
"a c #A39F97",
"s c #BFBCB6",
"d c #E9E9E9",
/* pixels */
"qqqqqqqqqqqqqqqqqqqqqqq             qqqqqqqqqqqqqqqqqqqqqqqqqqqq",
"qqqqqqqqqqqqqqqqqqqqqqq             qqqqqqqqqqqqqqqqqqqqqqqqqqqq",
"qqqqqqqqqqqqqqqqqqqqqqq             qqqqqqqqqqqqqqqqqqqqqqqqqqqq",
"qqqqqqqqqqqqqqqqqqqq   eeeuuuuuuuuuu   qqqqqqqqqqqqqqqqqqqqqqqqq",
"qqqqqqqqqqqqqqqqqqqq   eeeuuuuuuuuuu   qqqqqqqqqqqqqqqqqqqqqqqqq",
"qqqqqqqqqqqqqqqqqqqq   eeeuuuuuuuuuu   qqqqqqqqqqqqqqqqqqqqqqqqq",
"qqqqqqqqq661<-:18   eeeuuuuuuuuuuuuueee   qqqqqqqqqqqqqqqqqqqqqq",
"qqqqqqqqq<@$+++%&   eeeuuuuuuuuuuuuueee   qqqqqqqq0335qqqqqqqqqq",
"qqqqqqqqq<+++@+++   eeeuuuuuuuuuuuuueee   qqqqqqqq0<*3qqqqqqqqqq",
"qqqqqqqqq1*&-,-%*   eeeuuuuuuuuuuuuueee   qqqqqqqq01<3qqqqqqqqqq",
"qqqqqqqqqqqqq    OOOOOOOOOeeeeeeeeeeeee   qqqqqqqqq000qqqqqqqqqq",
"qqqqqqqqqqqqq    OOOOOOOOOeeeeeeeeeeeee   qqqqqqqqqqqqqqqqqqqqqq",
"qqqqqqqqqqqqq    OOOOOOOOOeeeeeeeeeeeee   qqqqqqqqqqqqqqqqqqqqqq",
"qqqqqqqqqqqqq    OOOOOOOOOOOOeeeeeeeOOO   qqqqqqqqqqqqqqqqqqqqqq",
"qqqqqqqqqqqqq    OOOOOOOOOOOOeeeeeeeOOO   qqqqqqqqqqqqqqqqqqqqqq",
"qqqqqqqqqqqqq    OOOOOOOOOOOOeeeeeeeOOO   qqqqqqqqqqqqqqqqqqqqqq",
"qqqqqqqqqqqqq          ......OOO.......      qqqqqqqqqqqqqqqqqqq",
"qqqqqqqqqqqqq          ......OOO.......      qqqqqqqqqqqqqqqqqqq",
"qqqqqqqqqqqqq          ......OOO.......      qqqqqqqqqqqqqqqqqqq",
"qqqqqqqqqqqqqqqqq   ...oooooorrrtttttttrrrooo   qqq0556qqqqqqqqq",
"qqqqqqqqqqqqqqqqq   ...oooooorrrtttttttrrrooo   q2<=&%;3qqqqqqqq",
"qqqqqqqqqqqqqqqqq   ...oooooorrrtttttttrrrooo   q<#%+@+%&*;3qqqq",
"qqqqqqqqqqqqq    ......ooorrrrrrrrrraaaaaarrrooo    :*@++++1qqqq",
"qqqqqqqqqqqqq    ......ooorrrrrrrrrraaaaaarrrooo    q8-++@*1qqqq",
"qqqqqqqqqqqqq    ......ooorrrrrrrrrraaaaaarrrooo    qq3::100qqqq",
"qqqqqqqqqqqqq    ......ooorrrrrrrrrraaaaaarrrooo    qqqqqqqqqqqq",
"qqqqqqqqqqqqq    rrrttttttttttttrrrrrrrttttttaaa    qqqqqqqqqqqq",
"qqqqqqqqqqqqq    rrrttttttttttttrrrrrrrttttttaaa    qqqqqqqqqqqq",
"qqqqqqqqqqqqq    rrrttttttttttttrrrrrrrttttttaaa    qqqqqqqqqqqq",
"qqqqqqqqqqqqq    ooorrrtttttttttaaaaaaassssssttt    qqqqqqqqqqqq",
"qqqqqqqqqqq66    ooorrrtttttttttaaaaaaassssssttt    qqqqqqqqqqqq",
"qqqqqqqqqq0<;    ooorrrtttttttttaaaaaaassssssttt    qqqqqqqqqqqq",
"qqqqqqqqqq0<;    ............aaaaaaasssssssssooo    qqqqqqqqqqqq",
"qqqqqqqqqqq66    ............aaaaaaasssssssssooo    qqqqqqqqqqqq",
"qqqqqqqqqqqqq    ............aaaaaaasssssssssooo    qqqqqqqqqqqq",
"qqqqqqqqqqqqqqqqq   ............oooorrrrrrrrr   qqqqqqqqqqqqqqqq",
"qqqqqqqqqqqqqqqqq   ............oooorrrrrrrrr   qqqqqqqqqqqqqqqq",
"qqqqqqqqqqqqqqqqq   ............oooorrrrrrrrr   qqqqqqqqqqqqqqqq",
"qqqqqqqqqqqqqqqqq   ......oooooorrrrddd   ttt   qqqqq5330qqqqqqq",
"qqqqqqqqqqqqqqqqq   ......oooooorrrrddd   ttt   qqqqq3*<0qqqqqqq",
"qqqqqqqqqqqqqqqqq   ......oooooorrrrddd   ttt   qqqqq3<10qqqqqqq",
"qqqqqqqqqqqqqqqqq   ......oooooorrrrddd   ttt   qqqqq000qqqqqqqq",
"qqqqqqqqqqqqqqqqqqqq   ooooooooooooorrrppprrr   qqqqqqqqqqqqqqqq",
"qqqqqqqqqqqqqqqqqqqq   ooooooooooooorrrppprrr   qqqqqqqqqqqqqqqq",
"qqqqqqqqqqqqqqqqqqqq   ooooooooooooorrrppprrr   qqqqqqqqqqqqqqqq",
"qqqqqqqqqqqqqqqqqqqqqqq   rrrtttttttoooyyy      qqqqqqqqqqqqqqqq",
"qqqqqqqqqqqqqqqqqqqqqqq   rrrtttttttoooyyy      qqqqqqqqqqqqqqqq",
"qqqqqqqqqqqqqqqqqqqqqqq   rrrtttttttoooyyy      qqqqqqqqqqqqqqqq",
"qqqqqqqqqqqqq<;;5qqqqqq   rrrtttttttrrrrrr   qqqqqqqqqqqqqqqqqqq",
"qqqqqqqqqqq61*++%<0qqqq   rrrtttttttrrrrrr   qqqqqqqqqqqqqqqqqqq",
"qqqqqqqqq7<%@++++@&*>6q   rrrtttttttrrrrrr   qqqqqqqqqqqqqqqqqqq",
"qqqqqqqqq1%+++*$++++%1q      ppppppp   rrr   qqqqqqqqqqqqqqqqqqq",
"qqqqqqqqq1%$%;61:%++%1q      ppppppp   rrr   qqqqqqqqqqqqqqqqqqq",
"qqqqqqqqq84390qqq61>16q      ppppppp   rrr   qqq0006550qqqqqqqqq",
"qqqqqqqqqqqqqqqqqqqqqqq      pppiiii   ooo   qq3;%%%%&=<7qqqqqqq",
"qqqqqqqqqqqqqqqqqqqqqqq      pppiiii   ooo   qq1+++++++%1qqqqqqq",
"qqqqqqqqqqqqqqqqqqqqqqq      pppiiii   ooo   qq1-@++*-%%1qqqqqqq",
"qqqqqqqqqqqqqqqqqqqqqqq      pppiiii   ooo   qq001::50448qqqqqqq",
"qqqqqqqqqqqqqqqqqqqqqqqqqq          XXX   qqqqqqqqqqqqqqqqqqqqqq",
"qqqqqqqqqqqqqqqqqqqqqqqqqq          XXX   qqqqqqqqqqqqqqqqqqqqqq",
"qqqqqqqqqqqqqqqqqqqqqqqqqq          XXX   qqqqqqqqqqqqqqqqqqqqqq",
"qqqqqqqqqqqqqqqqqqqqqqqqqq   wwwwwwwwww   qqqqqqqqqqqqqqqqqqqqqq",
"qqqqqqqqqqqqqqqqqqqqqqqqqq   wwwwwwwwww   qqqqqqqqqqqqqqqqqqqqqq",
"qqqqqqqqqqqqqqqqqqqqqqqqqq   wwwwwwwwww   qqqqqqqqqqqqqqqqqqqqqq"
};
