/* XPM */
static char *ezgif_1_ee5119f1af[] = {
/* columns rows colors chars-per-pixel */
"32 32 125 2 ",
"   c #2F411E",
".  c #2F421F",
"X  c #30411F",
"o  c #30421F",
"O  c #31421F",
"+  c #304320",
"@  c #314320",
"#  c #314420",
"$  c #324521",
"%  c #334521",
"&  c #334621",
"*  c #344622",
"=  c #344722",
"-  c #354722",
";  c #354823",
":  c #364823",
">  c #364923",
",  c #364924",
"<  c #354A24",
"1  c #364A24",
"2  c #374A24",
"3  c #374B24",
"4  c #364B25",
"5  c #374B25",
"6  c #374C25",
"7  c #3F4B20",
"8  c #3F4D21",
"9  c #3F4F23",
"0  c #384B25",
"q  c #384C25",
"w  c #394C25",
"e  c #3B4D24",
"r  c #3C4D24",
"t  c #3D4E24",
"y  c #5E591B",
"u  c #5E5A1B",
"i  c #5F5B1C",
"p  c #645B19",
"a  c #655D1A",
"s  c #655D1B",
"d  c #665E1B",
"f  c #615C1D",
"g  c #68611F",
"h  c #69611F",
"j  c #6A621F",
"k  c #6F641E",
"l  c #404F23",
"z  c #414F23",
"x  c #425023",
"c  c #495322",
"v  c #4A5422",
"b  c #4E5420",
"n  c #6F6520",
"m  c #6F6522",
"M  c #886F1B",
"N  c #89701B",
"B  c #8F7118",
"V  c #8F721C",
"C  c #907118",
"Z  c #90731B",
"A  c #91741A",
"S  c #92741A",
"D  c #93741A",
"F  c #98781C",
"G  c #8F7A2B",
"H  c #A18324",
"J  c #AA8520",
"K  c #AB8520",
"L  c #AA8623",
"P  c #AC8620",
"I  c #AF8821",
"U  c #B08921",
"Y  c #B18A23",
"T  c #B48C21",
"R  c #B48D26",
"E  c #B58E27",
"W  c #B68F26",
"Q  c #B89127",
"!  c #B99127",
"~  c #B4902F",
"^  c #BA9329",
"/  c #BB9429",
"(  c #AF8F35",
")  c #B59235",
"_  c #BE9831",
"`  c #B6953A",
"'  c #B9973D",
"]  c #BC9838",
"[  c #BE9A39",
"{  c #BC993F",
"}  c #BE9B3F",
"|  c #C0982B",
" . c #C1982B",
".. c #C1982C",
"X. c #CBA339",
"o. c #B29440",
"O. c #B89841",
"+. c #BC9A42",
"@. c #B89944",
"#. c #B99944",
"$. c #BD9B44",
"%. c #B49748",
"&. c #BA9B4A",
"*. c #BB9D4D",
"=. c #BC9E4D",
"-. c #BE9E4D",
";. c #BC9E50",
":. c #BC9F51",
">. c #BFA04F",
",. c #BDA053",
"<. c #BDA054",
"1. c #BDA155",
"2. c #BFA35A",
"3. c #BFA45C",
"4. c #BFA55D",
"5. c #CEA741",
"6. c #C0A153",
"7. c #C0A253",
"8. c #C1A357",
"9. c #CBAC57",
"0. c #C0A55F",
"q. c #C9AA58",
"w. c #CEAF5B",
"e. c #D3B158",
"r. c #D5B560",
/* pixels */
"q q q q q q q q q q q q q q q q q q q q q q q q q q q q q q q q ",
"q q q q q q q q q q q q q q q q q q q q q q q q q q q q q q q q ",
"q q q q q q 3 0 q q q q q q q q q q q q q q q q q q q q q q q q ",
"q q q q : # + # # # 3 q q q q q q q q q q q q q q 3 3 q q q q q ",
"q q q q : O + O O + : q q q q q q q q q q q q q q : = q q q q q ",
"q q q q q 3 3 3 3 3 q q q q q q = : q q q q q q q 0 3 q q q q q ",
"q q q q q q q q q q q q q q q 3 : 3 q q q q q q q q q q q q q q ",
"q q q q q q q q q q q q q q t x x x t q q q q q q q q q q q q q ",
"q q q q q q q q q q q q q 6 h B V Z f 3 q q q q q q q q q q q q ",
"q q q q q q q q q q q q q c H I ' $.n q q q q q q 3 3 3 q q q q ",
"q q q q q q q q q q q 6 9 M J Y _ q.%.y 3 q q q : + O # = : q q ",
"q q q q q q q q q q q t h J Y ..I #.w.G b 6 q q 3 # #     # q q ",
"q q q q q q q q q q 3 x D | Q | ) #.9.} s 3 q q q q q : : 3 q q ",
"q q q q q q q q q q 3 x D | ^ Y :.*.&.-.s 3 q q q q q q q q q q ",
"q q q q q q q q q q 6 x D | ^ Y 4.2.:.7.s 3 q q q q q q q q q q ",
"q q q q q : : q q q 6 x Z | ^ Y 0.4.*.>.s 3 q q q q q q q q q q ",
"q q q q q : : q q q 6 x D | Q Y 0.4.*.>.s 3 q q q q q q q q q q ",
"q q q q q q q q q q 6 x D | Q Y 1.,.1.8.s 3 q q q q q q q q q q ",
"q q q q q q q q q q 6 x D | Q E O.O.7.>.p 3 q q q q q q q q q q ",
"q q q q q q q q q q 6 l N / E X.~ ` e.( y 3 q q q q 3 = 3 q q q ",
"q q q q q q q q q q q q v F P E ^ ] ] k q q q q q q 3 : 0 q q q ",
"q q q q q q q q q q q 6 l N J Y 5.r.o.i 3 q q q q q q q q q q q ",
"q q q q q q q q q q q q q c H T } +.n q q q q q q q q q q q q q ",
"q q q q q q q 3 q q q q q 3 h Z V Z f 3 q q q q q q q q q q q q ",
"q q q q q 3 = + = 3 0 q q q t 7 l x t q q q q q q q q q q q q q ",
"q q q q 3 +       O = q q q 6 : 3 6 q q q q q q q q q q q q q q ",
"q q q q 3 # = : = + = 0 q q q q q q q q q q q q 3 3 3 3 q q q q ",
"q q q q q q q q q 0 q q q q q q q q q q q q q : O O O + 3 q q q ",
"q q q q q q q q q q q q q q q q q q q q q q q 3 # + # # 3 q q q ",
"q q q q q q q q q q q q q q q q q q q q q q q q q 3 q q q q q q ",
"q q q q q q q q q q q q q q q q q q q q q q q q q q q q q q q q ",
"q q q q q q q q q q q q q q q q q q q q q q q q q q q q q q q q "
};
