/* XPM */
static char *ezgif_1_171ba8acbf[] = {
/* columns rows colors chars-per-pixel */
"32 32 90 1 ",
"  c #2F411E",
". c #2F421F",
"X c #30411F",
"o c #30421F",
"O c #31421F",
"+ c #304320",
"@ c #314320",
"# c #314420",
"$ c #324521",
"% c #334521",
"& c #334621",
"* c #344622",
"= c #344722",
"- c #354722",
"; c #354823",
": c #364823",
"> c #364923",
", c #364924",
"< c #364A24",
"1 c #374A24",
"2 c #374B24",
"3 c #374B25",
"4 c #374C25",
"5 c #3E4B21",
"6 c #3F4C21",
"7 c #384B25",
"8 c #384C25",
"9 c #394C25",
"0 c #404D21",
"q c #404E22",
"w c #404F22",
"e c #414F22",
"r c #404F23",
"t c #414F23",
"y c #424F22",
"u c #404F24",
"i c #415023",
"p c #425022",
"a c #425023",
"s c #4B5422",
"d c #4B5423",
"f c #4B5524",
"g c #826A17",
"h c #826A18",
"j c #89701C",
"k c #89701D",
"l c #91731A",
"z c #91741B",
"x c #92741B",
"c c #91741C",
"v c #91741D",
"b c #94751C",
"n c #94751D",
"m c #8A7323",
"M c #8D772C",
"N c #937621",
"B c #937722",
"V c #957721",
"C c #947722",
"Z c #957823",
"A c #947824",
"S c #947825",
"D c #947926",
"F c #957A29",
"G c #957B2A",
"H c #957B2B",
"J c #977D2E",
"K c #CAA237",
"L c #CBA43B",
"P c #CCA53E",
"I c #C7A445",
"U c #CDA741",
"Y c #CDA844",
"T c #CAA84E",
"R c #D0AD4E",
"E c #D1AF52",
"W c #D1AF53",
"Q c #D2B057",
"! c #D4B460",
"~ c #D0B468",
"^ c #D6B868",
"/ c #D7B969",
"( c #DABE76",
") c #DBC07A",
"_ c #DEC687",
"` c #E3CF9C",
"' c #DECDA0",
"] c #E5D3A3",
"[ c #E6D4A6",
"{ c #EBDEBC",
/* pixels */
"88888888888888888888888888888888",
"88888888888888888888888888888888",
"88888827888888888888888888888888",
"8888:#+###2888888888888882288888",
"8888:O+OO+:88888888888888:=88888",
"8888822222888888=:88888887288888",
"8888888888888882:288888888888888",
"888888888888888ii888888888888888",
"88888888888884uhgt48888888888888",
"88888888888888snZf88888882228888",
"8888888888884tjT'Mt88888:+O#=:88",
"8888888888884ixE{Jt488882##  #88",
"8888888888884ixR[Ft48888888::288",
"8888888888884tcQ]Ft4888888888888",
"8888888888884tc!`Ft4888888888888",
"88888::888884tcE_St4888888888888",
"88888::888884ilP)St4888888888888",
"8888888888884ixY(St4888888888888",
"8888888888884ilL^Ni2=28888888888",
"8888888888884ilK!Ni2=288882=2888",
"8888888888884ixU/Ci48888882:7888",
"8888888888884tjI~mt4888888888888",
"88888888888888snCs88888888888888",
"88888882888884thgt48888888888888",
"888882=+=27888856888888888888888",
"88882+   O=8888:2888888888888888",
"88882#=:=+=788888888888822228888",
"88888888878888888888888:OOO+2888",
"888888888888888888888882#+##2888",
"88888888888888888888888882888888",
"88888888888888888888888888888888",
"88888888888888888888888888888888"
};
