/* XPM */
static char *ezgif_1_d8f75e9c73[] = {
/* columns rows colors chars-per-pixel */
"32 32 165 2 ",
"   c #2F411E",
".  c #2F421F",
"X  c #30411F",
"o  c #30421F",
"O  c #31421F",
"+  c #3F4B1F",
"@  c #304320",
"#  c #314320",
"$  c #314420",
"%  c #324521",
"&  c #334521",
"*  c #334621",
"=  c #344622",
"-  c #344722",
";  c #354722",
":  c #344823",
">  c #354823",
",  c #364823",
"<  c #364923",
"1  c #364924",
"2  c #364A24",
"3  c #374A24",
"4  c #374B24",
"5  c #374B25",
"6  c #374C25",
"7  c #3D4E23",
"8  c #384B25",
"9  c #384C25",
"0  c #394C25",
"q  c #3A4D24",
"w  c #3B4D24",
"e  c #3D4E24",
"r  c #68611B",
"t  c #6A621A",
"y  c #6A621B",
"u  c #68611C",
"i  c #6B631D",
"p  c #6B631E",
"a  c #404D20",
"s  c #404F22",
"d  c #414F22",
"f  c #404F23",
"g  c #425021",
"h  c #425022",
"j  c #495321",
"k  c #4B5420",
"l  c #4A5421",
"z  c #4B5421",
"x  c #4A5422",
"c  c #897015",
"v  c #81701D",
"b  c #8A7118",
"n  c #8A7119",
"m  c #8A721A",
"M  c #8A731C",
"N  c #8C751F",
"B  c #927412",
"V  c #927413",
"C  c #937513",
"Z  c #937515",
"A  c #937516",
"S  c #997916",
"D  c #95781B",
"F  c #94781D",
"G  c #95791E",
"H  c #9A7C1C",
"J  c #9B7D1F",
"K  c #A17D14",
"L  c #A27D14",
"P  c #A27E14",
"I  c #927922",
"U  c #927A23",
"Y  c #9C7F24",
"T  c #A3801A",
"R  c #A4811C",
"E  c #A8841B",
"W  c #AD8A1F",
"Q  c #AF8A1E",
"!  c #AE8A1F",
"~  c #B08A1C",
"^  c #B18A1D",
"/  c #B18B1D",
"(  c #B18B1E",
")  c #B48D1F",
"_  c #B58E1F",
"`  c #A58620",
"'  c #A98621",
"]  c #AD8A26",
"[  c #B58F23",
"{  c #B28E24",
"}  c #B59027",
"|  c #BA9425",
" . c #BE9524",
".. c #B39029",
"X. c #B8952F",
"o. c #A98D32",
"O. c #B39130",
"+. c #B89531",
"@. c #B89532",
"#. c #B4953B",
"$. c #C09826",
"%. c #C49B28",
"&. c #C69D29",
"*. c #C79E29",
"=. c #C79E2A",
"-. c #C89E2A",
";. c #C89F2A",
":. c #C99F2A",
">. c #C89F2B",
",. c #CAA02A",
"<. c #CAA02B",
"1. c #CBA12B",
"2. c #C8A02D",
"3. c #CCA22D",
"4. c #CCA32D",
"5. c #CDA32D",
"6. c #CEA42E",
"7. c #CFA42E",
"8. c #CFA52E",
"9. c #CFA52F",
"0. c #D0A52F",
"q. c #D1A72F",
"w. c #CFA530",
"e. c #CFA632",
"r. c #CFA633",
"t. c #C8A234",
"y. c #CCA536",
"u. c #C8A238",
"i. c #C9A438",
"p. c #CAA438",
"a. c #CCA63B",
"s. c #C8A43C",
"d. c #CBA63E",
"f. c #CFA93C",
"g. c #CEA83F",
"h. c #D0A735",
"j. c #D1A836",
"k. c #D0A837",
"l. c #D0A93E",
"z. c #D0AA3E",
"x. c #CAA640",
"c. c #CDA942",
"v. c #CAA847",
"b. c #CEAA44",
"n. c #CEAB48",
"m. c #CFAB49",
"M. c #CDAA4A",
"N. c #CFAC49",
"B. c #CCAB4C",
"V. c #CCAB4F",
"C. c #D2AC42",
"Z. c #D2AD44",
"A. c #D3AF45",
"S. c #D1AD4C",
"D. c #D0AE4E",
"F. c #D1AE4E",
"G. c #CEAE56",
"H. c #D1AF51",
"J. c #D2B054",
"K. c #D3B256",
"L. c #D0B15C",
"P. c #D8B965",
"I. c #D9BD6F",
"U. c #D5BA73",
"Y. c #DCC17A",
/* pixels */
"9 9 9 9 9 9 9 9 9 9 9 9 9 9 9 9 9 9 9 9 9 9 9 9 9 9 9 9 9 9 9 9 ",
"9 9 9 9 9 9 9 9 9 9 9 9 9 9 9 9 9 9 9 9 9 9 9 9 9 9 9 9 9 9 9 9 ",
"9 9 9 9 9 9 4 8 9 9 9 9 9 9 9 9 9 9 9 9 9 9 9 9 9 9 9 9 9 9 9 9 ",
"9 9 9 9 , $ @ $ $ $ 4 9 9 9 9 9 9 9 9 9 9 9 9 9 9 4 4 9 9 9 9 9 ",
"9 9 9 9 , O @ O O @ , 9 9 9 9 9 9 9 9 9 9 9 9 9 9 , ; 9 9 9 9 9 ",
"9 9 9 9 9 4 4 4 4 4 9 9 9 9 9 9 ; , 9 9 9 9 9 9 9 8 4 9 9 9 9 9 ",
"9 9 9 9 9 9 9 9 9 9 9 9 9 9 6 4 , 4 9 9 9 9 9 9 9 9 9 9 9 9 9 9 ",
"9 9 9 9 9 9 9 9 9 9 9 9 6 e h h h d 9 6 9 9 9 9 9 9 9 9 9 9 9 9 ",
"9 9 9 9 9 9 9 9 9 9 6 e d t C B A c k d 9 9 9 9 9 9 9 9 9 9 9 9 ",
"9 9 9 9 9 9 9 9 9 9 9 t B ! ,.,.r.d.J m j 4 9 9 9 4 4 4 9 9 9 9 ",
"9 9 9 9 9 9 9 9 6 9 v | ,. ./ / / [ i.d.o.p 9 6 , @ O @ ; , 9 9 ",
"9 9 9 9 9 9 9 9 e t | q.$./ / / { ..[ A.C.O.p 7 4 $ $     $ 9 9 ",
"9 9 9 9 9 9 9 6 d B ,.$./ $.q.9.j.g.@.@.z.S.A d 6 9 9 , , 4 9 9 ",
"9 9 9 9 9 9 9 e t !  ./ $.9.9.9.9.e.z.@.X.b.#.p e 9 9 9 9 9 9 9 ",
"9 9 9 9 9 9 4 h B ,./ / q.9.9.9.9.9.e.N.T c.P.D h 6 9 9 9 9 9 9 ",
"9 9 9 9 9 , ; d B ,./ / 9.9.9.9.9.9.e.M.R F.I.G h 6 9 9 9 9 9 9 ",
"9 9 9 9 9 , , h B ,./ / 9.9.9.9.9.9.e.M.R J.Y.G h 6 9 9 9 9 9 9 ",
"9 9 9 9 9 9 6 d c %._ / 4.9.9.9.9.9.h.v.' H.U.N d 6 9 9 9 9 9 9 ",
"9 9 9 9 9 9 9 9 k S *._ _ 4.9.9.9.r.M.] x.J.Y k 9 9 9 9 9 9 9 9 ",
"9 9 9 9 9 9 9 6 d c *.4._ _ :.*.*.u.} t.A.G.m d 6 9 4 ; 4 9 9 9 ",
"9 9 9 9 9 9 9 9 9 j ` 4.4._ P P P E i.A.B.U k 9 9 9 4 , 8 9 9 9 ",
"9 9 9 9 9 9 9 9 9 6 t ! ,.:.:.:.2.a.F.L.U j 9 9 9 9 9 9 9 9 9 9 ",
"9 9 9 9 9 9 9 9 9 9 9 t B ! ,.:.g.B.J M k 9 9 9 9 9 9 9 9 9 9 9 ",
"9 9 9 9 9 9 9 4 9 9 6 e d t B B A m k d 9 9 9 9 9 9 9 9 9 9 9 9 ",
"9 9 9 9 9 4 ; @ ; 4 8 9 6 e h + 7 d 9 6 9 9 9 9 9 9 9 9 9 9 9 9 ",
"9 9 9 9 4 @       O ; 9 9 9 4 , 4 6 9 9 9 9 9 9 9 9 9 9 9 9 9 9 ",
"9 9 9 9 4 $ ; , ; @ ; 8 9 9 9 9 9 9 9 9 9 9 9 9 4 4 4 4 9 9 9 9 ",
"9 9 9 9 9 9 9 9 9 4 8 9 9 9 9 9 9 9 9 9 9 9 9 , O O O @ 4 9 9 9 ",
"9 9 9 9 9 9 9 9 9 9 9 9 9 9 9 9 9 9 9 9 9 9 9 4 $ @ $ $ 4 9 9 9 ",
"9 9 9 9 9 9 9 9 9 9 9 9 9 9 9 9 9 9 9 9 9 9 9 9 9 4 9 9 9 9 9 9 ",
"9 9 9 9 9 9 9 9 9 9 9 9 9 9 9 9 9 9 9 9 9 9 9 9 9 9 9 9 9 9 9 9 ",
"9 9 9 9 9 9 9 9 9 9 9 9 9 9 9 9 9 9 9 9 9 9 9 9 9 9 9 9 9 9 9 9 "
};
