/* XPM */
static char *ezgif_1_fd5b90a699[] = {
/* columns rows colors chars-per-pixel */
"32 32 157 2 ",
"   c #31291F",
".  c #2F2822",
"X  c #2E2623",
"o  c #302720",
"O  c #302920",
"+  c #342D29",
"@  c #2D3D26",
"#  c #28362F",
"$  c #2B392F",
"%  c #323422",
"&  c #343A22",
"*  c #282030",
"=  c #292B30",
"-  c #252E3E",
";  c #232139",
":  c #2A3431",
">  c #2E3D33",
",  c #26313F",
"<  c #29353B",
"1  c #313F33",
"2  c #313A3F",
"3  c #3D393C",
"4  c #5B3B25",
"5  c #713533",
"6  c #763F37",
"7  c #2F411E",
"8  c #30421F",
"9  c #2F4023",
"0  c #2E4028",
"q  c #334522",
"w  c #364A24",
"e  c #384C25",
"r  c #33452B",
"t  c #364928",
"y  c #314230",
"u  c #414926",
"i  c #41412D",
"p  c #161B53",
"a  c #191D54",
"s  c #13155B",
"d  c #151A5C",
"f  c #1B155C",
"g  c #271455",
"h  c #201F5A",
"j  c #2A1B57",
"k  c #1D2644",
"l  c #1F2945",
"z  c #1C214F",
"x  c #1A2453",
"c  c #1A2956",
"v  c #16225D",
"b  c #1E2A5C",
"n  c #1B215E",
"m  c #1A3A56",
"M  c #1B3457",
"N  c #202142",
"B  c #232C43",
"V  c #2D2846",
"C  c #3C2D4E",
"Z  c #253141",
"A  c #2C3644",
"S  c #2A3945",
"D  c #2B354B",
"F  c #313940",
"G  c #3A3840",
"H  c #30314F",
"J  c #313B4A",
"K  c #212257",
"L  c #202C57",
"P  c #2D2C54",
"I  c #232C5A",
"U  c #27245D",
"Y  c #302F53",
"T  c #3D2B5E",
"R  c #25315B",
"E  c #37325F",
"W  c #111262",
"Q  c #1C1D69",
"!  c #1D2263",
"~  c #1E2A61",
"^  c #222D60",
"/  c #28276B",
"(  c #2B2965",
")  c #382960",
"_  c #2B3061",
"`  c #253163",
"'  c #773A42",
"]  c #374E5F",
"[  c #36555A",
"{  c #194465",
"}  c #1D5467",
"|  c #3C4566",
" . c #2A5862",
".. c #3E5A66",
"X. c #345F62",
"o. c #206A6C",
"O. c #376069",
"+. c #396069",
"@. c #3C6A6D",
"#. c #2E7D71",
"$. c #555344",
"%. c #4B4453",
"&. c #6D5557",
"*. c #4D6057",
"=. c #5F6F59",
"-. c #6F6844",
";. c #6D6549",
":. c #7A6F48",
">. c #7C7244",
",. c #777048",
"<. c #454165",
"1. c #456C69",
"2. c #52646E",
"3. c #436074",
"4. c #467277",
"5. c #4A7277",
"6. c #517B71",
"7. c #A1461F",
"8. c #B4491E",
"9. c #917C3C",
"0. c #966827",
"q. c #CC5114",
"w. c #D65A19",
"e. c #D67530",
"r. c #8A7D44",
"t. c #57885B",
"y. c #76A554",
"u. c #549B74",
"i. c #4FA670",
"p. c #5EAE77",
"a. c #5CAE78",
"s. c #64A06E",
"d. c #97863F",
"f. c #B1A139",
"g. c #CF8D20",
"h. c #C9B534",
"j. c #D8C130",
"k. c #9FBC52",
"l. c #BAB34C",
"z. c #BBA864",
"x. c #B7D74F",
"c. c #B8D74E",
"v. c #AAD253",
"b. c #80C262",
"n. c #D1CC7F",
"m. c #507C80",
"M. c #776E8E",
"N. c #887688",
"B. c #5B8A89",
"V. c #698F81",
"C. c #699B88",
"Z. c #65A581",
"A. c #76B08E",
"S. c #858290",
"D. c #8BBC8C",
"F. c #B7AFA7",
"G. c #86CA99",
/* pixels */
"e e e e e e e e e t r > a a r e e e , s B r r e e e e e e e e e ",
"e e e e e e e e e , a z > r e e e e t r B a z r e e e e e e e e ",
"e e e e e e e e Z B r y z r e e e e e Z B r y x r e e e e e e e ",
"e e e e w q q q : : > B , t e e e e e > B Z r < t e e e e e e e ",
"e e e e w 8 q 8 # # > B , e e e e e e > B , r < t w q e e e e e ",
"e e e e e e e e B B > B B Z t e q w > B B , r p r e e e e e e e ",
"e e e e e e e > $.$.B Z r < t e w w > > > B A -.2 t e e e e e e ",
"e e e e e e e l r.r.l e e e e e e e e e e r P h.P r e e e e e e ",
"e e e e e e e B >.>.B e e e e e e e e e e r H f.H r e e e e e e ",
"e e e e e e e r A F r r r e r r r r t t r r y D 1 e w e e e e e ",
"e e e e e e e Z V u Z v a y a ^ ^ n , , d c r i z @ 8 q q w e e ",
"e e e e e e e Z 5 5 { o.c > I C.A.3.- , { o.P 7.V @ q 7 7 q e e ",
"e e e e e e e r G j d c y e y R ^ S t e Z v s C 1 e e w w e e e ",
"e e e e e e e B >.:.l r e w q @ @ q e e e > P f.H r e e e e e e ",
"e e e e e e e l r.r.p , e w 7 8 8 w e e > l P h.Y r e e e e e e ",
"e e e e e w w B %.%.a B Z e w w e e e > B B a ;.K r e e e e e e ",
"e e e e e w w > B p a B , t e e e e e > B B s l , t e e e e e e ",
"e e e e e e e > > > B B , t e e e e e > B B , r < t e e e e e e ",
"e e e e e e e B B r r y z r e e e e e Z B r r 1 p r e e e e e e ",
"e e e e e e e B s s s p > e e e e e e r l s s s s r w q e e e e ",
"e e e e e e e B f ( Q W _ y e e e e e J ! W / U d r e w e e e e ",
"e e e e e e e B ;.n.M.T F.| y e e e S S.N.) F.l.P r e e e e e e ",
"e e e e e e e B 1.6.' q.e.D.R r e - m.z.w.8.<.s.I r e e e e e e ",
"e e e e e e e B @.@.f g E G.` r e B B.V.g g ! u.b r e e e e e e ",
"e e e e e e q k 4.5.p B D 5.S q w > ....B l ~ Z.~ r e e e e e e ",
"e e e t , 9 7 4 &.] $ e e ; % & & & = : e e S 2.6 u e > > e e e ",
"e e t F -.B k 0.9.m = & &   o o o o o % & & Z [ g.3 l $.$.> e e ",
"e e r P j.d.*.t.t.M *   o o o o o + + o o X N  .y.X.,.h.r.l e e ",
"e e r I k.c.b.#.m =   o o o o o o o o o o o . B } i.v.x.=.B e e ",
"e e r L u.a.p.+.- & o o o o o o o o o o o o % r L u.p.a.O.- e e ",
"e e e y L b b S e e & O O o o o o o o o O O q e y L b b S e e e ",
"e e e e r r r t e e e e q o o o o o o & e e e e e r r r t e e e "
};
