/* XPM */
static char *ezgif_1_2f79e813fa[] = {
/* columns rows colors chars-per-pixel */
"32 32 192 2 ",
"   c #30281F",
".  c #2F2722",
"X  c #2C272A",
"o  c #312921",
"O  c #302A24",
"+  c #363325",
"@  c #25223C",
"#  c #5C383D",
"$  c #6D3038",
"%  c #7D3A31",
"&  c #3D432D",
"*  c #3F4E3D",
"=  c #4B5C35",
"-  c #44563D",
";  c #47593C",
":  c #4A5E3A",
">  c #485733",
",  c #575039",
"<  c #6F4E37",
"1  c #705130",
"2  c #4F6437",
"3  c #4E6338",
"4  c #506537",
"5  c #0B0A5F",
"6  c #0F105E",
"7  c #13155D",
"8  c #16185C",
"9  c #1A1C5A",
"0  c #1A1457",
"q  c #311E4C",
"w  c #2E1D50",
"e  c #1D2256",
"r  c #1D2259",
"t  c #1F2C5F",
"y  c #1F3259",
"u  c #232948",
"i  c #312D4F",
"p  c #2B354D",
"a  c #2E394C",
"s  c #3B3E45",
"d  c #313C4A",
"f  c #34314A",
"g  c #242455",
"h  c #222855",
"j  c #2F2E57",
"k  c #22225A",
"l  c #292858",
"z  c #2A3252",
"x  c #25315A",
"c  c #2B335B",
"v  c #243A5D",
"b  c #333255",
"n  c #333953",
"m  c #3A3858",
"M  c #0B0A61",
"N  c #0E1461",
"B  c #132F66",
"V  c #1B2463",
"C  c #24236D",
"Z  c #2B2B6C",
"A  c #232765",
"S  c #303267",
"D  c #272573",
"F  c #323A72",
"G  c #4C2545",
"H  c #4A3D4C",
"J  c #553D49",
"K  c #3E4D42",
"L  c #34414B",
"P  c #3B4349",
"I  c #374447",
"U  c #3F5141",
"Y  c #274559",
"T  c #3A4452",
"R  c #344250",
"E  c #1B4664",
"W  c #194E67",
"Q  c #184E68",
"!  c #174C65",
"~  c #2A5A67",
"^  c #294872",
"/  c #39686C",
"(  c #3A6A73",
")  c #35797A",
"_  c #377363",
"`  c #415340",
"'  c #4A4352",
"]  c #434154",
"[  c #595A48",
"{  c #695F4B",
"}  c #7B454E",
"|  c #7D7447",
" . c #7A6F51",
".. c #627257",
"X. c #6A644A",
"o. c #51546D",
"O. c #76586F",
"+. c #446767",
"@. c #486E74",
"#. c #547D7F",
"$. c #4D7072",
"%. c #7D7F73",
"&. c #6C6D78",
"*. c #873F2B",
"=. c #B95F1E",
"-. c #B65B17",
";. c #915D2A",
":. c #83493D",
">. c #875630",
",. c #976024",
"<. c #94743B",
"1. c #B26122",
"2. c #A47D28",
"3. c #DB6C17",
"4. c #855D59",
"5. c #8B7D44",
"6. c #827647",
"7. c #886A41",
"8. c #A96A5A",
"9. c #33856A",
"0. c #3F9E7D",
"q. c #7DA754",
"w. c #409069",
"e. c #549B75",
"r. c #559C6D",
"t. c #649F6B",
"y. c #648579",
"u. c #54A06D",
"i. c #48A57E",
"p. c #5FAE77",
"a. c #6EB26E",
"s. c #71B46D",
"d. c #64AF71",
"f. c #B7AA38",
"g. c #C0931F",
"h. c #DA8216",
"j. c #E29F1A",
"k. c #CCB833",
"l. c #F3A62F",
"z. c #FFB124",
"x. c #F0B931",
"c. c #F2A90E",
"v. c #C9C539",
"b. c #E4D832",
"n. c #8D8040",
"m. c #958346",
"M. c #889645",
"N. c #92AD53",
"B. c #B6A443",
"V. c #8C8573",
"C. c #A2B47A",
"Z. c #E39C47",
"A. c #C69676",
"S. c #C6B26B",
"D. c #E0B075",
"F. c #F7CC44",
"G. c #E6D679",
"H. c #494A83",
"J. c #537C80",
"K. c #7B7990",
"L. c #696A94",
"P. c #5B51B0",
"I. c #7C71CB",
"U. c #8265E8",
"Y. c #957BEC",
"T. c #6E8493",
"R. c #678D86",
"E. c #5BAD89",
"W. c #76B990",
"Q. c #7AC38C",
"!. c #898989",
"~. c #8F869D",
"^. c #A19A83",
"/. c #8ED49E",
"(. c #B9C28D",
"). c #96DCA1",
"_. c #B9ECBE",
"`. c #AEE5B9",
"'. c #D6D490",
"]. c #9C83F4",
"[. c #B39FF0",
"{. c #AE93EA",
"}. c #C0BED9",
"|. c #C1A9EB",
" X c #C9B5ED",
".X c #D1C1DF",
"XX c #D7CADC",
"oX c #CBEECD",
"OX c #D6E2D4",
"+X c #E3EED5",
"@X c #E2E1D4",
"#X c #D8D2E1",
/* pixels */
"3 3 3 3 3 3 3 3 3 3 3 3 3 2 : T S ` 3 3 3 3 3 3 3 3 3 3 3 3 3 3 ",
"3 3 3 3 3 3 3 3 3 3 3 3 3 : s %.(.] - 3 3 3 3 3 3 3 3 3 3 3 3 3 ",
"3 3 3 3 3 3 3 3 3 3 3 3 2 a < M.u.2.i ; 3 3 3 3 3 3 3 3 3 3 3 3 ",
"3 3 3 3 3 3 3 3 3 3 3 2 3 p 0 +.p.c 0 ` 3 2 3 3 3 3 3 3 3 3 3 3 ",
"3 3 3 3 3 3 3 3 3 3 : ; d 9 6 @.Q.V 8 h ` ; 3 3 3 3 3 3 3 3 3 3 ",
"3 3 3 3 3 3 3 3 3 : d r a ` f +.p.b K K h h - 3 3 3 3 3 3 3 3 3 ",
"3 3 3 3 3 3 3 3 2 L d - L r % m.r.=.l z K ` z : 3 3 3 3 3 3 3 3 ",
"3 3 3 3 3 3 3 3 3 ; - s 5.6.;.F.G.j.J B.H ` - 3 3 3 3 3 3 3 3 3 ",
"3 3 3 3 3 3 3 3 2 d G -.x.l.1.m.D.<.3.F.h.*.g : 2 3 3 3 3 3 3 3 ",
"3 3 3 3 3 3 3 2 K e 4.z.g.>.H ) OX~.:.<.c.Z.l a : 3 3 3 3 3 3 3 ",
"3 3 3 3 3 3 3 2 a M !.S., 9 Q 0.+X@XZ p 7.'.Z 7 ; 2 3 3 3 3 3 3 ",
"3 3 3 3 3 3 3 2 ` e o.o.K d Q 0.+X@XS - T &.V a : 3 3 3 3 3 3 3 ",
"3 3 3 3 3 3 3 2 K a a a d e ~ i.+XXXZ p d p a d : 3 3 3 3 3 3 3 ",
"3 3 3 3 3 3 3 2 p # 1 Y B M @.Q.#X|.C N E P >.g ; 2 3 3 3 3 3 3 ",
"3 3 3 3 3 3 3 2 K # G B Y e J.). X].C z E 9 $ s : 3 3 3 3 3 3 3 ",
"3 3 3 3 3 3 3 2 K [ ' e ` p T._.{.U.C - d k X.P : 3 3 3 3 3 3 3 ",
"3 3 3 3 3 3 3 2 p 5.5.r ` p T.oXY.U.C - a j k.b ; 2 3 3 3 3 3 3 ",
"3 3 3 3 3 3 3 2 p ' ' e d e #.`.].Y.C p p k { k ; 2 3 3 3 3 3 3 ",
"3 3 3 3 3 3 3 2 K a e e d e @./.[.[.D p p 8 p d : 3 3 3 3 3 3 3 ",
"3 3 3 3 3 3 3 2 K ` ` a d e ~ W.|..XZ p a L : I : 3 3 3 3 3 3 3 ",
"3 3 3 3 3 3 3 2 a e d d d e W E. X.XZ p d d p 9 ; 2 3 3 3 3 3 3 ",
"3 3 3 3 3 3 3 2 a M M M e e Q i.#X{.C u 7 5 M 8 ; 2 3 3 3 3 3 3 ",
"3 3 3 3 3 3 3 2 p ' V.H.H.H.! i.OXY.D L.Z K. .g ; 2 3 3 3 3 3 3 ",
"3 3 3 3 3 3 3 2 p ..C.O.8.^.( ) }.P.R.A.} !.N.x ; 2 3 3 3 3 3 3 ",
"3 3 3 3 3 3 3 2 p ( / 0 q y.#.^ I.F W.m w V e.A ; 2 2 2 3 3 3 3 ",
"3 3 3 3 3 : : 2 s $.@.p ; R L a C K c ` ` c R.m : 2 ; 3 3 3 3 3 ",
"3 3 3 3 : P L ; ,.:.Y ; = & o @ 0 X O > = K m =., ` n - 3 3 3 3 ",
"3 3 3 2 a | n.r 6.M.E @ o o   . X . o o O e _ f.n ] f.n ; 2 3 3 ",
"3 3 3 2 p | b.q.9.~ u . o o o o o o     . X y _ w.v.v.j ; 2 3 3 ",
"3 3 3 2 d +.s.d./ d & o o o o o o o     o + * v e.a.t.x ; 2 3 3 ",
"3 3 3 3 : L t x L 3 3 & o o o o o o o o + > 3 - x t x - 3 3 3 3 ",
"3 3 3 3 2 : - - : 2 2 3 = &   o o o o > = 3 2 3 ; - ; 3 3 3 3 3 "
};
