/* XPM */
static char *ezgif_1_fd2761a67b[] = {
/* columns rows colors chars-per-pixel */
"32 32 15 1 ",
"  c #364726",
". c #374827",
"X c #374927",
"o c #384927",
"O c #384928",
"+ c #384A28",
"@ c #394A28",
"# c #394B28",
"$ c #394B29",
"% c #3A4B28",
"& c #3A4B29",
"* c #3A4C29",
"= c #3A4C2A",
"- c #3B4C2A",
"; c #3B4D2A",
/* pixels */
";;;;;;;;;;;;;;;;;;;;;;;;;;;;;;;;",
";;;;;;;;;;;;;;;;;;;;;;;;;;;;;;;;",
";;;;######;;;;;;;;;;;;;;;;;;;;;;",
";;;;##..o#;;;;;;;;;;;;;;;;;;;;;;",
";;;;##...#;;;;;;##;;;;;;;;;;;;;;",
";;;;######;;;;;;##;;;;;;;;;;;;;;",
";;;;;;;;;;;;;;;;;;;;;;;;;;;;;;;;",
";;;;;;;;;;;;;;;;;;;;;;;;;;;;;;;;",
";;;;;;;;;;;;;;;;;;;;;;;;;;;;;;;;",
";;;;;;;;;;;;;;;;;;;;;;;;;;##;;;;",
";;;;;;;;;;;;;;;;;;;;;;;;##o..#;;",
";;;;;;;;;;;;;;;;;;;;;;;;##...#;;",
";;;;;;;;;;;;;;####;;;;;;;;;###;;",
";;;;;;;;;;;;;;#o##;;;;;;;;;;##;;",
";;;;;;;;;;;;;#..o#;;;;;;;;;;;;;;",
";;;;;;;;;;;;;;#.##;;;;;;;;;;;;;;",
";;;;;;;;;;;;;;;;;;;;;;;;;;;;;;;;",
";;;;;;;;;;;;;;;;;;;;;;;;;;;;;;;;",
";;;;;;;;;;;;;;;;;;;;##;;;;##;;;;",
";;;;;;;;;;;;;;;;;;;;##;;;;##;;;;",
";;;;;;;;;;;;;;;;;;;;;;;;;;;;;;;;",
";;;;;;;;;;;;;;;;;;;;;;;;;;;;;;;;",
";;;;;;;;;;;;;;;;;;;;;;;;;;;;;;;;",
";;;;;;;##;;;;;;;;;;;;;;;;;;;;;;;",
";;;;##o..o##;;##;;;;;;;;;;;;;;;;",
";;;;#o.  .o#;;##;;;;;;;;;;;;;;;;",
";;;;##oooo##;;;;;;;;;;;;####;;;;",
";;;;########;;;;;;;;;;;;#..#;;;;",
";;;;;;;;;;;;;;;;;;;;;;;;#oo#;;;;",
";;;;;;;;;;;;;;;;;;;;;;;;####;;;;",
";;;;;;;;;;;;;;;;;;;;;;;;;;;;;;;;",
";;;;;;;;;;;;;;;;;;;;;;;;;;;;;;;;"
};
