/* XPM */
static char *ezgif_7_469efe15c3[] = {
/* columns rows colors chars-per-pixel */
"32 32 138 2 ",
"   c #030403",
".  c #0A0601",
"X  c #060905",
"o  c #0B0D05",
"O  c #070708",
"+  c #0C0C0B",
"@  c #140C05",
"#  c #180F07",
"$  c #1D1607",
"%  c #1B1309",
"&  c #13180F",
"*  c #100F10",
"=  c #141414",
"-  c #1A1613",
";  c #191C13",
":  c #1A1A1A",
">  c #200E01",
",  c #221000",
"<  c #241B04",
"1  c #231C0D",
"2  c #2A180A",
"3  c #3C1A00",
"4  c #251D14",
"5  c #1B2412",
"6  c #1E2914",
"7  c #2F2208",
"8  c #3B2600",
"9  c #3C2901",
"0  c #35270E",
"q  c #3F3D09",
"w  c #252A13",
"e  c #3C2D11",
"r  c #283519",
"t  c #2C3C1D",
"y  c #232323",
"u  c #2A2826",
"i  c #2C2B2B",
"p  c #362D26",
"a  c #2B3026",
"s  c #2F2F30",
"d  c #343333",
"f  c #3A3A37",
"g  c #3C3C3B",
"h  c #411D01",
"j  c #472200",
"k  c #4E2800",
"l  c #4B2A0F",
"z  c #45320C",
"x  c #4E390D",
"c  c #5B3500",
"v  c #533E0E",
"b  c #432712",
"n  c #4B2C13",
"m  c #633C00",
"M  c #443223",
"N  c #4C3B2E",
"B  c #403E3B",
"V  c #2F401E",
"C  c #30421F",
"Z  c #324421",
"A  c #364A24",
"S  c #384C25",
"D  c #5B5002",
"F  c #5F4710",
"G  c #624200",
"H  c #694500",
"J  c #744D00",
"K  c #645500",
"L  c #6B5B00",
"P  c #7C5300",
"I  c #40403F",
"U  c #544A3F",
"Y  c #705027",
"T  c #7C562A",
"R  c #444342",
"E  c #484745",
"W  c #4A4846",
"Q  c #4B4A49",
"!  c #504F4E",
"~  c #555452",
"^  c #585755",
"/  c #5A5956",
"(  c #5D5C59",
")  c #63615F",
"_  c #656461",
"`  c #686763",
"'  c #6B6966",
"]  c #6F6D69",
"[  c #726F6A",
"{  c #73716C",
"}  c #777571",
"|  c #787672",
" . c #7C7A75",
".. c #7F7D78",
"X. c #855B00",
"o. c #916B00",
"O. c #9D7C00",
"+. c #AC6431",
"@. c #C67639",
"#. c #81776A",
"$. c #817F79",
"%. c #A28000",
"&. c #B69C00",
"*. c #BFA200",
"=. c #C9AD00",
"-. c #CAAF00",
";. c #CCAF00",
":. c #CEB100",
">. c #8C8376",
",. c #82807B",
"<. c #83817C",
"1. c #84827C",
"2. c #87857F",
"3. c #C48942",
"4. c #D18641",
"5. c #D2964F",
"6. c #DC9749",
"7. c #DF9B4B",
"8. c #E19D4D",
"9. c #EE9A4A",
"0. c #E6A252",
"q. c #EAA656",
"w. c #F6A550",
"e. c #FDAE55",
"r. c #8A8781",
"t. c #8E8B85",
"y. c #918A80",
"u. c #918E87",
"i. c #908D87",
"p. c #928F89",
"a. c #939089",
"s. c #94918A",
"d. c #999288",
"f. c #9A9388",
"g. c #9D9992",
"h. c #A19D95",
"j. c #A29F97",
"k. c #A4A098",
/* pixels */
"S S S S S S S S S S S S S S 5       Z S S S S S S S S S S S S S ",
"S S S S S S S S S S S S A 6 q K K D w t S S S S S S S S S S S S ",
"S S S S S S A S S S S A t o L :.:.&.< 5 Z A S S S S S S S S S S ",
"S S S S A Z Z Z Z Z A 6 @ G O.-.-.*.P 9 o Z S S S A A S S S S S ",
"S S S S A C Z C C Z A 5 . J o.%.%.O.X.9   Z S S S A Z S S S S S ",
"S S S S S A A A A S S 5 . H P P P P P 8   Z S S S A A S S S S S ",
"S S S S S S S S S S S 5   3 m P P J k , X Z S S S S S S S S S S ",
"S S S S S S S S S S Z 5 . 3 c J J J j > X t Z A S S S S S S S S ",
"S S S S S S S S S Z o + - 3 h j j j h 2 = X o Z S S S S S S S S ",
"S S S S S S S A 6 5 + : u M b 3 3 3 M p y + + 5 t S A A S S S S ",
"S S S S S S A t X   : i f Q N l n n W R d : :   5 t V Z Z A S S ",
"S S S S S S 6 X = = i g Q Q [ f.d.y.~ Q E d i = + o t C V Z S S ",
"S S S S S S 5   R Q ^ Q R Q ] a.p.r.~ E R ~ ^ Q y   Z A A A S S ",
"S S S S S S 5 + { ,.$.^ d E ) ....} ! g f } $.<.B   Z S S S S S ",
"S S S S S S 5 O / ` ..' / { 1.u.u.t.| _ ( | ..' d   Z S S S S S ",
"S S S S S A 5   g Q { ..,.g.j.j.k.j.j.u...| { Q y   Z S S S S S ",
"S S S S S A 5   : y Q ' $.,.s.k.k.j.2.$. .^ Q y +   Z S S S S S ",
"S S S S S S t 5 + = i R / ^ ` | | { ( ^ ~ d i * & w A S S S S S ",
"S S S S S S S Z X   : i d d g Q Q E d d d : :   5 S S S S S S S ",
"S S S S S S S Z X   g E Q W Q Q Q Q Q Q Q E g   5 S A Z A S S S ",
"S S S S S S S Z X O / ~ I Q Q Q Q Q Q E R ) / O 5 S A A S S S S ",
"S S S S S S S Z   O { / d E Q Q Q Q Q g f | { O 5 S S S S S S S ",
"S S S S S S r 6 f R | ' / ) _ _ _ _ _ ( (  .| R a 6 A S S S S S ",
"S S S S A Z w 4 #.>.{ {  ...............| [ { >.U % t A S S S S ",
"S S S S Z o Y 8.q.5.4 i ^ | ........$.` W = 4 5.0.3.$ 6 S S S S ",
"S S S S Z   T e.9.4.# y ! ) _ _ _ _ _ / R   # 4.w.7.% 5 S S S S ",
"S S S S Z o Y 6.@.+.@ y Q Q Q Q Q Q Q Q R   # +.4.3.% 6 S S S S ",
"S S S S A Z w % # #   : f Q Q Q Q Q Q R i     # % % r t A S S S ",
"S S S S S S 6         : d E R R R R E B i         o V Z A S S S ",
"S S S S S S A Z Z t   $ e e 1 O O + e e 0     t Z Z A S S S S S ",
"S S S S S S S S S Z   < x x <     . z x z . X Z S S S S S S S S ",
"S S S S S S S S S Z   7 F F 7     . v F v . X Z S S S S S S S S "
};
