/* XPM */
static char *ezgif_1_36778bc386[] = {
/* columns rows colors chars-per-pixel */
"32 32 183 2 ",
"   c #0D0D09",
".  c #070A05",
"X  c #100F0E",
"o  c #140C04",
"O  c #0C1108",
"+  c #14160A",
"@  c #1B150A",
"#  c #141B0E",
"$  c #1F1B0C",
"%  c #151514",
"&  c #161B12",
"*  c #1A1E15",
"=  c #1C1C1A",
"-  c #2B1402",
";  c #2A1D05",
":  c #211A0B",
">  c #2A1E0C",
",  c #221604",
"<  c #351903",
"1  c #391F08",
"2  c #211C15",
"3  c #281D14",
"4  c #172010",
"5  c #1D2514",
"6  c #1E221A",
"7  c #1F2818",
"8  c #1F2B15",
"9  c #2F2306",
"0  c #24220D",
"q  c #2A240C",
"w  c #3E2400",
"e  c #312805",
"r  c #3A2C02",
"t  c #312309",
"y  c #3C2C0A",
"u  c #342D0A",
"i  c #3B3303",
"p  c #33330E",
"a  c #3B380A",
"s  c #232C15",
"d  c #2A2E12",
"f  c #20241C",
"g  c #232C1A",
"h  c #2E281F",
"j  c #2D251B",
"k  c #332516",
"l  c #372816",
"z  c #243016",
"x  c #2B3316",
"c  c #26331A",
"v  c #28361B",
"b  c #2C3C1E",
"n  c #303C1A",
"m  c #333A15",
"M  c #252423",
"N  c #282727",
"B  c #262823",
"V  c #2A2B25",
"C  c #2C2C2B",
"Z  c #3A2F25",
"A  c #322C24",
"S  c #2F3F20",
"D  c #2F302D",
"F  c #31312E",
"G  c #3B342C",
"H  c #343434",
"J  c #3A3A34",
"K  c #3C3B3B",
"L  c #393734",
"P  c #422100",
"I  c #432C0A",
"U  c #4C2A01",
"Y  c #4E3600",
"T  c #483E07",
"R  c #47350B",
"E  c #563502",
"W  c #523E03",
"Q  c #5E3D07",
"!  c #5E3E0A",
"~  c #412C14",
"^  c #4A3316",
"/  c #49381E",
"(  c #583B1B",
")  c #633F01",
"_  c #403221",
"`  c #43392E",
"'  c #453E35",
"]  c #4A3D30",
"[  c #403D39",
"{  c #2F401F",
"}  c #31411F",
"|  c #2F4020",
" . c #324521",
".. c #364A24",
"X. c #384C25",
"o. c #4E4102",
"O. c #46430B",
"+. c #5C4001",
"@. c #5A4B00",
"#. c #544A04",
"$. c #5E5100",
"%. c #634100",
"&. c #6C4800",
"*. c #604D03",
"=. c #714B00",
"-. c #695D06",
";. c #775000",
":. c #795200",
">. c #775B00",
",. c #7B5900",
"<. c #7F6902",
"1. c #41413E",
"2. c #4B443C",
"3. c #5A4D3F",
"4. c #744D24",
"5. c #7D552B",
"6. c #454443",
"7. c #484746",
"8. c #4E4D4C",
"9. c #4E4A46",
"0. c #534D46",
"q. c #514E49",
"w. c #52514F",
"e. c #5E5142",
"r. c #555452",
"t. c #585755",
"y. c #5D5A55",
"u. c #5C5B59",
"i. c #62574A",
"p. c #62584C",
"a. c #615F5B",
"s. c #77624A",
"d. c #7C664F",
"f. c #6B6155",
"g. c #65635E",
"h. c #74695A",
"j. c #736451",
"k. c #666562",
"l. c #686662",
"z. c #6C6A66",
"x. c #6C6B68",
"c. c #716F6B",
"v. c #7D7161",
"b. c #75736E",
"n. c #797672",
"m. c #7C7974",
"M. c #7F7D78",
"N. c #8A6500",
"B. c #866E01",
"V. c #836600",
"C. c #926D00",
"Z. c #8A7701",
"A. c #967200",
"S. c #856138",
"D. c #8A653D",
"F. c #A26C34",
"G. c #A47036",
"H. c #967A59",
"J. c #AD7C46",
"K. c #B07F48",
"L. c #817F79",
"P. c #9D8400",
"I. c #9D8800",
"U. c #A18100",
"Y. c #A88500",
"T. c #A58B00",
"R. c #AD8B00",
"E. c #BA9B00",
"W. c #C0A200",
"Q. c #84827C",
"!. c #89867F",
"~. c #898782",
"^. c #8E8C87",
"/. c #8C8A85",
"(. c #928F89",
"). c #94928D",
"_. c #9B9893",
"`. c #999691",
"'. c #A09D97",
"]. c #A19F99",
"[. c #A6A39D",
"{. c #ABA8A2",
"}. c #B1AEA8",
/* pixels */
"X.X.X.X.X.X.X.X.X.X.X.X. .n p i i i r e q d b ..X.X.X.X.X.X.X.X.",
"X.X.X.X.X.X.X.X.X.X.X. .b m O.#.$.$.@.o.i p n  .X.X.X.X.X.X.X.X.",
"X.X.X.X.X.............} x a -.Z.I.T.P.B.*.R m b  .X.X.X.X.X.X.X.",
"X.X.X.X..... . ... . .b d T <.T.E.W.E.U.>.W p x b  .X.X.X.X.X.X.",
"X.X.X.X..... . ... .b x u W V.U.R.R.Y.A.,.+.r q d v  .X.X.X.X.X.",
"X.X.X.X.X......... .v d e Y ,.C.A.C.N.,.&.E w ; 0 s  .X.X.X.X.X.",
"X.X.X.X.X.X.X.X.X. .v s ; w %.;.:.=.) E U P < - $ 5 b X.X.X.X.X.",
"X.X.X.X.X.X.X.X...{ c 5 : t R ! Q E I 1 < - - , @ 5 b X.X.X.X.X.",
"X.X.X.X.X.X.X. .{ c 5 * 2 j _ / ^ ~ k 3 : @ o o # s b X.X.X.X.X.",
"X.X.X.X.X.X. .b c 7 6 M F K 2.2.` Z V M = %     & c  .X.X.X.X.X.",
"X.X.X.X.X... .c 5 6 V K r.g.g.y.9.[ H C M = X + 5 v  . .....X.X.",
"X.X.X.X.X. .v g B D 6.u.c.n.c.k.r.7.6.K H M = % 5 c {  . ...X.X.",
"X.X.X.X.X. .g V 1.r.z.n.M.n.k.t.8.8.r.w.6.H C f 5 s b ....X.X.X.",
"X.X.X.X.X.S g F y.m.^.).^.L.x.a.u.u.k.a.w.6.H B * 5 b X.X.X.X.X.",
"X.X.X.X.X.S g J b.`.{.{.'.(.Q.m.n.n.b.z.t.6.J C 6 5 b X.X.X.X.X.",
"X.X.X.X.X.S g J z.(.{.}.[._.(.~.~.Q.n.k.8.K H M * 5 b X.X.X.X.X.",
"X.X.X.X.X.| g V 6.l.^.].]._.(.~.Q.m.z.r.J M M = & 5 b X.X.X.X.X.",
"X.X.X.X.X. .c g V 6.x.Q./.~.M.b.z.a.w.1.N = % % # 5 b X.X.X.X.X.",
"X.X.X.X.X...b c 6 N 7.u.k.k.a.r.1.H F N = % % % & 7 b X.X.X.X.X.",
"X.X.X.X.X.X. .v & = J q.y.a.r.6.H M M = = % % & 5 c  .X.X.X.X.X.",
"X.X.X.X.X.X. .v & f ' i.h.h.a.8.J C C M = % & 5 v  . .X.X.X.X.X.",
"X.X.X.X.X.X. .c & = ` e.j.h.a.r.6.K H V 6 * 5 c  .X.X.X.X.X.X.X.",
"X.X.X.X.X.X. .c # % h ` 3.p.y.u.t.8.K D f g v  ...X.X.X.X.X.X.X.",
"X.X.X.X.X.X. .v 4 & 2 A ' 0.y.g.l.y.1.C g g  .X.X.X.X.X.X.X.X.X.",
"X.X.X.X.X... .v z 5 * M L 0.f.v.v.f.[ B 7 z  .X.X.X.X.X.X.X.X.X.",
"X.X.X.X.X. . .{ v c 5 6 C 2.d.H.H.s.G = 5 z  .X.X.X.X.X.X.X.X.X.",
"X.X.X.X.X.X... .{ v 6 = M ] D.J.K.S.k   # s  .X.X.......X.X.X.X.",
"X.X.X.X.X.X.X... .v f = = _ 5.F.G.5.> . # c  .X... . . ...X.X.X.",
"X.X.X.X.X.X.X.X...b g 5 * k ( 4.4.( : O 5 v  .X...........X.X.X.",
"X.X.X.X.X.X.X.X.X. .c 5 * q ^ ( ^ l @ # c  .X.X.X.......X.X.X.X.",
"X.X.X.X.X.X.X.X.X. .v s 0 t I R y > + 4 v ..X.X.X.X.X.X.X.X.X.X.",
"X.X.X.X.X.X.X.X.X. .b z q t y y 9 : + 4 b X.X.X.X.X.X.X.X.X.X.X."
};
