/* XPM */
static char *ezgif_1_d76588b616[] = {
/* columns rows colors chars-per-pixel */
"32 32 183 2 ",
"   c #0C0B07",
".  c #130D04",
"X  c #1A0F05",
"o  c #110F0C",
"O  c #0E110A",
"+  c #14150B",
"@  c #141A0C",
"#  c #1E180D",
"$  c #151613",
"%  c #161A12",
"&  c #1A1D14",
"*  c #1C1C1B",
"=  c #191614",
"-  c #240F01",
";  c #211504",
":  c #2D1401",
">  c #231E0D",
",  c #2B1F0D",
"<  c #341C04",
"1  c #3D1D00",
"2  c #311704",
"3  c #241B12",
"4  c #231F1C",
"5  c #1A210F",
"6  c #1B2313",
"7  c #1E2914",
"8  c #1F231B",
"9  c #2D2405",
"0  c #21230E",
"q  c #27290D",
"w  c #2C270D",
"e  c #342404",
"r  c #332900",
"t  c #38260F",
"y  c #312B0C",
"u  c #3B2A0A",
"i  c #3B3301",
"p  c #38350A",
"a  c #222213",
"s  c #212C16",
"d  c #22251D",
"f  c #232C1A",
"g  c #2D281E",
"h  c #312316",
"j  c #3E2B15",
"k  c #3E2D1D",
"l  c #2F3815",
"z  c #263319",
"x  c #28361B",
"c  c #2C3B1D",
"v  c #283215",
"b  c #313714",
"n  c #3A3B10",
"m  c #313C19",
"M  c #242423",
"N  c #2A2725",
"B  c #262A21",
"V  c #2B2B25",
"C  c #282728",
"Z  c #2D2C2B",
"A  c #342C23",
"S  c #3A2F25",
"D  c #2B3025",
"F  c #323028",
"G  c #3A3029",
"H  c #2F2F30",
"J  c #353433",
"K  c #383533",
"L  c #383836",
"P  c #3D3C3B",
"I  c #422607",
"U  c #492600",
"Y  c #482E07",
"T  c #4A3B05",
"R  c #42330B",
"E  c #433607",
"W  c #523302",
"Q  c #5F3C01",
"!  c #573B0B",
"~  c #402C14",
"^  c #4B371B",
"/  c #513416",
"(  c #5A3918",
")  c #573C1D",
"_  c #603E07",
"`  c #4E3723",
"'  c #443727",
"]  c #543D2B",
"[  c #423E3A",
"{  c #2F411F",
"}  c #31411E",
"|  c #2F4120",
" . c #324521",
".. c #364A24",
"X. c #384C25",
"o. c #554700",
"O. c #504907",
"+. c #5C4D02",
"@. c #544908",
"#. c #5C5001",
"$. c #654300",
"%. c #6D4A00",
"&. c #62420A",
"*. c #704A00",
"=. c #635101",
"-. c #6D5000",
";. c #735300",
":. c #7B5400",
">. c #59432F",
",. c #484136",
"<. c #4A433B",
"1. c #584938",
"2. c #6F4622",
"3. c #784F25",
"4. c #785228",
"5. c #674C35",
"6. c #444442",
"7. c #4C4C4B",
"8. c #4C4743",
"9. c #5C4F41",
"0. c #52514E",
"q. c #555453",
"w. c #585653",
"e. c #5B5956",
"r. c #5C5B59",
"t. c #64584B",
"y. c #725D47",
"u. c #6D5F50",
"i. c #615E5A",
"p. c #655C50",
"a. c #62615E",
"s. c #6D6357",
"d. c #7D6F5D",
"f. c #656462",
"g. c #696763",
"h. c #6C6A66",
"j. c #6E6C68",
"k. c #766D64",
"l. c #716F6C",
"z. c #73716D",
"x. c #7D7367",
"c. c #757472",
"v. c #797772",
"b. c #7D7B76",
"n. c #7F7D78",
"m. c #866200",
"M. c #816C02",
"N. c #906D00",
"B. c #967200",
"V. c #977F00",
"C. c #9A7D00",
"Z. c #835227",
"A. c #825E36",
"S. c #996332",
"D. c #AA7237",
"F. c #B9783A",
"G. c #907556",
"H. c #9B7E5B",
"J. c #A57444",
"K. c #877A67",
"L. c #817464",
"P. c #827F7A",
"I. c #9C8600",
"U. c #A38200",
"Y. c #A18B00",
"T. c #AD8B00",
"R. c #BB9D00",
"E. c #B49500",
"W. c #BFA100",
"Q. c #B68249",
"!. c #84827D",
"~. c #88857F",
"^. c #A68560",
"/. c #C58A4D",
"(. c #8D8A85",
"). c #8A8783",
"_. c #908D8A",
"`. c #95938D",
"'. c #9D9A95",
"]. c #A09D97",
"[. c #A19E99",
"{. c #A4A19C",
"}. c #A9A6A1",
/* pixels */
"X.X.X.X.X.X.X.X.X. .x q 9 r i i i p l c ..X.X.X.X.X.X.X.X.X.X.X.",
"X.X.X.X.X.X.X... .} b p T o.#.=.#.O.n m  .X.X.X.X.X.X.X.X.X.X.X.",
"X.X.X.X....... .c b E +.M.V.Y.Y.I.M.@.n m  ...X.X.X.X.X.X.X.X.X.",
"X.X.X.X... . .c s y T ;.V.E.R.W.R.V.=.E b c  .X.X.X.X.X.X.X.X.X.",
"X.X.X.X... .x s 0 e W ;.N.U.T.T.T.B.-.T q z  .X.X.X.X.X.X.X.X.X.",
"X.X.X.X...{ s 5 ; < U $.:.m.N.B.B.m.$.Y q s  .X.X.X.X.X.X.X.X.X.",
"X.X.X.X.X.c 6 + ; : 1 U W Q *.:.:.%.W e 0 s } X.X.X.X.X.X.X.X.X.",
"X.X.X.X.X.c 6 + X - : 2 < I W _ &.! u , # 7 c  .X.X.X.X.X.X.X.X.",
"X.X.X.X.X.} s @ . . X # 3 h ~ ^ ^ ' A d & & f c  .X.X.X.X.X.X.X.",
"X.X.X.X.X. .z 6 O   o = 4 V S ' ,.<.6.P Z M s z c  . ...X.X.X.X.",
"X.X.X.X.X. .x 7 + O $ * Z J [ 8.q.a.h.g.q.P V d s x c  . ...X.X.",
"X.X.X.X.X. .z 6 % * M Z P 6.7.q.r.h.n.n.j.q.P N 7 7 x  . ...X.X.",
"X.X.X.X.X.c 7 % * C L 6.0.w.e.e.w.a.c.P.v.h.w.P d 6 x  ...X.X.X.",
"X.X.X.X.X.c 5 + d J 6.w.a.g.h.g.a.g.b.~.).!.l.0.C & x  ...X.X.X.",
"X.X.X.X.X.c 6 $ M J 7.i.h.z.v.b.b.P.(.`.].'.!.r.Z % x  .X.X.X.X.",
"X.X.X.X.X.c 6 % 8 Z 6.0.r.g.z.n.~.(.`.'.}.[.!.e.N & x  .X.X.X.X.",
"X.X.X.X.X.{ 7 % % * C Z J 6.r.z.!.(.`.'.{.`.h.6.d 6 x  .X.X.X.X.",
"X.X.X.X.X. .x 7 % $ = * * Z 6.e.j.n.)._.(.c.0.J f s c ..X.X.X.X.",
"X.X.X.X.X.X. .x 6 + $ = * M Z P 0.f.c.c.f.7.L D x c  .X.X.X.X.X.",
"X.X.X.X.X.X.X.} 7 % $ = * M C J 6.w.j.h.w.,.Z B c  ...X.X.X.X.X.",
"X.X.X.X.X.X.X. .z 6 % * M Z H J 6.w.k.x.u.1.F f c  ...X.X.X.X.X.",
"X.X.X.X.X.X.X. .c f 6 * C J P 6.7.e.k.d.y.>.V d c  .X.X.X.X.X.X.",
"X.X.X.X.X.X.X.X. .c f d N J 7.w.e.i.s.y.5.` a 6 x  .X.X.X.X.X.X.",
"X.X.X.X.X.X.X.X.X. .x f B L w.g.h.s.t.1.] k & 6 c ..X.X.X.X.X.X.",
"X.X.X.X..... . ... .x f 8 G p.L.K.d.t.,.G g s z  .X.X.X.X.X.X.X.",
"X.X.X.X..... . . .} x s % A y.H.^.G.9.K N d f x  .X.X.X.X.X.X.X.",
"X.X.X.X.X..... ... .x 7 O h A.Q./.J.>.N 4 8 f x  .......X.X.X.X.",
"X.X.X.X.X.X....... .c 7 O , 4.D.F.S.` 4 * 8 z c  ... ...X.X.X.X.",
"X.X.X.X.X.X.X.X.X... .z @ > ) 3.Z.2.j 3 & 8 x {  ... ...X.X.X.X.",
"X.X.X.X.X.X.X.X.X.X. .c 6 > j / ( / t > 6 s c  .........X.X.X.X.",
"X.X.X.X.X.X.X.X.X.X.X.{ s 5 w t R R u w a s | X.X.X.X.X.X.X.X.X.",
"X.X.X.X.X.X.X.X.X.X.X. .z 0 > 9 u u u y 0 s  .X.X.X.X.X.X.X.X.X."
};
