/* XPM */
static char *ezgif_1_8d8110ebc3[] = {
/* columns rows colors chars-per-pixel */
"32 32 197 2 ",
"   c #150F02",
".  c #0F150B",
"X  c #1A1405",
"o  c #13190D",
"O  c #1C1A0A",
"+  c #141712",
"@  c #161B12",
"#  c #1A1C15",
"$  c #1C1D1B",
"%  c #201704",
"&  c #231C0A",
"*  c #2C1E09",
"=  c #241E12",
"-  c #1E200D",
";  c #172111",
":  c #1C2314",
">  c #1F2916",
",  c #1E211B",
"<  c #23220C",
"1  c #2D230D",
"2  c #2A2C0C",
"3  c #2D2106",
"4  c #31250B",
"5  c #3D2D0C",
"6  c #392706",
"7  c #36340F",
"8  c #262213",
"9  c #2D2615",
"0  c #222D16",
"q  c #2B2C11",
"w  c #22241D",
"e  c #282A18",
"r  c #352616",
"t  c #382716",
"y  c #3A2E14",
"u  c #372D19",
"i  c #233017",
"p  c #2E3313",
"a  c #26341A",
"s  c #2A351A",
"d  c #2C3B1D",
"f  c #343314",
"g  c #353914",
"h  c #313B1B",
"j  c #3D3B1E",
"k  c #3A3815",
"l  c #242623",
"z  c #292725",
"x  c #2A2A24",
"c  c #2C2C2B",
"v  c #322D26",
"b  c #322C28",
"n  c #2B3323",
"m  c #2F3F20",
"M  c #3C3424",
"N  c #373E21",
"B  c #31352B",
"V  c #3A322B",
"C  c #343627",
"Z  c #363534",
"A  c #3B3734",
"S  c #393936",
"D  c #3C3C3A",
"F  c #4E2E00",
"G  c #402F0A",
"H  c #422B05",
"J  c #42320B",
"K  c #463707",
"L  c #523203",
"P  c #5C3A07",
"I  c #483217",
"U  c #423E1E",
"Y  c #4A3E1E",
"T  c #503717",
"R  c #573C17",
"E  c #613F03",
"W  c #403020",
"Q  c #483322",
"!  c #523D2C",
"~  c #403B35",
"^  c #493D30",
"/  c #433E38",
"(  c #2F411F",
")  c #31411E",
"_  c #2F4120",
"`  c #334522",
"'  c #3C4321",
"]  c #364A24",
"[  c #384C25",
"{  c #3D4036",
"}  c #4A430A",
"|  c #564906",
" . c #5A5005",
".. c #51401F",
"X. c #634301",
"o. c #6E4800",
"O. c #684207",
"+. c #774E00",
"@. c #635105",
"#. c #7C5400",
"$. c #765D03",
"%. c #61401F",
"&. c #776203",
"*. c #444521",
"=. c #494120",
"-. c #4B442C",
";. c #5F4823",
":. c #534221",
">. c #43423E",
",. c #48433E",
"<. c #544533",
"1. c #50473E",
"2. c #5C4935",
"3. c #634322",
"4. c #704C24",
"5. c #6F562A",
"6. c #755027",
"7. c #7C562B",
"8. c #6D5530",
"9. c #795A3F",
"0. c #3F3F40",
"q. c #444443",
"w. c #474845",
"e. c #4B4945",
"r. c #4C4C4B",
"t. c #494543",
"y. c #524A44",
"u. c #514E4D",
"i. c #5B4F44",
"p. c #54514E",
"a. c #5D554E",
"s. c #545351",
"d. c #595856",
"f. c #5E5D5A",
"g. c #595755",
"h. c #625343",
"j. c #655945",
"k. c #6B5A44",
"l. c #60574A",
"z. c #63594D",
"x. c #6C5D4C",
"c. c #765740",
"v. c #755C45",
"b. c #7F5D41",
"n. c #705748",
"m. c #735949",
"M. c #795C4A",
"N. c #645B54",
"B. c #695D51",
"V. c #605F5D",
"C. c #7D644A",
"Z. c #64615C",
"A. c #6C645B",
"S. c #676562",
"D. c #686765",
"F. c #6B6A66",
"G. c #6E6C69",
"H. c #706F6B",
"J. c #73716D",
"K. c #767471",
"L. c #797672",
"P. c #7B7975",
"I. c #7E7C78",
"U. c #835E00",
"Y. c #8E6500",
"T. c #866A01",
"R. c #926B00",
"E. c #947301",
"W. c #83592D",
"Q. c #875837",
"!. c #835639",
"~. c #84593B",
"^. c #8A5B3A",
"/. c #885934",
"(. c #945F30",
"). c #88612F",
"_. c #8F683A",
"`. c #8A6331",
"'. c #A36935",
"]. c #A77137",
"[. c #AF793E",
"{. c #836444",
"}. c #8F6F4D",
"|. c #996C42",
" X c #906F4D",
".X c #957147",
"XX c #A0774B",
"oX c #A57240",
"OX c #B57C45",
"+X c #817E7A",
"@X c #83817E",
"#X c #888682",
"$X c #8C8A85",
"%X c #8F8D89",
"&X c #868481",
"*X c #908D88",
"=X c #93908C",
/* pixels */
"[ [ [ [ [ [ [ [ [ [ [ [ [ _ 0 o . ; d [ [ [ [ [ [ [ [ [ [ [ [ [ ",
"[ [ [ [ [ [ [ [ [ [ [ ] ` h p 2 2 2 h ` [ [ [ [ [ [ [ [ [ [ [ [ ",
"[ [ [ [ [ ] ] ] ] ] ] ` h g } |  .| k h ) ] [ [ [ [ [ [ [ [ [ [ ",
"[ [ [ [ ] ] ` ` ] ` ` h f K @.&.T.$.} 7 d _ ] [ [ [ [ [ [ [ [ [ ",
"[ [ [ [ ] ] ` ` ] ` d g K | $.R.E.T.X.J q a ` [ [ [ [ [ [ [ [ [ ",
"[ [ [ [ [ ] ] ] [ ` d f K E #.Y.R.U.X.H 2 0 ` [ [ [ [ [ [ [ [ [ ",
"[ [ [ [ [ [ [ [ [ ` d p 6 F X.+.#.o.L 6 < 0 ` [ [ [ [ [ [ [ [ [ ",
"[ [ [ [ [ [ [ [ [ ` s q 4 6 L E O.P H * < 0 d [ [ [ [ [ [ [ [ [ ",
"[ [ [ [ [ [ [ [ ) s 0 : 8 r I R R T t = # > s ) ] [ [ [ [ [ [ [ ",
"[ [ [ [ [ [ [ _ a > : , z V ^ <.2.<.V z w : > a d ` ] [ [ [ [ [ ",
"[ [ [ [ [ [ ` a ; + $ z Z q.a.Z.A.N.e.S c , @ @ 0 d ( ` ` ] [ [ ",
"[ [ [ [ [ ` d a , $ z Z D r.Z.H.K.G.s.q.Z c $ # : 0 d ` ` ] [ [ ",
"[ [ [ [ [ ` d n B S >.q.q.r.Z.J.L.H.s.q.q.D S c # ; s ` ] [ [ [ ",
"[ [ [ [ [ ` s n >.u.g.d.s.d.G.P.@XL.f.s.s.s.r.D $ @ a ` [ [ [ [ ",
"[ [ [ [ [ ` s B e.f.F.H.G.J.+X$X*X#XK.F.D.S.f.q., @ a ` [ [ [ [ ",
"[ [ [ [ [ ` s n >.s.D.J.L.I.#X%X=X$X+XK.J.S.s.D , ; d ` [ [ [ [ ",
"[ [ [ [ [ ` d a x Z p.S.J.P.@X&X#X@XP.J.S.p.Z l : > d ] [ [ [ [ ",
"[ [ [ [ [ ] d i # w D p.f.S.F.G.J.H.D.V.g.q.l @ > a ` [ [ [ [ [ ",
"[ [ [ [ [ [ ` a o + c D 0.q.w.r.s.s.w.q.q.Z # o i _ ] [ [ [ [ [ ",
"[ [ [ [ [ [ ` a o + c D / / >.,.e.e.,.t.e.S # o a ` [ [ [ [ [ [ ",
"[ [ [ [ [ [ ` a o # S y.h.k.h.h.l.z.k.x.N.q.$ o a ` [ [ [ [ [ [ ",
"[ [ [ [ [ [ ` d w c q.z.C.{.9.c.v.v.{.C.A.r.c , a m ` [ [ [ [ [ ",
"[ [ [ [ [ [ m C { e.s.z.b.^.^.Q.!.!.^.b.z.p.q.S n a _ [ [ [ [ [ ",
"[ [ [ [ ` ` N -.j.A.a.a.c.~.^.^.!.!.~.9.i.p.B.j.-.j h ` [ [ [ [ ",
"[ [ [ ` d h =.8..X Xh.1.h.n.M.M.M.m.n.h.y.h.}.XX_.5.U d ` [ [ [ ",
"[ [ [ ` a s :.7.oX|.<.~ y.a.N.B.B.N.a.y.,.2.|.OX[.`.Y s ` [ [ [ ",
"[ [ [ ` a s ..6.(.W.Q b >.u.p.p.p.p.u.t.A ! W.'.].).Y s ` [ [ [ ",
"[ [ [ ` d h =.;.4.%.r w A >.>.>.>.>.,.~ b W 3.7.W.5.U d ` [ [ [ ",
"[ [ [ [ ` ` ' ' j f = = u M v v x v M M 9 9 u U *.*.' ` ] [ [ [ ",
"[ [ [ [ [ [ ` _ d 0 O & y y 9 = # = y y 1 8 0 s d _ ` [ [ [ [ [ ",
"[ [ [ [ [ [ [ ] ` s - & 5 5 1 O X & 5 J 4 q s _ ` ] [ [ [ [ [ [ ",
"[ [ [ [ [ [ [ [ ` d < * G J 3 X   % 5 J 4 q h ` [ [ [ [ [ [ [ [ "
};
