/* XPM */
static char *ezgif_1_04ea39759f[] = {
/* columns rows colors chars-per-pixel */
"32 32 242 2 ",
"   c #29271A",
".  c #23291E",
"X  c #232A1F",
"o  c #292C1D",
"O  c #282D1E",
"+  c #322A17",
"@  c #3E2F16",
"#  c #342D19",
"$  c #3D3016",
"%  c #32311C",
"&  c #3C371B",
"*  c #3B371D",
"=  c #3B371E",
"-  c #1E2A21",
";  c #1F2D22",
":  c #1F3428",
">  c #202B21",
",  c #222F23",
"<  c #273023",
"1  c #273123",
"2  c #203025",
"3  c #223224",
"4  c #233224",
"5  c #213126",
"6  c #203327",
"7  c #223226",
"8  c #223326",
"9  c #273324",
"0  c #233424",
"q  c #233627",
"w  c #243424",
"e  c #273425",
"r  c #243727",
"t  c #283123",
"y  c #293323",
"u  c #2A3323",
"i  c #2D3221",
"p  c #283525",
"a  c #2A3424",
"s  c #2B3424",
"d  c #283526",
"f  c #273827",
"g  c #2F3823",
"h  c #283827",
"j  c #2A3826",
"k  c #2E3925",
"l  c #2C3B26",
"z  c #2E3C26",
"x  c #203729",
"c  c #223628",
"v  c #20372A",
"b  c #213A2B",
"n  c #253A29",
"m  c #203B2C",
"M  c #213D2D",
"N  c #213E2D",
"B  c #233F2C",
"V  c #223E2D",
"C  c #223E2E",
"Z  c #243E2D",
"A  c #2D3F29",
"S  c #353821",
"D  c #303924",
"F  c #313E29",
"G  c #323E28",
"H  c #323E29",
"J  c #4A3715",
"K  c #4A3916",
"L  c #4C3A17",
"P  c #403318",
"I  c #413A1B",
"U  c #453A1C",
"Y  c #513E16",
"T  c #22402F",
"R  c #25402C",
"E  c #2A412A",
"W  c #2E4129",
"Q  c #294A2F",
"!  c #344427",
"~  c #3D4226",
"^  c #3E4326",
"/  c #3D4B26",
"(  c #334029",
")  c #364128",
"_  c #34422A",
"`  c #35432A",
"'  c #364528",
"]  c #36462B",
"[  c #364829",
"{  c #304E2F",
"}  c #3A482B",
"|  c #3D4C28",
" . c #3C4B2D",
".. c #3D4B2D",
"X. c #3A4C2C",
"o. c #3C4C2D",
"O. c #3E4E2C",
"+. c #3D4C2E",
"@. c #3E4D2E",
"#. c #3F4E2E",
"$. c #3E4E2F",
"%. c #39542E",
"&. c #224130",
"*. c #224230",
"=. c #234230",
"-. c #244630",
";. c #244631",
":. c #254731",
">. c #264B33",
",. c #264C33",
"<. c #274C33",
"1. c #264C34",
"2. c #274C34",
"3. c #2D4C30",
"4. c #2B5031",
"5. c #295034",
"6. c #2A5435",
"7. c #2A5436",
"8. c #2E5C37",
"9. c #2D5C38",
"0. c #2E5D38",
"q. c #2E5D39",
"w. c #2E5E39",
"e. c #2F5F39",
"r. c #305635",
"t. c #3F5030",
"y. c #365C35",
"u. c #315F38",
"i. c #3D6537",
"p. c #316339",
"a. c #32633A",
"s. c #31663B",
"d. c #32673B",
"f. c #33683C",
"g. c #34693C",
"h. c #346A3C",
"j. c #346B3D",
"k. c #366C3D",
"l. c #376D3D",
"z. c #3F6A3B",
"x. c #3B6E3E",
"c. c #38703E",
"v. c #3D733F",
"b. c #564118",
"n. c #5D4719",
"m. c #5D481C",
"M. c #67511F",
"N. c #444325",
"B. c #404627",
"V. c #5F4E23",
"C. c #42532C",
"Z. c #40502F",
"A. c #42502E",
"S. c #45532F",
"D. c #46532F",
"F. c #5B552B",
"G. c #405030",
"H. c #415130",
"J. c #425331",
"K. c #435431",
"L. c #475531",
"P. c #475631",
"I. c #4A5530",
"U. c #475933",
"Y. c #445F32",
"T. c #475A34",
"R. c #485B34",
"E. c #495C35",
"W. c #495D35",
"Q. c #4A5D35",
"!. c #4B5D35",
"~. c #4A5E35",
"^. c #4B5E35",
"/. c #4B5E36",
"(. c #4B5F36",
"). c #545D33",
"_. c #6C5A27",
"`. c #685F2F",
"'. c #4C6531",
"]. c #4B6036",
"[. c #4C6037",
"{. c #4D6037",
"}. c #4C6137",
"|. c #4D6137",
" X c #4E6037",
".X c #4D6237",
"XX c #4D6E36",
"oX c #4D6238",
"OX c #4D6338",
"+X c #4E6238",
"@X c #4E6338",
"#X c #4F6338",
"$X c #4E6438",
"%X c #506237",
"&X c #596135",
"*X c #516338",
"=X c #40703E",
"-X c #44743E",
";X c #5A7332",
":X c #547839",
">X c #567E3C",
",X c #3E7440",
"<X c #3F7540",
"1X c #407540",
"2X c #457B41",
"3X c #477C42",
"4X c #4D7F42",
"5X c #5B803B",
"6X c #678436",
"7X c #6F923B",
"8X c #4C8143",
"9X c #4D8143",
"0X c #4E8243",
"qX c #4F8443",
"wX c #538240",
"eX c #548643",
"rX c #558944",
"tX c #558945",
"yX c #578A44",
"uX c #578A45",
"iX c #5A8D45",
"pX c #5A8D46",
"aX c #5D9045",
"sX c #669241",
"dX c #609346",
"fX c #619446",
"gX c #649645",
"hX c #6B9943",
"jX c #6A9B44",
"kX c #689B47",
"lX c #6C9F47",
"zX c #6FA147",
"xX c #74A646",
"cX c #74A647",
"vX c #7AA442",
"bX c #79A946",
"nX c #78AB47",
"mX c #7DAC45",
"MX c #7FB147",
"NX c #82AB41",
"BX c #8AB746",
"VX c #88B948",
/* pixels */
"@X@X@X@X@X@X@X@X@X@X$X|.U. .g O O g  .U.|.$X@X@X@X@X@X@X@X@X@X@X",
"@X@X@X@X@X@X@X@X@X@X|.E.H.O.| / / | O.H.E.|.@X@X@X@X@X@X@X@X@X@X",
"@X@X@X@X@X@X@X@X@X|.E.H.} C.;X6X6X;XC.} H.E.|.@X@X@X@X@X@X@X@X@X",
"@X@X@X@X@X@X@X@X@XE.H. .X.'.7XNXNX7X'.X. .H.E.@X@X@X@X@X@X@X@X@X",
"@X@X@X@X@X@X$X@X].K.) ' Y.5XvXBXBXvX5XY.' ) K.].@X$X@X@X@X@X@X@X",
"@X@X@X@X@X@X$X|.E.O.k ! XXsXmXVXVXmXsXXX! k O.E.|.$X@X@X@X@X@X@X",
"@X@X@X@X@X@X$X|.T.O.k [ :XhXbXMXMXbXhX:X[ k O.T.|.$X@X@X@X@X@X@X",
"@X@X@X@X@X@X|.R.t.' W %.>XjXxXbXbXxXjX>X%.W ] t.R.|.@X@X@X@X@X@X",
"@X@X@X@X@X|.E.H.( A { i.wXgXzXxXxXzXgXwXi.{ A ( H.E.|.@X@X@X@X@X",
"@X@X@X@X@XE.H.) j E y.-XeXdXjXlXlXjXdXeX-Xy.E j ' C.E.@X@X@X@X@X",
"@X@X@X@XE.H.G s n 3.z.4XyXaXdXfXfXdXaXyX4Xz.3.n s G H.E.@X@X@X@X",
"@X@X@X@XE.O.s , R r.=X9XyXpXpXpXpXpXpXyX9X=Xr.R 3 s O.E.|.@X@X@X",
"@X@X$X|.E.O.u 3 Q u.x.2XqXyXyXyXyXyXyXqX2Xx.u.Q 3 u O.E.|.$X@X@X",
"@X@X$X|.E.O.u 0 4.a.l.<X3X9X9X0X9X9X9X3X<Xl.a.4.0 u O.E.|.$X@X@X",
"@X@X$X|.E.O.u 0 4.a.j.c.v.<X1X1X1X1X<Xv.x.j.a.4.r u O.E.|.$X@X@X",
"@X@X$X|.E.O.u 3 Q 8.s.j.l.l.l.l.l.l.l.l.j.s.e.>.3 u O.E.|.$X@X@X",
"@X$X$X|.E.O.u ; V 5.e.d.f.j.j.j.f.j.j.f.s.e.5.V ; u O.E.@X$X$X@X",
"@X@X$X|.E.O.u - c :.7.e.e.e.e.e.e.e.e.e.e.7.:.c - u O.E.|.$X@X@X",
"@X@X$X|.E.O.s > : V :.1.1.1.1.1.1.,.,.,.>.:.V : > s O.E.|.$X@X@X",
"@X@X@X@XE.H.G 9 3 c V *.*.*.*.*.*.*.*.*.T V c 3 9 G H.].@X$X@X@X",
"@X@X@X@X@XE.C.) r 3 b V V V Z Z Z Z V V m : 3 r ) C.E.@X@X@X@X@X",
"@X@X@X@X@X|.E.H.G s 0 c r f k z z k j 0 3 3 r G H.E.|.@X@X@X@X@X",
"@X@X@X@X@X@X|.R.H.) 1 X O % & I I & % O X 1 ) H.R.|.@X@X@X@X@X@X",
"@X@X@X@X@X$X$X|.R. .i   + $ K Y Y K $ +   i  .R.|.$X@X@X@X@X@X@X",
"@X@X@X@X@X@X$X@XE.C.S # @ J b.n.n.b.J @ # S C.E.@X$X@X@X@X@X@X@X",
"@X@X@X@X@X@X$X@X|.P.^ = P L m.M.M.m.L P = ^ P.|.@X$X@X@X@X@X@X@X",
"@X@X@X@X@X@X@X@X@XE.D.B.= U V._._.V.U = B.D.E.@X@X$X$X$X@X@X@X@X",
"@X@X@X@X@X@X@X@X@X|.E.D.^ N.F.`.`.F.N.^ D.E.|.@X@X@X@X$X@X@X@X@X",
"@X@X@X@X@X@X@X@X@X@X|.E.P.I.).&X&X).I.P.E.|.@X@X@X@X@X@X@X@X@X@X",
"@X@X@X@X@X@X@X@X@X@X@X@X|.|.%X*X*X|.|.|.@X@X@X@X@X@X@X@X@X@X@X@X",
"@X@X@X@X@X@X@X@X@X@X@X@X@X@X@X@X@X@X@X@X@X@X@X@X@X@X@X@X@X@X@X@X",
"@X@X@X@X@X@X@X@X@X@X@X@X@X@X@X@X@X@X@X@X@X@X@X@X@X@X@X@X@X@X@X@X"
};
