/* XPM */
static char *ezgif_1_649769f7a9[] = {
/* columns rows colors chars-per-pixel */
"32 32 109 2 ",
"   c #282518",
".  c #232B1D",
"X  c #2A2D1C",
"o  c #322917",
"O  c #3D2E15",
"+  c #27321F",
"@  c #2A331E",
"#  c #2B391F",
"$  c #3D3016",
"%  c #33321B",
"&  c #3B361A",
"*  c #333B1E",
"=  c #383C1E",
"-  c #1E2B21",
";  c #1F3226",
":  c #1F3629",
">  c #222F20",
",  c #223324",
"<  c #283620",
"1  c #273924",
"2  c #2D3D22",
"3  c #203729",
"4  c #223E2D",
"5  c #283E29",
"6  c #313F21",
"7  c #403216",
"8  c #4A3716",
"9  c #4C3A17",
"0  c #413A1B",
"q  c #493C1B",
"w  c #513E17",
"e  c #2F4022",
"r  c #22402F",
"t  c #2A4B2E",
"y  c #334523",
"u  c #384724",
"i  c #364A24",
"p  c #384C25",
"a  c #344728",
"s  c #38532D",
"d  c #234330",
"f  c #264C33",
"g  c #2D4B30",
"h  c #2A5133",
"j  c #2E5D37",
"k  c #2E5E39",
"l  c #305635",
"z  c #355B34",
"x  c #315F38",
"c  c #3D6536",
"v  c #32653A",
"b  c #356B3D",
"n  c #3D6C3C",
"m  c #3A713F",
"M  c #43401F",
"N  c #574218",
"B  c #5E481B",
"V  c #66511F",
"C  c #464E26",
"Z  c #574F25",
"A  c #5F4E22",
"S  c #4A5127",
"D  c #415D30",
"F  c #6B5825",
"G  c #615828",
"H  c #4A622F",
"J  c #4C6E36",
"K  c #42723E",
"L  c #587130",
"P  c #557B3A",
"I  c #3E7540",
"U  c #407540",
"Y  c #467B41",
"T  c #4D7F42",
"R  c #5B803A",
"E  c #668436",
"W  c #6F913B",
"Q  c #4C8143",
"!  c #4D8143",
"~  c #4E8243",
"^  c #4F8443",
"/  c #538240",
"(  c #548643",
")  c #558944",
"_  c #558945",
"`  c #578A44",
"'  c #578A45",
"]  c #5A8D45",
"[  c #5A8D46",
"{  c #5D9045",
"}  c #679241",
"|  c #609346",
" . c #619446",
".. c #649645",
"X. c #6B9A43",
"o. c #6B9B45",
"O. c #689B47",
"+. c #6C9F47",
"@. c #6FA147",
"#. c #74A646",
"$. c #74A647",
"%. c #7AA442",
"&. c #79A946",
"*. c #78AB47",
"=. c #7DAC45",
"-. c #82AB41",
";. c #80B147",
":. c #8BB746",
">. c #89B948",
/* pixels */
"p p p p p p p p p p p p y 2 @ . . @ 2 y p p p p p p p p p p p p ",
"p p p p p p p p p p p y y y u p p u y y a p p p p p p p p p p p ",
"p p p p p i i i i i y y 2 p L E E L p 2 y y p p p p p p p p p p ",
"p p p p i i y y y y 2 2 a H W -.-.W H a 2 6 y p p p p p p p p p ",
"p p p p i i y y y 2 @ 2 D P %.:.:.%.R D 2 @ y i p p p p p p p p ",
"p p p p p i i y y 2 + y J } =.>.>.=.} J y + 2 i p p p p p p p p ",
"p p p p p p p p y 2 + a P X.&.;.=.&.X.P a + 2 y p p p p p p p p ",
"p p p p p p p y e 2 2 s P o.#.&.&.#.o.P s 2 2 y a p p p p p p p ",
"p p p p p p y 2 < 1 t c / ..@.#.#.@.../ c t 1 < 2 y p p p p p p ",
"p p p p p y 2 < , 5 z K ( | o.+.+.o.{ ( K z 5 , < 2 y p p p p p ",
"p p p p i y + > 3 g n T ` { |  . .| { ` T n g 3 > + # y y i p p ",
"p p p p i 2 . - 5 l K ! ` [ [ [ [ [ [ ` ! K l r - . # y y i p p ",
"p p p p i 2 . , t v n Y ^ ` ` ` ` ` ` ( Y n x t , . 2 y i p p p ",
"p p p p i 2 . , h v b I Y ! ! ! ~ ! ! Y m b v g , . 2 i p p p p ",
"p p p p i 2 . , h v b m m I U U U U m m n b v h , . 2 i p p p p ",
"p p p p i 2 . , t j v b b b b b b b b b b v j t , . 2 i p p p p ",
"p p p p i 2 . - 4 h j v b b b b b b b b v j h 4 - . 2 i p p p p ",
"p p p p i 2 . - 3 d h j j j j j j j j j j h d 3 - . 2 i p p p p ",
"p p p p i 2 . - : 4 d f f f f f f f f f f d 4 : - . 2 i p p p p ",
"p p p p p y + > ; : 4 r d d d d d d d d r 4 : ; > + y i p p p p ",
"p p p p p y 2 < > - : 4 4 4 4 4 4 4 4 4 4 : - > < 2 y p p p p p ",
"p p p p p p y 2 < > ; , 3 1 2 2 2 2 1 3 , ; > < 2 y p p p p p p ",
"p p p p p p p y 2 < . . X % & 0 0 & % X . . < 2 a p p p p p p p ",
"p p p p p p p p y 2 X   o $ 9 w w 9 $ o   X 2 y p p p p p p p p ",
"p p p p p i y y y # X o O 8 N B B N 8 O o @ y i p p p p p p p p ",
"p p p p p i y y y 6 % % 7 9 B V V B 9 7 % * y p p p p p p p p p ",
"p p p p p p i i i y 6 * & q A F F A q & * y i p i i y i p p p p ",
"p p p p p p p i i i y y = M Z G G Z C = y p p p i y y i p p p p ",
"p p p p p p p p p p p i u u C S S C u u p p p p i i i i p p p p ",
"p p p p p p p p p p p p p p p p p p p p p p p p p i i i p p p p ",
"p p p p p p p p p p p p p p p p p p p p p p p p p p p p p p p p ",
"p p p p p p p p p p p p p p p p p p p p p p p p p p p p p p p p "
};
